SplineFontDB: 3.2
FontName: LatinAnnatarItalic
FullName: Latin Annatar Italic
FamilyName: Latin Annatar
Weight: Book
Copyright: Shankar Sivarajan. \nBased on glyphs from Tengwar Annatar Italic, by Johan Winge.
Version: 1.0.0 ; ttfautohint (v1.8.2)
ItalicAngle: 0
UnderlinePosition: -250
UnderlineWidth: 100
Ascent: 1638
Descent: 410
InvalidEm: 0
sfntRevision: 0x00013333
LayerCount: 2
Layer: 0 1 "Back" 1
Layer: 1 1 "Fore" 0
XUID: [1021 146 -1796264217 25487]
StyleMap: 0x0001
FSType: 0
OS2Version: 4
OS2_WeightWidthSlopeOnly: 0
OS2_UseTypoMetrics: 1
CreationTime: 1107308935
ModificationTime: 1659804701
PfmFamily: 17
TTFWeight: 400
TTFWidth: 5
LineGap: 0
VLineGap: 0
Panose: 2 0 5 3 0 0 0 0 0 0
OS2TypoAscent: 1638
OS2TypoAOffset: 0
OS2TypoDescent: -410
OS2TypoDOffset: 0
OS2TypoLinegap: 0
OS2WinAscent: 2779
OS2WinAOffset: 0
OS2WinDescent: 2255
OS2WinDOffset: 0
HheadAscent: 2779
HheadAOffset: 0
HheadDescent: -2255
HheadDOffset: 0
OS2SubXSize: 1331
OS2SubYSize: 1433
OS2SubXOff: 0
OS2SubYOff: 286
OS2SupXSize: 1331
OS2SupYSize: 1433
OS2SupXOff: 0
OS2SupYOff: 983
OS2StrikeYSize: 102
OS2StrikeYPos: 530
OS2Vendor: 'PfEd'
OS2CodePages: 00000001.c0d40000
OS2UnicodeRanges: 8000002f.00000008.00000000.00000000
Lookup: 1 0 0 "NoCaps" { "NoCaps subtable"  } ['liga' ('latn' <'dflt' > 'DFLT' <'dflt' > ) ]
Lookup: 6 0 0 "Finals" { "Finals contextual 0"  "Finals contextual 1"  } ['liga' ('latn' <'dflt' > 'DFLT' <'dflt' > ) ]
Lookup: 1 0 0 "Single Substitution lookup 2" { "Single Substitution lookup 2 subtable"  } []
Lookup: 4 0 1 "Ligatures" { "Ligatures subtable"  } ['liga' ('latn' <'dflt' > 'DFLT' <'dflt' > ) ]
Lookup: 258 0 0 "'kern' Horizontal Kerning in Latin lookup 0" { "'kern' Horizontal Kerning in Latin lookup 0 subtable" [307,30,0] } ['kern' ('latn' <'dflt' > ) ]
MarkAttachClasses: 1
DEI: 91125
ChainSub2: coverage "Finals contextual 1" 0 0 0 1
 1 0 0
  Coverage: 1 s
 1
  SeqLookup: 0 "Single Substitution lookup 2"
EndFPST
ChainSub2: coverage "Finals contextual 0" 0 0 0 1
 1 0 1

StartChar: comma
Encoding: 44 44 1
Width: 696
Flags: W
LayerCount: 2
Fore
SplineSet
88 197 m 2,0,1
 88 237 88 237 162 296 c 0,2,3
 220 342 220 342 246 342 c 0,4,5
 260 342 260 342 262 329 c 0,6,7
 264 320 264 320 264 288 c 0,8,9
 264 87 264 87 124 -95 c 0,10,11
 46 -196 46 -196 -31 -239 c 0,12,13
 -57 -253 -57 -253 -72 -253 c 0,14,15
 -86 -253 -86 -253 -86 -240 c 0,16,17
 -86 -216 -86 -216 -47 -173 c 0,18,19
 13 -109 13 -109 36 -69 c 0,20,21
 90 24 90 24 90 153 c 1,22,-1
 88 197 l 2,0,1
EndSplineSet
Validated: 1
EndChar

StartChar: hyphen
Encoding: 45 45 2
Width: 1320
Flags: W
LayerCount: 2
Fore
SplineSet
958 557 m 4,0,1
 1059 557 1059 557 1101 591 c 6,2,-1
 1133 617 l 6,3,4
 1147 626 1147 626 1165 631 c 5,5,-1
 1174 631 l 6,6,7
 1184 630 1184 630 1184 621 c 4,8,9
 1184 597 1184 597 1135 550 c 4,10,11
 1038 459 1038 459 907 439 c 4,12,13
 877 434 877 434 846 434 c 4,14,15
 770 434 770 434 622 462 c 4,16,17
 500 486 500 486 427 486 c 4,18,19
 324 486 324 486 263 440 c 4,20,21
 232 416 232 416 221 413 c 4,22,23
 216 412 216 412 209 412 c 4,24,25
 198 412 198 412 198 422 c 4,26,27
 198 447 198 447 248 495 c 4,28,29
 344 585 344 585 476 605 c 4,30,31
 507 609 507 609 537 609 c 4,32,33
 610 609 610 609 764 580 c 4,34,35
 887 557 887 557 958 557 c 4,0,1
EndSplineSet
Validated: 1
EndChar

StartChar: asciicircum
Encoding: 94 94 3
Width: 896
Flags: W
LayerCount: 2
Fore
SplineSet
142 1280 m 0,0,1
 131 1280 131 1280 131 1290 c 0,2,3
 131 1314 131 1314 172 1354 c 2,4,-1
 291 1466 l 2,5,6
 393 1567 393 1567 501 1698 c 0,7,8
 544 1749 544 1749 586 1765 c 0,9,10
 595 1768 595 1768 601 1768 c 0,11,12
 612 1768 612 1768 621 1729 c 0,13,14
 645 1624 645 1624 675 1560 c 0,15,16
 714 1480 714 1480 778 1408 c 0,17,18
 787 1397 787 1397 787 1393 c 0,19,20
 787 1371 787 1371 743 1327 c 0,21,22
 695 1280 695 1280 664 1280 c 0,23,24
 646 1280 646 1280 595 1360 c 0,25,26
 520 1478 520 1478 490 1597 c 0,27,28
 489 1597 489 1597 447 1551 c 0,29,30
 366 1460 366 1460 240 1344 c 0,31,32
 171 1280 171 1280 142 1280 c 0,0,1
EndSplineSet
Validated: 1
EndChar

StartChar: question
Encoding: 63 63 4
Width: 2048
Flags: W
LayerCount: 2
Fore
SplineSet
1615 1748 m 0,0,1
 1676 1859 1676 1859 1661 1956 c 0,2,3
 1655 1984 1655 1984 1631 2015 c 0,4,5
 1583 2076 1583 2076 1508 2119 c 0,6,7
 1490 2129 1490 2129 1471 2138 c 0,8,9
 1355 2191 1355 2191 1232 2182 c 0,10,11
 1057 2171 1057 2171 979 2035 c 0,12,13
 957 1996 957 1996 957 1953 c 0,14,15
 958 1926 958 1926 975 1865 c 0,16,17
 991 1814 991 1814 977 1791 c 0,18,19
 970 1779 970 1779 957 1786 c 0,20,21
 948 1791 948 1791 938 1806 c 0,22,23
 898 1864 898 1864 874 1976 c 0,24,25
 839 2143 839 2143 891 2233 c 0,26,27
 897 2243 897 2243 904 2253 c 0,28,29
 984 2372 984 2372 1138 2396 c 0,30,31
 1301 2423 1301 2423 1465 2329 c 0,32,33
 1524 2295 1524 2295 1576 2240 c 0,34,35
 1700 2112 1700 2112 1744 1935 c 0,36,37
 1799 1718 1799 1718 1696 1539.5 c 128,-1,38
 1593 1361 1593 1361 1416 1154 c 2,39,-1
 1181 888 l 2,40,41
 952 630 952 630 842 439 c 0,42,43
 670 142 670 142 718 -111 c 0,44,45
 720 -121 720 -121 730 -156 c 0,46,47
 758 -260 758 -260 744 -284 c 2,48,-1
 742 -287 l 2,49,50
 736 -297 736 -297 723 -290 c 0,51,52
 690 -271 690 -271 663 -182 c 0,53,54
 624 -59 624 -59 614 56 c 0,55,56
 589 349 589 349 757 638 c 0,57,58
 852 803 852 803 1023 1006 c 1,59,-1
 1263 1280 l 2,60,61
 1503 1553 1503 1553 1615 1748 c 0,0,1
615 -661 m 0,62,63
 615 -600 615 -600 666 -546 c 0,64,65
 707 -503 707 -503 761 -484 c 0,66,67
 788 -475 788 -475 812 -475 c 0,68,69
 862 -475 862 -475 891 -511 c 0,70,71
 915 -542 915 -542 915 -588 c 0,72,73
 915 -650 915 -650 864 -705 c 0,74,75
 836 -734 836 -734 800 -752 c 0,76,77
 757 -775 757 -775 714 -775 c 0,78,79
 668 -775 668 -775 640 -739 c 0,80,81
 615 -707 615 -707 615 -661 c 0,62,63
EndSplineSet
Validated: 33
EndChar

StartChar: equal
Encoding: 61 61 5
Width: 870
Flags: W
LayerCount: 2
Fore
SplineSet
343 707 m 0,0,1
 392 707 392 707 518 684 c 0,2,3
 595 671 595 671 640 671 c 0,4,5
 713 671 713 671 747 701 c 0,6,7
 768 720 768 720 781 722 c 0,8,9
 787 724 787 724 795 724 c 0,10,11
 807 724 807 724 807 713 c 0,12,13
 807 692 807 692 763 648 c 0,14,15
 674 560 674 560 557 549 c 0,16,17
 543 548 543 548 528 548 c 0,18,19
 479 548 479 548 350 571 c 0,20,21
 276 584 276 584 235 584 c 2,22,-1
 219 584 l 2,23,24
 163 584 163 584 114 549 c 0,25,26
 88 531 88 531 75 531 c 0,27,28
 63 531 63 531 63 542 c 0,29,30
 63 565 63 565 109 609 c 0,31,32
 198 696 198 696 316 706 c 0,33,34
 330 707 330 707 343 707 c 0,0,1
470 357 m 0,35,36
 533 357 533 357 583 393 c 0,37,38
 608 411 608 411 621 411 c 0,39,40
 632 411 632 411 632 400 c 0,41,42
 632 377 632 377 587 333 c 0,43,44
 498 246 498 246 381 236 c 0,45,46
 367 235 367 235 354 235 c 0,47,48
 305 235 305 235 181 257 c 0,49,50
 103 271 103 271 56 271 c 0,51,52
 -16 271 -16 271 -53 240 c 1,53,54
 -84 220 -84 220 -99 218 c 0,55,56
 -111 218 -111 218 -111 229 c 0,57,58
 -111 252 -111 252 -65 296 c 0,59,60
 24 383 24 383 142 393 c 0,61,62
 156 394 156 394 169 394 c 0,63,64
 216 394 216 394 345 371 c 0,65,66
 424 357 424 357 470 357 c 0,35,36
EndSplineSet
Validated: 1
EndChar

StartChar: E
Encoding: 69 69 6
Width: 1148
Flags: W
LayerCount: 2
Fore
SplineSet
295 577 m 1,0,1
 206 511 206 511 149.5 432.5 c 128,-1,2
 93 354 93 354 71.5 274.5 c 128,-1,3
 50 195 50 195 56 111.5 c 128,-1,4
 62 28 62 28 93.5 -48.5 c 128,-1,5
 125 -125 125 -125 179 -196 c 128,-1,6
 233 -267 233 -267 304 -323 c 128,-1,7
 375 -379 375 -379 463.5 -420 c 128,-1,8
 552 -461 552 -461 648 -480 c 1,9,10
 731 -479 731 -479 804.5 -447.5 c 128,-1,11
 878 -416 878 -416 912 -369 c 0,12,13
 932 -342 932 -342 930 -289 c 0,14,15
 929 -233 929 -233 942 -208 c 0,16,17
 946 -201 946 -201 951 -194 c 0,18,19
 990 -141 990 -141 1062 -142 c 0,20,21
 1107 -144 1107 -144 1138 -167 c 0,22,23
 1180 -198 1180 -198 1178 -256 c 0,24,25
 1176 -307 1176 -307 1136 -361 c 0,26,27
 1082 -434 1082 -434 995 -490 c 128,-1,28
 908 -546 908 -546 787 -569 c 0,29,30
 703 -584 703 -584 592 -578 c 1,31,32
 350 -578 350 -578 121 -399 c 0,33,34
 -39 -273 -39 -273 -78 -85 c 0,35,36
 -89 -32 -89 -32 -89 22 c 0,37,38
 -89 179 -89 179 -16 317 c 2,39,-1
 -1 345 l 1,40,41
 122 560 122 560 369 721 c 0,42,43
 431 761 431 761 490 791 c 1,44,45
 545 810 545 810 562 800 c 0,46,47
 591 782 591 782 432 669 c 0,48,49
 375 629 375 629 295 577 c 1,0,1
231 600 m 1,50,-1
 255 623 l 2,51,52
 331 699 331 699 417 759 c 0,53,54
 455 786 455 786 496 810 c 0,55,56
 633 891 633 891 734 891 c 0,57,58
 880 891 880 891 972 770 c 0,59,60
 989 747 989 747 1001 724 c 0,61,62
 1040 650 1040 650 1040 569 c 0,63,64
 1040 378 1040 378 894 209 c 0,65,66
 824 128 824 128 732 68 c 0,67,68
 607 -14 607 -14 484 -14 c 0,69,70
 357 -14 357 -14 335 64 c 0,71,72
 332 77 332 77 332 91 c 0,73,74
 332 146 332 146 377 188 c 0,75,76
 416 223 416 223 467 223 c 0,77,78
 513 223 513 223 547 189 c 0,79,80
 576 160 576 160 589 153 c 0,81,82
 606 146 606 146 627 146 c 0,83,84
 785 146 785 146 842 292 c 0,85,86
 866 354 866 354 866 428 c 0,87,88
 866 577 866 577 755 669 c 0,89,90
 729 691 729 691 703 704 c 0,91,92
 648 731 648 731 591 731 c 1,93,94
 520 717 520 717 449 680.5 c 128,-1,95
 378 644 378 644 319.5 596 c 128,-1,96
 261 548 261 548 213.5 493.5 c 128,-1,97
 166 439 166 439 134 383 c 0,98,99
 1 164 1 164 0 186 c 0,100,101
 0 209 0 209 103 392 c 0,102,103
 178 526 178 526 231 600 c 1,50,-1
EndSplineSet
Validated: 37
Substitution2: "NoCaps subtable" e
EndChar

StartChar: D
Encoding: 68 68 7
Width: 1151
Flags: W
LayerCount: 2
Fore
SplineSet
589 642 m 0,0,1
 546 642 546 642 506 683 c 0,2,3
 474 716 474 716 460 722 c 0,4,5
 447 728 447 728 433 728 c 0,6,7
 428 728 428 728 420 728 c 0,8,9
 267 728 267 728 211 584 c 0,10,11
 186 520 186 520 186 446 c 0,12,13
 186 295 186 295 299 203 c 0,14,15
 324 182 324 182 349 170 c 0,16,17
 404 144 404 144 460 144 c 0,18,19
 562 144 562 144 685 240 c 0,20,21
 806 335 806 335 860 453 c 0,22,23
 868 471 868 471 874 489 c 2,24,-1
 966 839 l 2,25,26
 993 935 993 935 1023 1031 c 0,27,28
 1242 1732 1242 1732 1589 2187 c 0,29,30
 1667 2288 1667 2288 1753 2382 c 0,31,32
 1957 2605 1957 2605 2018 2605 c 0,33,34
 2034 2605 2034 2605 2034 2591 c 0,35,36
 2034 2558 2034 2558 1969 2498 c 0,37,38
 1684 2239 1684 2239 1478 1841 c 0,39,40
 1163 1230 1163 1230 944 138 c 0,41,42
 931 71 931 71 850 15 c 0,43,44
 805 -16 805 -16 783 -16 c 0,45,46
 768 -16 768 -16 768 -4 c 0,47,48
 768 22 768 22 815 231 c 0,49,50
 823 266 823 266 825 273 c 1,51,52
 823 273 823 273 809 259 c 0,53,54
 585 45 585 45 404 -4 c 0,55,56
 358 -16 358 -16 316 -16 c 0,57,58
 197 -16 197 -16 109 70 c 0,59,60
 12 165 12 165 12 312 c 0,61,62
 12 492 12 492 152 659 c 0,63,64
 265 793 265 793 411 855 c 0,65,66
 490 888 490 888 558 888 c 0,67,68
 723 888 723 888 723 778 c 0,69,70
 723 776 723 776 723 775 c 0,71,72
 723 703 723 703 658 663 c 0,73,74
 624 642 624 642 589 642 c 0,0,1
EndSplineSet
Validated: 1
Substitution2: "NoCaps subtable" d
EndChar

StartChar: G
Encoding: 71 71 8
Width: 1253
Flags: W
LayerCount: 2
Fore
SplineSet
406 -17 m 0,0,1
 283 -17 283 -17 195 73 c 0,2,3
 100 169 100 169 100 316 c 0,4,5
 100 542 100 542 328 744 c 0,6,7
 476 876 476 876 629 888 c 1,8,-1
 659 888 l 2,9,10
 795 888 795 888 812 797 c 0,11,12
 814 787 814 787 814 775 c 0,13,14
 814 720 814 720 768 678 c 0,15,16
 730 642 730 642 678 642 c 0,17,18
 634 642 634 642 596 683 c 0,19,20
 565 716 565 716 552 722 c 0,21,22
 540 729 540 729 527 729 c 0,23,24
 523 729 523 729 509 728 c 0,25,26
 383 728 383 728 327 634 c 0,27,28
 313 612 313 612 301 581 c 0,29,30
 275 515 275 515 275 447 c 0,31,32
 275 350 275 350 326 269 c 0,33,34
 377 189 377 189 468 157 c 0,35,36
 506 144 506 144 549 144 c 0,37,38
 645 144 645 144 748 221 c 0,39,40
 807 266 807 266 857 332 c 0,41,42
 901 390 901 390 975 532 c 0,43,44
 1048 670 1048 670 1103 730 c 0,45,46
 1145 777 1145 777 1196 806 c 0,47,48
 1223 821 1223 821 1239 821 c 0,49,50
 1253 821 1253 821 1253 806 c 0,51,52
 1253 784 1253 784 1207 733 c 0,53,54
 1187 711 1187 711 1182 703 c 0,55,56
 1130 623 1130 623 1024 317 c 0,57,58
 953 113 953 113 930 59 c 0,59,60
 597 -705 597 -705 -185 -1498 c 1,61,-1
 -471 -1777 l 1,62,63
 -705 -1997 -705 -1997 -781 -2061 c 0,64,65
 -829 -2099 -829 -2099 -862 -2102 c 0,66,67
 -877 -2102 -877 -2102 -877 -2089 c 0,68,69
 -877 -2054 -877 -2054 -792 -1978 c 2,70,-1
 -477 -1686 l 1,71,72
 521 -733 521 -733 819 100 c 1,73,-1
 862 228 l 1,74,75
 747 131 747 131 694 94 c 0,76,77
 533 -17 533 -17 406 -17 c 0,0,1
EndSplineSet
Validated: 1
Substitution2: "NoCaps subtable" g
EndChar

StartChar: I
Encoding: 73 73 9
Width: 524
Flags: W
LayerCount: 2
Fore
SplineSet
-42 675 m 0,0,1
 -42 705 -42 705 13 761 c 0,2,3
 116 862 116 862 267 895 c 0,4,5
 306 903 306 903 346 906 c 2,6,-1
 375 906 l 2,7,8
 462 906 462 906 500 825 c 0,9,10
 521 781 521 781 521 723 c 0,11,12
 521 628 521 628 452 444 c 0,13,14
 361 201 361 201 244 75 c 0,15,16
 175 0 175 0 125 -14 c 0,17,18
 118 -16 118 -16 112 -16 c 0,19,20
 96 -16 96 -16 96 -3 c 0,21,22
 96 17 96 17 147 78 c 0,23,24
 164 98 164 98 169 106 c 0,25,26
 255 234 255 234 315 435 c 0,27,28
 347 540 347 540 347 590 c 0,29,30
 347 689 347 689 286 729 c 0,31,32
 260 747 260 747 226 747 c 0,33,34
 117 747 117 747 42 695 c 0,35,36
 1 667 1 667 -11 664 c 0,37,38
 -18 662 -18 662 -26 662 c 0,39,40
 -42 662 -42 662 -42 675 c 0,0,1
476 1188 m 0,41,42
 455 1188 455 1188 449 1212 c 0,43,44
 448 1217 448 1217 448 1223 c 0,45,46
 448 1253 448 1253 480 1454 c 0,47,48
 492 1531 492 1531 500 1562 c 0,49,50
 524 1659 524 1659 586 1659 c 0,51,52
 626 1659 626 1659 645 1619 c 0,53,54
 653 1601 653 1601 653 1578 c 0,55,56
 653 1526 653 1526 554 1310 c 2,57,-1
 524 1245 l 2,58,59
 507 1209 507 1209 504 1204 c 0,60,61
 492 1188 492 1188 476 1188 c 0,41,42
243 1461 m 0,62,63
 243 1503 243 1503 274 1519 c 0,64,65
 287 1525 287 1525 304 1525 c 0,66,67
 379 1523 379 1523 407 1369 c 0,68,69
 416 1317 416 1317 416 1275 c 0,70,71
 416 1075 416 1075 367 1075 c 0,72,73
 344 1075 344 1075 336 1109 c 2,74,-1
 314 1242 l 1,75,76
 296 1326 296 1326 259 1404 c 0,77,78
 243 1438 243 1438 243 1461 c 0,62,63
494 1099 m 1,79,80
 494 1127 494 1127 558 1229 c 0,81,82
 652 1377 652 1377 726 1420 c 0,83,84
 749 1433 749 1433 767 1433 c 0,85,86
 806 1433 806 1433 820 1396 c 0,87,88
 824 1385 824 1385 824 1373 c 0,89,90
 824 1345 824 1345 794 1312 c 0,91,92
 769 1284 769 1284 699 1223 c 0,93,94
 651 1181 651 1181 572 1100 c 0,95,96
 542 1069 542 1069 521 1068 c 1,97,98
 498 1076 498 1076 494 1099 c 1,79,80
EndSplineSet
Validated: 1
Substitution2: "NoCaps subtable" i
EndChar

StartChar: J
Encoding: 74 74 10
Width: 584
Flags: W
LayerCount: 2
Fore
SplineSet
24 675 m 0,0,1
 24 704 24 704 78 759 c 0,2,3
 178 861 178 861 324 894 c 0,4,5
 366 904 366 904 410 906 c 0,6,7
 486 910 486 910 521 883 c 0,8,9
 546 865 546 865 565 828 c 0,10,11
 588 784 588 784 588 727 c 0,12,13
 588 585 588 585 421 226 c 0,14,15
 368 110 368 110 306 -5 c 0,16,17
 -246 -1039 -246 -1039 -913 -1768 c 1,18,-1
 -1007 -1869 l 2,19,20
 -1077 -1946 -1077 -1946 -1264 -2122 c 0,21,22
 -1339 -2193 -1339 -2193 -1366 -2215 c 0,23,24
 -1415 -2255 -1415 -2255 -1444 -2255 c 0,25,26
 -1459 -2255 -1459 -2255 -1459 -2241 c 0,27,28
 -1459 -2213 -1459 -2213 -1397 -2152 c 2,29,-1
 -1211 -1974 l 1,30,-1
 -1187 -1951 l 1,31,32
 -473 -1239 -473 -1239 138 -103 c 0,33,34
 332 257 332 257 393 478 c 0,35,36
 414 551 414 551 414 595 c 0,37,38
 414 669 414 669 373 713 c 0,39,40
 341 746 341 746 291 746 c 0,41,42
 182 746 182 746 107 695 c 0,43,44
 67 667 67 667 56 664 c 0,45,46
 48 662 48 662 40 662 c 0,47,48
 24 662 24 662 24 675 c 0,0,1
565 1219 m 0,49,50
 544 1219 544 1219 538 1243 c 0,51,52
 537 1248 537 1248 537 1254 c 0,53,54
 537 1284 537 1284 569 1485 c 0,55,56
 581 1562 581 1562 589 1593 c 0,57,58
 613 1690 613 1690 675 1690 c 0,59,60
 715 1690 715 1690 734 1650 c 0,61,62
 742 1632 742 1632 742 1609 c 0,63,64
 742 1557 742 1557 643 1341 c 2,65,-1
 613 1276 l 2,66,67
 596 1240 596 1240 593 1235 c 0,68,69
 581 1219 581 1219 565 1219 c 0,49,50
332 1492 m 0,70,71
 332 1534 332 1534 363 1550 c 0,72,73
 376 1556 376 1556 393 1556 c 0,74,75
 468 1554 468 1554 496 1400 c 0,76,77
 505 1348 505 1348 505 1306 c 0,78,79
 505 1106 505 1106 456 1106 c 0,80,81
 433 1106 433 1106 425 1140 c 2,82,-1
 403 1273 l 1,83,84
 385 1357 385 1357 348 1435 c 0,85,86
 332 1469 332 1469 332 1492 c 0,70,71
583 1130 m 0,87,88
 583 1158 583 1158 647 1260 c 0,89,90
 741 1408 741 1408 815 1451 c 0,91,92
 838 1464 838 1464 856 1464 c 0,93,94
 895 1464 895 1464 909 1427 c 0,95,96
 913 1416 913 1416 913 1404 c 0,97,98
 913 1376 913 1376 883 1343 c 0,99,100
 858 1315 858 1315 788 1254 c 0,101,102
 740 1212 740 1212 661 1131 c 0,103,104
 631 1100 631 1100 610 1099 c 1,105,106
 587 1107 587 1107 583 1130 c 0,87,88
EndSplineSet
Validated: 33
Substitution2: "NoCaps subtable" j
EndChar

StartChar: colon
Encoding: 58 58 11
Width: 540
Flags: W
LayerCount: 2
Fore
SplineSet
246 697 m 0,0,1
 246 755 246 755 297 785 c 0,2,3
 319 798 319 798 341 798 c 0,4,5
 421 798 421 798 443 733 c 0,6,7
 448 716 448 716 448 698 c 0,8,9
 448 637 448 637 400 609 c 0,10,11
 376 596 376 596 347 596 c 0,12,13
 286 596 286 596 258 648 c 0,14,15
 246 671 246 671 246 697 c 0,0,1
72 174 m 0,16,17
 72 207 72 207 96 239 c 0,18,19
 125 276 125 276 172 276 c 0,20,21
 239 276 239 276 264 222 c 0,22,23
 274 201 274 201 274 175 c 0,24,25
 274 110 274 110 221 85 c 0,26,27
 199 74 199 74 173 74 c 0,28,29
 111 74 111 74 84 126 c 0,30,31
 72 148 72 148 72 174 c 0,16,17
EndSplineSet
Validated: 1
EndChar

StartChar: H
Encoding: 72 72 12
Width: 1259
Flags: W
LayerCount: 2
Fore
SplineSet
-19 -16 m 4,0,1
 -35 -16 -35 -16 -35 -3 c 4,2,3
 -35 14 -35 14 -16 36 c 4,4,5
 43 101 43 101 93 217 c 4,6,7
 132 307 132 307 173 436 c 4,8,9
 395 1137 395 1137 451 1290 c 4,10,11
 485 1381 485 1381 533 1490 c 4,12,13
 738 1958 738 1958 1025 2272 c 4,14,15
 1214 2478 1214 2478 1276 2478 c 4,16,17
 1290 2478 1290 2478 1290 2465 c 4,18,19
 1290 2436 1290 2436 1222 2368 c 4,20,21
 1124 2271 1124 2271 1116 2263 c 6,22,-1
 1094 2238 l 6,23,24
 925 2045 925 2045 803 1806 c 4,25,26
 617 1444 617 1444 401 730 c 5,27,-1
 361 607 l 6,28,29
 360 602 360 602 360 597 c 5,30,-1
 360 597 l 5,31,32
 364 597 364 597 421 651 c 4,33,34
 675 888 675 888 868 888 c 4,35,36
 1002 888 1002 888 1089 791 c 4,37,38
 1173 698 1173 698 1173 557 c 4,39,40
 1173 389 1173 389 1044 227 c 4,41,42
 932 88 932 88 783 22 c 4,43,44
 696 -16 696 -16 617 -16 c 4,45,46
 485 -16 485 -16 467 67 c 4,47,48
 464 78 464 78 464 89 c 4,49,50
 464 141 464 141 508 183 c 4,51,52
 547 221 547 221 597 221 c 4,53,54
 645 221 645 221 677 188 c 4,55,56
 705 160 705 160 718 154 c 4,57,58
 738 144 738 144 766 144 c 4,59,60
 896 144 896 144 953 248 c 4,61,62
 963 267 963 267 973 292 c 4,63,64
 999 359 999 359 999 426 c 4,65,66
 999 572 999 572 895 662 c 4,67,68
 832 716 832 716 757 727 c 4,69,70
 746 728 746 728 726 728 c 4,71,72
 568 728 568 728 401 527 c 4,73,74
 306 412 306 412 236 267 c 4,75,76
 151 89 151 89 49 14 c 4,77,78
 8 -16 8 -16 -19 -16 c 4,0,1
EndSplineSet
Validated: 5
Substitution2: "NoCaps subtable" h
EndChar

StartChar: A
Encoding: 65 65 13
Width: 1253
Flags: W
LayerCount: 2
Fore
SplineSet
405 -16 m 0,0,1
 284 -16 284 -16 196 72 c 0,2,3
 101 168 101 168 101 312 c 0,4,5
 101 484 101 484 235 651 c 0,6,7
 346 787 346 787 489 852 c 0,8,9
 571 888 571 888 641 888 c 0,10,11
 777 888 777 888 805 823 c 0,12,13
 814 802 814 802 814 775 c 0,14,15
 814 720 814 720 768 678 c 0,16,17
 729 642 729 642 679 642 c 0,18,19
 634 642 634 642 601 678 c 0,20,21
 572 709 572 709 562 716 c 0,22,23
 540 729 540 729 511 729 c 0,24,25
 356 729 356 729 299 583 c 0,26,27
 275 520 275 520 275 446 c 0,28,29
 275 296 275 296 387 203 c 0,30,31
 413 182 413 182 438 170 c 0,32,33
 493 143 493 143 550 143 c 0,34,35
 645 143 645 143 745 219 c 0,36,37
 820 275 820 275 881 366 c 0,38,39
 919 423 919 423 987 553 c 0,40,41
 1045 665 1045 665 1109 733 c 0,42,43
 1123 748 1123 748 1139 763 c 0,44,45
 1199 818 1199 818 1239 821 c 0,46,47
 1253 821 1253 821 1253 806 c 0,48,49
 1253 784 1253 784 1227 755 c 0,50,51
 1174 695 1174 695 1144 635 c 0,52,53
 1123 595 1123 595 1104 544 c 0,54,55
 1042 375 1042 375 1042 194 c 1,56,-1
 1044 129 l 2,57,58
 1044 89 1044 89 971 30 c 0,59,60
 913 -16 913 -16 887 -16 c 0,61,62
 873 -16 873 -16 870 -4 c 128,-1,63
 867 8 867 8 867 68 c 0,64,65
 867 156 867 156 883 250 c 1,66,-1
 866 233 l 2,67,68
 745 114 745 114 610 44 c 0,69,70
 496 -16 496 -16 405 -16 c 0,0,1
EndSplineSet
Validated: 1
Substitution2: "NoCaps subtable" a
EndChar

StartChar: F
Encoding: 70 70 14
Width: 908
Flags: W
LayerCount: 2
Fore
SplineSet
-1114 -877 m 0,0,1
 -1103 -877 -1103 -877 -1101 -890 c 0,2,3
 -1101 -908 -1101 -908 -1131 -943 c 0,4,5
 -1175 -994 -1175 -994 -1185 -1042 c 0,6,7
 -1190 -1064 -1190 -1064 -1190 -1089 c 0,8,9
 -1190 -1195 -1190 -1195 -1115 -1283 c 0,10,11
 -1033 -1379 -1033 -1379 -897 -1396 c 0,12,13
 -884 -1398 -884 -1398 -849 -1398 c 0,14,15
 -550 -1398 -550 -1398 -375 -1186 c 0,16,17
 -362 -1170 -362 -1170 -346 -1149 c 0,18,19
 -231 -996 -231 -996 -128 -739 c 0,20,21
 -47 -536 -47 -536 90 -113 c 2,22,-1
 361 724 l 2,23,24
 480 1094 480 1094 505 1167 c 0,25,26
 722 1787 722 1787 1007 2180 c 0,27,28
 1093 2298 1093 2298 1187 2400 c 0,29,30
 1370 2597 1370 2597 1434 2605 c 0,31,32
 1450 2605 1450 2605 1450 2592 c 0,33,34
 1450 2558 1450 2558 1380 2493 c 0,35,36
 970 2117 970 2117 672 1267 c 0,37,38
 644 1186 644 1186 536 847 c 2,39,-1
 261 -1 l 1,40,41
 63 -644 63 -644 -102 -936 c 0,42,43
 -185 -1083 -185 -1083 -295 -1208 c 0,44,45
 -519 -1462 -519 -1462 -797 -1534 c 0,46,47
 -893 -1558 -893 -1558 -990 -1558 c 0,48,49
 -1163 -1558 -1163 -1558 -1270 -1450 c 0,50,51
 -1364 -1355 -1364 -1355 -1364 -1221 c 128,-1,52
 -1364 -1087 -1364 -1087 -1251 -967 c 0,53,54
 -1186 -898 -1186 -898 -1131 -880 c 0,55,56
 -1121 -877 -1121 -877 -1114 -877 c 0,0,1
1156 807 m 0,57,58
 1349 807 1349 807 1451 886 c 2,59,-1
 1505 929 l 2,60,61
 1523 941 1523 941 1540 941 c 0,62,63
 1553 941 1553 941 1553 931 c 0,64,65
 1553 906 1553 906 1504 862 c 0,66,67
 1340 714 1340 714 1133 689 c 0,68,69
 1089 684 1089 684 1041 684 c 0,70,71
 906 684 906 684 676 728 c 0,72,73
 454 770 454 770 349 776 c 0,74,75
 316 778 316 778 285 778 c 0,76,77
 90 778 90 778 -11 700 c 2,78,-1
 -66 656 l 2,79,80
 -84 644 -84 644 -102 644 c 0,81,82
 -113 644 -113 644 -113 654 c 0,83,84
 -113 683 -113 683 -51 738 c 0,85,86
 64 840 64 840 229 881 c 0,87,88
 312 901 312 901 397 901 c 0,89,90
 525 901 525 901 754 858 c 0,91,92
 983 814 983 814 1093 809 c 0,93,94
 1125 807 1125 807 1156 807 c 0,57,58
EndSplineSet
Validated: 5
Substitution2: "NoCaps subtable" f
EndChar

StartChar: semicolon
Encoding: 59 59 15
Width: 696
Flags: W
LayerCount: 2
Fore
SplineSet
213 732 m 0,0,1
 213 765 213 765 239 798 c 0,2,3
 267 833 267 833 313 833 c 0,4,5
 379 833 379 833 405 779 c 0,6,7
 415 757 415 757 415 732 c 0,8,9
 415 671 415 671 366 644 c 0,10,11
 343 632 343 632 314 632 c 0,12,13
 253 632 253 632 225 683 c 0,14,15
 213 705 213 705 213 732 c 0,0,1
88 197 m 2,16,17
 88 237 88 237 162 296 c 0,18,19
 220 342 220 342 246 342 c 0,20,21
 260 342 260 342 262 329 c 0,22,23
 264 320 264 320 264 288 c 0,24,25
 264 87 264 87 124 -95 c 0,26,27
 46 -196 46 -196 -31 -239 c 0,28,29
 -57 -253 -57 -253 -72 -253 c 0,30,31
 -86 -253 -86 -253 -86 -240 c 0,32,33
 -86 -216 -86 -216 -47 -173 c 0,34,35
 13 -109 13 -109 36 -69 c 0,36,37
 90 24 90 24 90 153 c 1,38,-1
 88 197 l 2,16,17
EndSplineSet
Validated: 1
EndChar

StartChar: B
Encoding: 66 66 16
Width: 1253
Flags: W
LayerCount: 2
Fore
SplineSet
602 16 m 2,0,-1
 449 18 l 2,1,2
 215 18 215 18 57 -8 c 0,3,4
 9 -16 9 -16 -20 -16 c 0,5,6
 -35 -16 -35 -16 -35 -3 c 0,7,8
 -35 19 -35 19 -16 40 c 0,9,10
 34 97 34 97 74 180 c 0,11,12
 100 235 100 235 128 309 c 0,13,14
 169 418 169 418 229 618 c 2,15,-1
 365 1050 l 1,16,17
 506 1471 506 1471 669 1766 c 0,18,19
 829 2058 829 2058 1025 2272 c 0,20,21
 1214 2478 1214 2478 1276 2478 c 0,22,23
 1290 2478 1290 2478 1290 2465 c 0,24,25
 1290 2436 1290 2436 1222 2368 c 0,26,27
 1124 2271 1124 2271 1116 2263 c 2,28,-1
 1094 2238 l 2,29,30
 925 2045 925 2045 803 1807 c 0,31,32
 617 1445 617 1445 402 734 c 2,33,-1
 359 593 l 1,34,35
 359 605 359 605 501 716 c 0,36,37
 562 765 562 765 593 785 c 0,38,39
 752 889 752 889 875 889 c 0,40,41
 997 889 997 889 1082 807 c 0,42,43
 1166 725 1166 725 1166 601 c 0,44,45
 1166 457 1166 457 1041 299 c 0,46,47
 927 153 927 153 772 76 c 0,48,49
 722 52 722 52 673 38 c 0,50,51
 664 36 664 36 636 22 c 0,52,53
 623 16 623 16 602 16 c 2,0,-1
992 470 m 0,54,55
 992 587 992 587 909 662 c 0,56,57
 835 728 835 728 725 728 c 0,58,59
 716 728 716 728 713 728 c 0,60,61
 630 728 630 728 522 644 c 0,62,63
 363 521 363 521 238 272 c 0,64,65
 195 184 195 184 162 136 c 1,66,-1
 163 136 l 1,67,-1
 331 153 l 2,68,69
 439 160 439 160 577 161 c 0,70,71
 712 162 712 162 771 176 c 0,72,73
 839 194 839 194 886 235 c 0,74,75
 961 301 961 301 985 406 c 0,76,77
 992 438 992 438 992 470 c 0,54,55
EndSplineSet
Validated: 5
Substitution2: "NoCaps subtable" b
EndChar

StartChar: C
Encoding: 67 67 17
Width: 874
Flags: W
LayerCount: 2
Fore
SplineSet
1059 307 m 0,0,1
 1073 307 1073 307 1073 293 c 0,2,3
 1073 251 1073 251 979 174 c 0,4,5
 868 83 868 83 729 29 c 0,6,7
 623 -13 623 -13 524 -16 c 0,8,9
 503 -17 503 -17 467 -17 c 0,10,11
 354 -17 354 -17 313 -11 c 0,12,13
 156 11 156 11 79 124 c 0,14,15
 25 202 25 202 23 304 c 2,16,-1
 23 318 l 2,17,18
 23 414 23 414 89 532 c 0,19,20
 175 684 175 684 337 789 c 0,21,22
 471 876 471 876 599 887 c 0,23,24
 615 888 615 888 630 888 c 0,25,26
 712 888 712 888 750 868 c 0,27,28
 782 852 782 852 797 821 c 0,29,30
 806 802 806 802 806 777 c 0,31,32
 806 691 806 691 723 655 c 0,33,34
 694 642 694 642 672 642 c 0,35,36
 627 642 627 642 595 677 c 0,37,38
 567 708 567 708 557 715 c 0,39,40
 535 729 535 729 503 729 c 0,41,42
 408 729 408 729 331 692 c 0,43,44
 299 676 299 676 278 655 c 0,45,46
 212 589 212 589 200 476 c 0,47,48
 197 455 197 455 197 435 c 0,49,50
 197 263 197 263 355 184 c 0,51,52
 424 149 424 149 491 144 c 0,53,54
 526 143 526 143 619 143 c 0,55,56
 807 143 807 143 937 234 c 1,57,-1
 1014 292 l 2,58,59
 1039 307 1039 307 1059 307 c 0,0,1
EndSplineSet
Validated: 1
Substitution2: "NoCaps subtable" c
EndChar

StartChar: K
Encoding: 75 75 18
Width: 1259
Flags: W
LayerCount: 2
Fore
SplineSet
-19 -16 m 0,0,1
 -35 -16 -35 -16 -35 -3 c 0,2,3
 -35 14 -35 14 -16 36 c 0,4,5
 43 101 43 101 93 217 c 0,6,7
 132 307 132 307 173 436 c 0,8,9
 395 1137 395 1137 451 1290 c 0,10,11
 485 1381 485 1381 533 1490 c 0,12,13
 738 1958 738 1958 1025 2272 c 0,14,15
 1214 2478 1214 2478 1276 2478 c 0,16,17
 1290 2478 1290 2478 1290 2465 c 0,18,19
 1290 2436 1290 2436 1222 2368 c 0,20,21
 1124 2271 1124 2271 1116 2263 c 2,22,-1
 1094 2238 l 2,23,24
 925 2045 925 2045 803 1806 c 0,25,26
 617 1444 617 1444 401 730 c 1,27,-1
 361 607 l 2,28,29
 360 602 360 602 360 597 c 1,30,-1
 360 597 l 1,31,32
 364 597 364 597 421 651 c 0,33,34
 675 888 675 888 868 888 c 0,35,36
 1002 888 1002 888 1089 791 c 0,37,38
 1173 698 1173 698 1173 557 c 0,39,40
 1173 389 1173 389 1044 227 c 0,41,42
 932 88 932 88 783 22 c 0,43,44
 696 -16 696 -16 617 -16 c 0,45,46
 485 -16 485 -16 467 67 c 0,47,48
 464 78 464 78 464 89 c 0,49,50
 464 141 464 141 508 183 c 0,51,52
 547 221 547 221 597 221 c 0,53,54
 645 221 645 221 677 188 c 0,55,56
 705 160 705 160 718 154 c 0,57,58
 738 144 738 144 766 144 c 0,59,60
 896 144 896 144 953 248 c 0,61,62
 963 267 963 267 973 292 c 0,63,64
 999 359 999 359 999 426 c 0,65,66
 999 572 999 572 895 662 c 0,67,68
 832 716 832 716 757 727 c 0,69,70
 746 728 746 728 726 728 c 0,71,72
 568 728 568 728 401 527 c 0,73,74
 306 412 306 412 236 267 c 0,75,76
 151 89 151 89 49 14 c 0,77,78
 8 -16 8 -16 -19 -16 c 0,0,1
342 527 m 0,79,80
 312 526 312 526 307 554 c 1,81,82
 307 601 307 601 951 1138 c 2,83,-1
 1106 1267 l 2,84,85
 1155 1307 1155 1307 1193 1307 c 0,86,87
 1240 1307 1240 1307 1255 1272 c 0,88,89
 1259 1262 1259 1262 1259 1251 c 0,90,91
 1259 1222 1259 1222 1219 1186 c 0,92,93
 1206 1174 1206 1174 1059 1055 c 0,94,95
 582 673 582 673 404 558 c 0,96,97
 355 527 355 527 342 527 c 0,79,80
EndSplineSet
Validated: 5
Substitution2: "NoCaps subtable" k
EndChar

StartChar: M
Encoding: 77 77 19
Width: 2020
Flags: W
LayerCount: 2
Fore
SplineSet
-64 675 m 0,0,1
 -64 705 -64 705 -9 761 c 0,2,3
 94 862 94 862 245 895 c 0,4,5
 284 903 284 903 324 906 c 2,6,-1
 353 906 l 2,7,8
 440 906 440 906 478 825 c 0,9,10
 499 781 499 781 499 723 c 0,11,12
 499 674 499 674 488 634 c 0,13,14
 487 630 487 630 486 628 c 1,15,16
 488 628 488 628 540 678 c 0,17,18
 731 863 731 863 886 886 c 0,19,20
 900 888 900 888 925 888 c 0,21,22
 1056 888 1056 888 1135 771 c 0,23,24
 1186 696 1186 696 1197 599 c 1,25,26
 1319 740 1319 740 1452 820 c 0,27,28
 1566 889 1566 889 1659 889 c 0,29,30
 1764 889 1764 889 1842 804 c 0,31,32
 1904 738 1904 738 1925 637 c 0,33,34
 1932 604 1932 604 1932 564 c 0,35,36
 1932 387 1932 387 1800 220 c 0,37,38
 1692 82 1692 82 1551 19 c 0,39,40
 1473 -16 1473 -16 1405 -16 c 0,41,42
 1279 -16 1279 -16 1257 62 c 0,43,44
 1253 75 1253 75 1253 90 c 0,45,46
 1253 142 1253 142 1296 183 c 0,47,48
 1335 221 1335 221 1389 221 c 0,49,50
 1436 221 1436 221 1469 187 c 0,51,52
 1497 158 1497 158 1509 152 c 0,53,54
 1527 143 1527 143 1551 143 c 0,55,56
 1623 143 1623 143 1662 178 c 0,57,58
 1675 189 1675 189 1686 204 c 0,59,60
 1757 306 1757 306 1757 430 c 0,61,62
 1757 579 1757 579 1655 670 c 0,63,64
 1628 695 1628 695 1601 708 c 0,65,66
 1559 729 1559 729 1514 729 c 0,67,68
 1360 729 1360 729 1217 481 c 0,69,70
 1201 453 1201 453 1145 343 c 0,71,72
 1121 296 1121 296 1090 252 c 0,73,74
 1007 136 1007 136 895 61 c 0,75,76
 804 -1 804 -1 715 -14 c 0,77,78
 702 -16 702 -16 674 -16 c 0,79,80
 537 -16 537 -16 522 71 c 0,81,82
 520 80 520 80 520 90 c 0,83,84
 520 141 520 141 564 184 c 0,85,86
 602 221 602 221 653 221 c 0,87,88
 699 221 699 221 737 185 c 0,89,90
 768 155 768 155 783 149 c 0,91,92
 796 144 796 144 811 144 c 0,93,94
 815 144 815 144 820 144 c 0,95,96
 909 144 909 144 953 205 c 0,97,98
 965 220 965 220 981 251 c 0,99,100
 1024 338 1024 338 1024 430 c 0,101,102
 1024 552 1024 552 953 640 c 0,103,104
 924 676 924 676 886 698 c 0,105,106
 835 729 835 729 779 729 c 0,107,108
 636 729 636 729 477 486 c 0,109,110
 439 428 439 428 335 241 c 0,111,112
 291 161 291 161 267 129 c 0,113,114
 175 6 175 6 107 -14 c 0,115,116
 98 -16 98 -16 90 -16 c 0,117,118
 74 -16 74 -16 74 -3 c 0,119,120
 74 17 74 17 125 78 c 0,121,122
 142 98 142 98 147 106 c 0,123,124
 233 234 233 234 293 435 c 0,125,126
 325 540 325 540 325 590 c 0,127,128
 325 689 325 689 264 729 c 0,129,130
 238 747 238 747 204 747 c 0,131,132
 95 747 95 747 20 695 c 0,133,134
 -21 667 -21 667 -33 664 c 0,135,136
 -40 662 -40 662 -48 662 c 0,137,138
 -64 662 -64 662 -64 675 c 0,0,1
EndSplineSet
Validated: 1
Substitution2: "NoCaps subtable" m
EndChar

StartChar: N
Encoding: 78 78 20
Width: 1261
Flags: W
LayerCount: 2
Fore
SplineSet
-174 675 m 0,0,1
 -174 705 -174 705 -119 761 c 0,2,3
 -16 862 -16 862 135 895 c 0,4,5
 174 903 174 903 214 906 c 2,6,-1
 243 906 l 2,7,8
 330 906 330 906 368 825 c 0,9,10
 389 781 389 781 389 723 c 0,11,12
 389 682 389 682 369 598 c 1,13,-1
 393 621 l 2,14,15
 503 731 503 731 634 808 c 0,16,17
 771 889 771 889 872 889 c 0,18,19
 1018 889 1018 889 1110 768 c 0,20,21
 1127 745 1127 745 1139 722 c 0,22,23
 1178 648 1178 648 1178 567 c 0,24,25
 1178 376 1178 376 1032 207 c 0,26,27
 962 126 962 126 870 66 c 0,28,29
 745 -16 745 -16 622 -16 c 0,30,31
 495 -16 495 -16 473 62 c 0,32,33
 470 75 470 75 470 89 c 0,34,35
 470 144 470 144 515 186 c 0,36,37
 554 221 554 221 605 221 c 0,38,39
 651 221 651 221 685 187 c 0,40,41
 714 158 714 158 727 151 c 0,42,43
 744 144 744 144 765 144 c 0,44,45
 923 144 923 144 980 290 c 0,46,47
 1004 352 1004 352 1004 426 c 0,48,49
 1004 575 1004 575 893 667 c 0,50,51
 867 689 867 689 841 702 c 0,52,53
 786 729 786 729 729 729 c 0,54,55
 637 729 637 729 534 653 c 0,56,57
 515 638 515 638 492 619 c 0,58,59
 389 534 389 534 290 358 c 2,60,-1
 194 186 l 2,61,62
 175 153 175 153 157 129 c 0,63,64
 65 6 65 6 -3 -14 c 0,65,66
 -12 -16 -12 -16 -20 -16 c 0,67,68
 -36 -16 -36 -16 -36 -3 c 0,69,70
 -36 17 -36 17 15 78 c 0,71,72
 32 98 32 98 37 106 c 0,73,74
 123 234 123 234 183 435 c 0,75,76
 215 540 215 540 215 590 c 0,77,78
 215 689 215 689 154 729 c 0,79,80
 128 747 128 747 94 747 c 0,81,82
 -15 747 -15 747 -90 695 c 0,83,84
 -131 667 -131 667 -143 664 c 0,85,86
 -150 662 -150 662 -158 662 c 0,87,88
 -174 662 -174 662 -174 675 c 0,0,1
EndSplineSet
Validated: 1
Substitution2: "NoCaps subtable" n
EndChar

StartChar: L
Encoding: 76 76 21
Width: 479
Flags: W
LayerCount: 2
Fore
SplineSet
-19 -16 m 4,0,1
 -35 -16 -35 -16 -35 -3 c 4,2,3
 -35 14 -35 14 -16 36 c 4,4,5
 43 101 43 101 93 217 c 4,6,7
 132 307 132 307 173 436 c 4,8,9
 395 1137 395 1137 451 1290 c 4,10,11
 485 1381 485 1381 533 1490 c 4,12,13
 738 1958 738 1958 1025 2272 c 4,14,15
 1214 2478 1214 2478 1276 2478 c 4,16,17
 1290 2478 1290 2478 1290 2465 c 4,18,19
 1290 2436 1290 2436 1222 2368 c 4,20,21
 1123 2270 1123 2270 1116 2263 c 6,22,-1
 1094 2238 l 6,23,24
 912 2030 912 2030 779 1761 c 4,25,26
 605 1409 605 1409 400 729 c 4,27,28
 271 302 271 302 167 145 c 4,29,30
 124 79 124 79 67 30 c 4,31,32
 12 -16 12 -16 -19 -16 c 4,0,1
EndSplineSet
Validated: 1
Substitution2: "NoCaps subtable" l
EndChar

StartChar: period
Encoding: 46 46 22
Width: 540
Flags: W
LayerCount: 2
Fore
SplineSet
72 174 m 0,0,1
 72 207 72 207 96 239 c 0,2,3
 125 276 125 276 172 276 c 0,4,5
 239 276 239 276 264 222 c 0,6,7
 274 201 274 201 274 175 c 0,8,9
 274 110 274 110 221 85 c 0,10,11
 199 74 199 74 173 74 c 0,12,13
 111 74 111 74 84 126 c 0,14,15
 72 148 72 148 72 174 c 0,0,1
EndSplineSet
Validated: 1
EndChar

StartChar: slash
Encoding: 47 47 23
Width: 696
Flags: W
LayerCount: 2
Fore
SplineSet
-326 -109 m 0,0,1
 -340 -105 -340 -105 -336 -90 c 0,2,3
 -330 -67 -330 -67 -263 -26 c 0,4,5
 -172 30 -172 30 -138 61 c 0,6,7
 -34 154 -34 154 42 287 c 0,8,9
 127 436 127 436 248 742 c 0,10,11
 370 1050 370 1050 447 1189 c 0,12,13
 586 1437 586 1437 794 1578 c 0,14,15
 823 1598 823 1598 856 1616 c 0,16,17
 980 1689 980 1689 1022 1678 c 0,18,19
 1038 1674 1038 1674 1035 1660 c 0,20,21
 1029 1638 1029 1638 977 1607 c 0,22,23
 891 1554 891 1554 852 1521 c 0,24,25
 801 1479 801 1479 757 1424 c 0,26,27
 632 1272 632 1272 518 994 c 2,28,-1
 375 633 l 1,29,30
 292 435 292 435 203 299 c 0,31,32
 83 115 83 115 -103 -15 c 0,33,34
 -229 -102 -229 -102 -302 -110 c 0,35,36
 -316 -112 -316 -112 -326 -109 c 0,0,1
EndSplineSet
Validated: 33
EndChar

StartChar: exclam
Encoding: 33 33 24
Width: 1100
Flags: W
LayerCount: 2
Fore
SplineSet
153 -636 m 0,0,1
 153 -575 153 -575 203 -521 c 0,2,3
 244 -478 244 -478 299 -460 c 0,4,5
 326 -451 326 -451 349 -450 c 0,6,7
 399 -450 399 -450 428 -487 c 0,8,9
 452 -518 452 -518 452 -564 c 0,10,11
 452 -626 452 -626 401 -680 c 0,12,13
 373 -709 373 -709 338 -728 c 0,14,15
 295 -751 295 -751 251 -750 c 0,16,17
 205 -750 205 -750 177 -714 c 0,18,19
 153 -682 153 -682 153 -636 c 0,0,1
187 -312 m 0,20,21
 173 -312 173 -312 173 -297 c 0,22,23
 173 -273 173 -273 227 -216 c 0,24,25
 300 -138 300 -138 325 -100 c 0,26,27
 401 17 401 17 440 165 c 0,28,29
 484 331 484 331 521 658 c 0,30,31
 559 987 559 987 598 1141 c 0,32,33
 668 1417 668 1417 833 1607 c 0,34,35
 856 1634 856 1634 882 1660 c 0,36,37
 983 1763 983 1763 1027 1763 c 0,38,39
 1044 1763 1044 1763 1044 1749 c 0,40,41
 1044 1726 1044 1726 1002 1682 c 0,42,43
 933 1609 933 1609 903 1567 c 0,44,45
 865 1513 865 1513 836 1449 c 0,46,47
 755 1270 755 1270 717 971 c 2,48,-1
 672 586 l 1,49,50
 643 373 643 373 593 219 c 0,51,52
 525 10 525 10 378 -164 c 0,53,54
 279 -281 279 -281 211 -307 c 0,55,56
 197 -312 197 -312 187 -312 c 0,20,21
EndSplineSet
Validated: 33
EndChar

StartChar: quotedbl
Encoding: 34 34 25
Width: 870
Flags: W
LayerCount: 2
Fore
SplineSet
17 1053 m 0,0,1
 1 1053 1 1053 0 1068 c 0,2,3
 0 1091 0 1091 41 1135 c 0,4,5
 74 1170 74 1170 83 1186 c 0,6,7
 129 1264 129 1264 159 1427 c 0,8,9
 175 1514 175 1514 185 1531 c 0,10,11
 218 1587 218 1587 282 1627 c 0,12,13
 314 1648 314 1648 332 1648 c 0,14,15
 348 1648 348 1648 348 1634 c 0,16,17
 348 1558 348 1558 307 1428 c 0,18,19
 262 1284 262 1284 193 1194 c 0,20,21
 123 1103 123 1103 54 1066 c 0,22,23
 32 1054 32 1054 17 1053 c 0,0,1
279 1053 m 0,24,25
 262 1053 262 1053 261 1068 c 0,26,27
 261 1090 261 1090 317 1152 c 0,28,29
 339 1177 339 1177 345 1186 c 0,30,31
 392 1267 392 1267 422 1432 c 0,32,33
 437 1516 437 1516 446 1531 c 0,34,35
 479 1587 479 1587 543 1627 c 0,36,37
 575 1648 575 1648 593 1648 c 0,38,39
 609 1648 609 1648 609 1634 c 0,40,41
 609 1563 609 1563 559 1405 c 0,42,43
 536 1330 536 1330 517 1293 c 0,44,45
 454 1172 454 1172 359 1096 c 0,46,47
 309 1055 309 1055 279 1053 c 0,24,25
EndSplineSet
Validated: 1
EndChar

StartChar: numbersign
Encoding: 35 35 26
Width: 1799
Flags: W
LayerCount: 2
Fore
SplineSet
199 -424 m 0,0,1
 185 -424 185 -424 185 -408 c 0,2,3
 185 -384 185 -384 239 -328 c 0,4,5
 312 -250 312 -250 337 -212 c 0,6,7
 413 -94 413 -94 452 54 c 0,8,9
 496 220 496 220 533 546 c 0,10,11
 571 876 571 876 610 1030 c 0,12,13
 680 1306 680 1306 845 1496 c 0,14,15
 868 1522 868 1522 894 1548 c 0,16,17
 995 1652 995 1652 1039 1652 c 0,18,19
 1056 1652 1056 1652 1056 1638 c 0,20,21
 1056 1614 1056 1614 1014 1570 c 0,22,23
 945 1498 945 1498 915 1456 c 0,24,25
 877 1402 877 1402 848 1338 c 0,26,27
 767 1160 767 1160 729 860 c 2,28,-1
 684 474 l 1,29,30
 655 262 655 262 605 108 c 0,31,32
 537 -102 537 -102 390 -276 c 0,33,34
 291 -392 291 -392 223 -418 c 0,35,36
 209 -424 209 -424 199 -424 c 0,0,1
575 -410 m 0,37,38
 561 -410 561 -410 561 -395 c 0,39,40
 561 -371 561 -371 615 -314 c 0,41,42
 688 -236 688 -236 713 -198 c 0,43,44
 789 -81 789 -81 828 67 c 0,45,46
 872 233 872 233 909 560 c 0,47,48
 947 889 947 889 986 1043 c 0,49,50
 1056 1319 1056 1319 1221 1509 c 0,51,52
 1244 1536 1244 1536 1270 1562 c 0,53,54
 1371 1665 1371 1665 1415 1665 c 0,55,56
 1432 1665 1432 1665 1432 1651 c 0,57,58
 1432 1628 1432 1628 1390 1584 c 0,59,60
 1321 1511 1321 1511 1291 1469 c 0,61,62
 1253 1415 1253 1415 1224 1351 c 0,63,64
 1143 1172 1143 1172 1105 873 c 2,65,-1
 1060 488 l 1,66,67
 1031 275 1031 275 981 121 c 0,68,69
 913 -88 913 -88 766 -262 c 0,70,71
 667 -379 667 -379 599 -405 c 0,72,73
 585 -410 585 -410 575 -410 c 0,37,38
1275 1028 m 0,74,75
 1468 1028 1468 1028 1570 1107 c 2,76,-1
 1624 1150 l 2,77,78
 1642 1162 1642 1162 1659 1162 c 0,79,80
 1672 1162 1672 1162 1672 1152 c 0,81,82
 1672 1127 1672 1127 1623 1083 c 0,83,84
 1459 935 1459 935 1252 910 c 0,85,86
 1208 905 1208 905 1160 905 c 0,87,88
 1025 905 1025 905 795 949 c 0,89,90
 573 991 573 991 468 997 c 0,91,92
 435 999 435 999 404 999 c 0,93,94
 209 999 209 999 108 921 c 2,95,-1
 53 877 l 2,96,97
 35 865 35 865 17 865 c 0,98,99
 6 865 6 865 6 875 c 0,100,101
 6 904 6 904 68 959 c 0,102,103
 183 1061 183 1061 348 1102 c 0,104,105
 431 1122 431 1122 516 1122 c 0,106,107
 644 1122 644 1122 873 1079 c 0,108,109
 1102 1035 1102 1035 1212 1030 c 0,110,111
 1244 1028 1244 1028 1275 1028 c 0,74,75
1278 501 m 0,112,113
 1471 501 1471 501 1573 580 c 2,114,-1
 1627 623 l 2,115,116
 1645 635 1645 635 1662 635 c 0,117,118
 1675 635 1675 635 1675 625 c 0,119,120
 1675 600 1675 600 1626 556 c 0,121,122
 1462 408 1462 408 1255 383 c 0,123,124
 1211 378 1211 378 1163 378 c 0,125,126
 1028 378 1028 378 798 422 c 0,127,128
 576 464 576 464 471 470 c 0,129,130
 438 472 438 472 407 472 c 0,131,132
 212 472 212 472 111 394 c 2,133,-1
 56 350 l 2,134,135
 38 338 38 338 20 338 c 0,136,137
 9 338 9 338 9 348 c 0,138,139
 9 377 9 377 71 432 c 0,140,141
 186 534 186 534 351 575 c 0,142,143
 434 595 434 595 519 595 c 0,144,145
 647 595 647 595 876 552 c 0,146,147
 1105 508 1105 508 1215 503 c 0,148,149
 1247 501 1247 501 1278 501 c 0,112,113
EndSplineSet
Validated: 5
EndChar

StartChar: percent
Encoding: 37 37 27
Width: 1568
Flags: W
LayerCount: 2
Fore
SplineSet
-16 -269 m 4,0,1
 -30 -265 -30 -265 -26 -250 c 4,2,3
 -20 -227 -20 -227 47 -186 c 4,4,5
 138 -130 138 -130 172 -99 c 4,6,7
 276 -6 276 -6 352 127 c 4,8,9
 437 276 437 276 558 582 c 4,10,11
 680 890 680 890 757 1029 c 4,12,13
 896 1277 896 1277 1104 1418 c 4,14,15
 1133 1438 1133 1438 1166 1456 c 4,16,17
 1290 1529 1290 1529 1332 1518 c 4,18,19
 1348 1514 1348 1514 1345 1500 c 4,20,21
 1339 1478 1339 1478 1287 1447 c 4,22,23
 1201 1394 1201 1394 1162 1361 c 4,24,25
 1111 1319 1111 1319 1067 1264 c 4,26,27
 942 1112 942 1112 828 834 c 6,28,-1
 685 473 l 5,29,30
 602 275 602 275 513 139 c 4,31,32
 393 -45 393 -45 207 -175 c 4,33,34
 81 -262 81 -262 8 -270 c 4,35,36
 -6 -272 -6 -272 -16 -269 c 4,0,1
814 220 m 4,37,38
 814 340 814 340 913 444 c 4,39,40
 993 527 993 527 1099 564 c 4,41,42
 1152 582 1152 582 1198 582 c 4,43,44
 1296 582 1296 582 1351 511 c 4,45,46
 1398 451 1398 451 1398 361 c 4,47,48
 1398 240 1398 240 1298 135 c 4,49,50
 1244 79 1244 79 1175 42 c 4,51,52
 1092 -2 1092 -2 1006 -2 c 4,53,54
 916 -2 916 -2 862 68 c 4,55,56
 814 130 814 130 814 220 c 4,37,38
927 305 m 4,57,58
 927 215 927 215 981 155 c 4,59,60
 1030 101 1030 101 1099 101 c 4,61,62
 1153 101 1153 101 1202 121 c 4,63,64
 1228 131 1228 131 1242 145 c 4,65,66
 1281 182 1281 182 1285 263 c 4,67,68
 1286 270 1286 270 1286 276 c 4,69,70
 1286 370 1286 370 1230 428 c 4,71,72
 1182 478 1182 478 1108 479 c 4,73,74
 1061 479 1061 479 1012 460 c 4,75,76
 977 446 977 446 963 426 c 4,77,78
 927 377 927 377 927 305 c 4,57,58
18 904 m 4,79,80
 18 1024 18 1024 117 1128 c 4,81,82
 197 1211 197 1211 302 1248 c 4,83,84
 355 1266 355 1266 401 1266 c 4,85,86
 499 1266 499 1266 555 1195 c 4,87,88
 602 1135 602 1135 602 1045 c 4,89,90
 602 924 602 924 502 819 c 4,91,92
 448 763 448 763 378 726 c 4,93,94
 295 682 295 682 210 682 c 4,95,96
 120 682 120 682 66 752 c 4,97,98
 18 814 18 814 18 904 c 4,79,80
130 989 m 4,99,100
 130 899 130 899 185 839 c 4,101,102
 234 785 234 785 303 785 c 4,103,104
 357 785 357 785 406 805 c 4,105,106
 432 815 432 815 446 829 c 4,107,108
 485 866 485 866 489 947 c 4,109,110
 490 954 490 954 490 960 c 4,111,112
 490 1054 490 1054 433 1112 c 4,113,114
 385 1162 385 1162 312 1163 c 4,115,116
 265 1163 265 1163 216 1144 c 4,117,118
 181 1130 181 1130 167 1110 c 4,119,120
 130 1061 130 1061 130 989 c 4,99,100
EndSplineSet
Validated: 33
EndChar

StartChar: quotesingle
Encoding: 39 39 28
Width: 696
Flags: W
LayerCount: 2
Fore
SplineSet
350 1459 m 2,0,-1
 348 1503 l 2,1,2
 348 1530 348 1530 402 1584 c 0,3,4
 466 1648 466 1648 507 1648 c 0,5,6
 520 1648 520 1648 522 1636 c 0,7,8
 524 1627 524 1627 524 1593 c 0,9,10
 524 1393 524 1393 384 1211 c 0,11,12
 306 1110 306 1110 230 1067 c 0,13,14
 204 1053 204 1053 189 1053 c 128,-1,15
 174 1053 174 1053 174 1066 c 0,16,17
 174 1091 174 1091 241 1164 c 0,18,19
 269 1195 269 1195 276 1205 c 0,20,21
 345 1309 345 1309 350 1444 c 0,22,23
 350 1451 350 1451 350 1459 c 2,0,-1
EndSplineSet
Validated: 1
EndChar

StartChar: parenleft
Encoding: 40 40 29
Width: 696
Flags: W
LayerCount: 2
Fore
SplineSet
140 -544 m 0,0,1
 140 -571 140 -571 87 -624 c 0,2,3
 26 -686 26 -686 -16 -688 c 0,4,5
 -31 -689 -31 -689 -35 -673 c 0,6,7
 -39 -662 -39 -662 -52 -570 c 0,8,9
 -76 -407 -76 -407 -76 -242 c 0,10,11
 -76 359 -76 359 227 889 c 0,12,13
 418 1224 418 1224 715 1496 c 0,14,15
 785 1560 785 1560 819 1560 c 0,16,17
 837 1560 837 1560 837 1547 c 0,18,19
 837 1520 837 1520 782 1465 c 2,20,-1
 671 1355 l 1,21,-1
 613 1292 l 1,22,23
 315 951 315 951 184 494 c 0,24,25
 98 196 98 196 98 -111 c 0,26,27
 98 -309 98 -309 129 -460 c 0,28,29
 140 -515 140 -515 140 -544 c 0,0,1
EndSplineSet
Validated: 1
EndChar

StartChar: parenright
Encoding: 41 41 30
Width: 696
Flags: W
LayerCount: 2
Fore
SplineSet
314 1416 m 0,0,1
 314 1441 314 1441 365 1495 c 0,2,3
 427 1560 427 1560 470 1560 c 0,4,5
 484 1560 484 1560 488 1547 c 0,6,7
 488 1545 488 1545 490 1534 c 0,8,9
 530 1316 530 1316 530 1115 c 0,10,11
 530 527 530 527 239 5 c 0,12,13
 45 -344 45 -344 -262 -624 c 0,14,15
 -331 -688 -331 -688 -367 -688 c 0,16,17
 -383 -688 -383 -688 -383 -675 c 0,18,19
 -383 -640 -383 -640 -307 -571 c 0,20,21
 37 -254 37 -254 212 206 c 0,22,23
 355 582 355 582 355 983 c 0,24,25
 355 1200 355 1200 316 1398 c 0,26,27
 314 1411 314 1411 314 1416 c 0,0,1
EndSplineSet
Validated: 1
EndChar

StartChar: asterisk
Encoding: 42 42 31
Width: 1109
Flags: W
LayerCount: 2
Fore
SplineSet
515 1591 m 4,0,1
 494 1591 494 1591 488 1615 c 4,2,3
 487 1620 487 1620 487 1626 c 4,4,5
 487 1656 487 1656 519 1857 c 4,6,7
 531 1934 531 1934 539 1965 c 4,8,9
 563 2062 563 2062 625 2062 c 4,10,11
 665 2062 665 2062 684 2022 c 4,12,13
 692 2004 692 2004 692 1981 c 4,14,15
 692 1929 692 1929 593 1713 c 6,16,-1
 563 1648 l 6,17,18
 546 1612 546 1612 543 1607 c 4,19,20
 531 1591 531 1591 515 1591 c 4,0,1
282 1864 m 4,21,22
 282 1906 282 1906 313 1922 c 4,23,24
 326 1928 326 1928 343 1928 c 4,25,26
 418 1926 418 1926 446 1772 c 4,27,28
 455 1720 455 1720 455 1678 c 4,29,30
 455 1478 455 1478 406 1478 c 4,31,32
 383 1478 383 1478 375 1512 c 6,33,-1
 353 1645 l 5,34,35
 335 1729 335 1729 298 1807 c 4,36,37
 282 1841 282 1841 282 1864 c 4,21,22
533 1502 m 5,38,39
 533 1530 533 1530 597 1632 c 4,40,41
 691 1780 691 1780 765 1823 c 4,42,43
 788 1836 788 1836 806 1836 c 4,44,45
 845 1836 845 1836 859 1799 c 4,46,47
 863 1788 863 1788 863 1776 c 4,48,49
 863 1748 863 1748 833 1715 c 4,50,51
 808 1687 808 1687 738 1626 c 4,52,53
 690 1584 690 1584 611 1503 c 4,54,55
 581 1472 581 1472 560 1471 c 5,56,57
 537 1479 537 1479 533 1502 c 5,38,39
164 1185 m 4,58,59
 119 1185 119 1185 108 1230 c 4,60,61
 106 1238 106 1238 106 1244 c 4,62,63
 106 1282 106 1282 179 1348 c 6,64,-1
 302 1457 l 6,65,66
 333 1487 333 1487 358 1514 c 4,67,68
 385 1543 385 1543 395 1547 c 4,69,70
 401 1550 401 1550 408 1550 c 4,71,72
 432 1543 432 1543 436 1520 c 5,73,74
 436 1477 436 1477 330 1333 c 4,75,76
 271 1255 271 1255 236 1221 c 4,77,78
 200 1185 200 1185 164 1185 c 4,58,59
513 1342 m 4,79,80
 513 1542 513 1542 562 1542 c 4,81,82
 586 1542 586 1542 595 1507 c 6,83,-1
 618 1370 l 6,84,85
 635 1289 635 1289 671 1213 c 4,86,87
 687 1179 687 1179 687 1157 c 4,88,89
 687 1112 687 1112 652 1097 c 4,90,91
 641 1093 641 1093 629 1093 c 4,92,93
 570 1093 570 1093 537 1186 c 4,94,95
 513 1254 513 1254 513 1342 c 4,79,80
348 959 m 4,96,97
 303 956 303 956 284 1001 c 4,98,99
 277 1018 277 1018 277 1039 c 4,100,101
 277 1093 277 1093 376 1307 c 6,102,-1
 406 1373 l 6,103,104
 422 1409 422 1409 425 1413 c 4,105,106
 437 1430 437 1430 453 1430 c 4,107,108
 475 1430 475 1430 481 1409 c 4,109,110
 483 1403 483 1403 482 1396 c 4,111,112
 447 1102 447 1102 422 1031 c 4,113,114
 401 970 401 970 361 961 c 4,115,116
 355 960 355 960 348 959 c 4,96,97
EndSplineSet
Validated: 2085
EndChar

StartChar: plus
Encoding: 43 43 32
Width: 1190
Flags: W
LayerCount: 2
Fore
SplineSet
858 537 m 4,0,1
 959 537 959 537 1001 571 c 6,2,-1
 1033 597 l 6,3,4
 1047 606 1047 606 1065 611 c 5,5,-1
 1074 611 l 6,6,7
 1084 610 1084 610 1084 601 c 4,8,9
 1084 577 1084 577 1035 530 c 4,10,11
 938 439 938 439 807 419 c 4,12,13
 777 414 777 414 746 414 c 4,14,15
 670 414 670 414 522 442 c 4,16,17
 400 466 400 466 327 466 c 4,18,19
 224 466 224 466 163 420 c 4,20,21
 132 396 132 396 121 393 c 4,22,23
 116 392 116 392 109 392 c 4,24,25
 98 392 98 392 98 402 c 4,26,27
 98 427 98 427 148 475 c 4,28,29
 244 565 244 565 376 585 c 4,30,31
 407 589 407 589 437 589 c 4,32,33
 510 589 510 589 664 560 c 4,34,35
 787 537 787 537 858 537 c 4,0,1
687 752 m 4,36,37
 669 683 669 683 659 559 c 4,38,39
 647 403 647 403 628 332 c 4,40,41
 620 303 620 303 608 274 c 4,42,43
 555 152 555 152 443 83 c 4,44,45
 384 47 384 47 360 53 c 4,46,47
 350 56 350 56 353 67 c 4,48,49
 355 74 355 74 357 78 c 4,50,51
 363 88 363 88 394 111 c 4,52,53
 454 158 454 158 481 258 c 4,54,55
 500 329 500 329 508 452 c 4,56,57
 519 602 519 602 539 676 c 4,58,59
 547 706 547 706 559 734 c 4,60,61
 612 855 612 855 726 925 c 4,62,63
 784 960 784 960 807 954 c 4,64,65
 816 952 816 952 814 942 c 6,66,-1
 812 933 l 5,67,68
 803 917 803 917 790 906 c 6,69,-1
 756 882 l 6,70,71
 713 850 713 850 687 752 c 4,36,37
EndSplineSet
Validated: 37
EndChar

StartChar: perthousand
Encoding: 137 8240 33
Width: 2144
Flags: W
LayerCount: 2
Fore
SplineSet
-20 -259 m 0,0,1
 -34 -255 -34 -255 -30 -240 c 0,2,3
 -24 -217 -24 -217 43 -176 c 0,4,5
 134 -120 134 -120 168 -89 c 0,6,7
 272 4 272 4 348 137 c 0,8,9
 433 286 433 286 554 592 c 0,10,11
 676 900 676 900 753 1039 c 0,12,13
 892 1287 892 1287 1100 1428 c 0,14,15
 1129 1448 1129 1448 1162 1466 c 0,16,17
 1286 1539 1286 1539 1328 1528 c 0,18,19
 1344 1524 1344 1524 1341 1510 c 0,20,21
 1335 1488 1335 1488 1283 1457 c 0,22,23
 1197 1404 1197 1404 1158 1371 c 0,24,25
 1107 1329 1107 1329 1063 1274 c 0,26,27
 938 1122 938 1122 824 844 c 2,28,-1
 681 483 l 1,29,30
 598 285 598 285 509 149 c 0,31,32
 389 -35 389 -35 203 -165 c 0,33,34
 77 -252 77 -252 4 -260 c 0,35,36
 -10 -262 -10 -262 -20 -259 c 0,0,1
810 230 m 0,37,38
 810 350 810 350 909 454 c 0,39,40
 989 537 989 537 1095 574 c 0,41,42
 1148 592 1148 592 1194 592 c 0,43,44
 1292 592 1292 592 1347 521 c 0,45,46
 1394 461 1394 461 1394 371 c 0,47,48
 1394 250 1394 250 1294 145 c 0,49,50
 1240 89 1240 89 1171 52 c 0,51,52
 1088 8 1088 8 1002 8 c 0,53,54
 912 8 912 8 858 78 c 0,55,56
 810 140 810 140 810 230 c 0,37,38
923 315 m 0,57,58
 923 225 923 225 977 165 c 0,59,60
 1026 111 1026 111 1095 111 c 0,61,62
 1149 111 1149 111 1198 131 c 0,63,64
 1224 141 1224 141 1238 155 c 0,65,66
 1277 192 1277 192 1281 273 c 0,67,68
 1282 280 1282 280 1282 286 c 0,69,70
 1282 380 1282 380 1226 438 c 0,71,72
 1178 488 1178 488 1104 489 c 0,73,74
 1057 489 1057 489 1008 470 c 0,75,76
 973 456 973 456 959 436 c 0,77,78
 923 387 923 387 923 315 c 0,57,58
1438 232 m 0,79,80
 1438 352 1438 352 1537 456 c 0,81,82
 1617 539 1617 539 1722 576 c 0,83,84
 1775 594 1775 594 1821 594 c 0,85,86
 1919 594 1919 594 1975 523 c 0,87,88
 2022 463 2022 463 2022 373 c 0,89,90
 2022 252 2022 252 1922 147 c 0,91,92
 1868 91 1868 91 1798 54 c 0,93,94
 1715 10 1715 10 1630 10 c 0,95,96
 1540 10 1540 10 1486 80 c 0,97,98
 1438 142 1438 142 1438 232 c 0,79,80
1550 317 m 0,99,100
 1550 227 1550 227 1605 167 c 0,101,102
 1654 113 1654 113 1723 113 c 0,103,104
 1777 113 1777 113 1826 133 c 0,105,106
 1852 143 1852 143 1866 157 c 0,107,108
 1905 194 1905 194 1909 275 c 0,109,110
 1910 282 1910 282 1910 288 c 0,111,112
 1910 382 1910 382 1853 440 c 0,113,114
 1805 490 1805 490 1732 491 c 0,115,116
 1685 491 1685 491 1636 472 c 0,117,118
 1601 458 1601 458 1587 438 c 0,119,120
 1550 389 1550 389 1550 317 c 0,99,100
14 914 m 0,121,122
 14 1034 14 1034 113 1138 c 0,123,124
 193 1221 193 1221 298 1258 c 0,125,126
 351 1276 351 1276 397 1276 c 0,127,128
 495 1276 495 1276 551 1205 c 0,129,130
 598 1145 598 1145 598 1055 c 0,131,132
 598 934 598 934 498 829 c 0,133,134
 444 773 444 773 374 736 c 0,135,136
 291 692 291 692 206 692 c 0,137,138
 116 692 116 692 62 762 c 0,139,140
 14 824 14 824 14 914 c 0,121,122
126 999 m 0,141,142
 126 909 126 909 181 849 c 0,143,144
 230 795 230 795 299 795 c 0,145,146
 353 795 353 795 402 815 c 0,147,148
 428 825 428 825 442 839 c 0,149,150
 481 876 481 876 485 957 c 0,151,152
 486 964 486 964 486 970 c 0,153,154
 486 1064 486 1064 429 1122 c 0,155,156
 381 1172 381 1172 308 1173 c 0,157,158
 261 1173 261 1173 212 1154 c 0,159,160
 177 1140 177 1140 163 1120 c 0,161,162
 126 1071 126 1071 126 999 c 0,141,142
EndSplineSet
Validated: 2081
EndChar

StartChar: OE
Encoding: 140 338 34
Width: 1883
Flags: W
LayerCount: 2
Fore
SplineSet
17 328 m 0,0,1
 17 513 17 513 170 674 c 0,2,3
 294 803 294 803 457 860 c 0,4,5
 539 888 539 888 610 888 c 0,6,7
 761 888 761 888 848 778 c 0,8,9
 921 685 921 685 921 546 c 0,10,11
 921 359 921 359 766 196 c 0,12,13
 683 110 683 110 575 52 c 0,14,15
 446 -16 446 -16 314 -16 c 0,16,17
 175 -16 175 -16 91 93 c 0,18,19
 17 188 17 188 17 328 c 0,0,1
191 459 m 0,20,21
 191 320 191 320 275 227 c 0,22,23
 351 143 351 143 458 143 c 0,24,25
 542 143 542 143 617 174 c 0,26,27
 657 189 657 189 679 211 c 0,28,29
 739 269 739 269 746 394 c 0,30,31
 747 405 747 405 747 414 c 0,32,33
 747 560 747 560 660 650 c 0,34,35
 585 728 585 728 472 728 c 0,36,37
 399 728 399 728 323 699 c 0,38,39
 269 678 269 678 247 647 c 0,40,41
 191 571 191 571 191 459 c 0,20,21
1084 576 m 1,42,43
 995 510 995 510 938 431.5 c 128,-1,44
 881 353 881 353 860 273.5 c 128,-1,45
 839 194 839 194 844.5 110.5 c 128,-1,46
 850 27 850 27 882 -49.5 c 128,-1,47
 914 -126 914 -126 968 -196.5 c 128,-1,48
 1022 -267 1022 -267 1093 -323.5 c 128,-1,49
 1164 -380 1164 -380 1252.5 -421 c 128,-1,50
 1341 -462 1341 -462 1437 -480 c 1,51,52
 1520 -479 1520 -479 1593 -447.5 c 128,-1,53
 1666 -416 1666 -416 1701 -370 c 0,54,55
 1721 -343 1721 -343 1719 -290 c 0,56,57
 1718 -234 1718 -234 1731 -209 c 0,58,59
 1735 -202 1735 -202 1740 -195 c 0,60,61
 1779 -142 1779 -142 1851 -142 c 0,62,63
 1896 -144 1896 -144 1927 -168 c 0,64,65
 1969 -199 1969 -199 1967 -257 c 0,66,67
 1965 -308 1965 -308 1925 -362 c 0,68,69
 1871 -435 1871 -435 1784 -491 c 128,-1,70
 1697 -547 1697 -547 1576 -569 c 0,71,72
 1492 -584 1492 -584 1380 -579 c 1,73,74
 1138 -579 1138 -579 910 -400 c 0,75,76
 750 -274 750 -274 711 -86 c 0,77,78
 700 -33 700 -33 700 21 c 0,79,80
 700 178 700 178 773 316 c 2,81,-1
 788 344 l 1,82,83
 911 559 911 559 1158 720 c 0,84,85
 1220 760 1220 760 1279 790 c 1,86,87
 1334 809 1334 809 1351 799 c 0,88,89
 1380 781 1380 781 1221 669 c 0,90,91
 1164 629 1164 629 1084 576 c 1,92,-1
 1084 576 l 1,42,43
1020 599 m 1,93,-1
 1044 622 l 2,94,95
 1120 698 1120 698 1206 758 c 0,96,97
 1244 785 1244 785 1285 809 c 0,98,99
 1422 890 1422 890 1523 890 c 0,100,101
 1669 890 1669 890 1761 769 c 0,102,103
 1778 746 1778 746 1790 723 c 0,104,105
 1829 649 1829 649 1829 568 c 0,106,107
 1829 377 1829 377 1683 208 c 0,108,109
 1613 127 1613 127 1521 67 c 0,110,111
 1396 -15 1396 -15 1273 -15 c 0,112,113
 1146 -15 1146 -15 1124 63 c 0,114,115
 1121 76 1121 76 1121 90 c 0,116,117
 1121 145 1121 145 1166 187 c 0,118,119
 1205 222 1205 222 1256 222 c 0,120,121
 1302 222 1302 222 1336 188 c 0,122,123
 1365 159 1365 159 1378 152 c 0,124,125
 1395 145 1395 145 1416 145 c 0,126,127
 1574 145 1574 145 1631 291 c 0,128,129
 1655 353 1655 353 1655 427 c 0,130,131
 1655 576 1655 576 1544 668 c 0,132,133
 1518 690 1518 690 1492 703 c 0,134,135
 1437 730 1437 730 1380 730 c 1,136,137
 1309 716 1309 716 1238 680 c 128,-1,138
 1167 644 1167 644 1108.5 595.5 c 128,-1,139
 1050 547 1050 547 1002.5 492.5 c 128,-1,140
 955 438 955 438 923 383 c 0,141,142
 790 164 790 164 789 185 c 0,143,144
 789 208 789 208 892 392 c 0,145,146
 967 525 967 525 1020 599 c 1,147,-1
 1020 599 l 1,93,-1
EndSplineSet
Validated: 37
EndChar

StartChar: Zcaron
Encoding: 142 381 35
Width: 902
Flags: W
LayerCount: 2
Fore
SplineSet
-227 575 m 0,0,1
 -243 575 -243 575 -243 588 c 0,2,3
 -243 627 -243 627 -136 719 c 0,4,5
 -35 806 -35 806 63 855 c 0,6,7
 175 912 175 912 321 921 c 0,8,9
 336 922 336 922 352 923 c 2,10,-1
 413 923 l 2,11,12
 462 923 462 923 493 916 c 0,13,14
 617 889 617 889 690 782 c 0,15,16
 749 696 749 696 749 593 c 0,17,18
 749 457 749 457 608 309 c 0,19,20
 520 216 520 216 381 129 c 1,21,22
 520 52 520 52 526 -117 c 0,23,24
 527 -124 527 -124 527 -131 c 0,25,26
 527 -295 527 -295 382 -533 c 0,27,28
 286 -693 286 -693 135 -863 c 0,29,30
 -162 -1196 -162 -1196 -597 -1512 c 0,31,32
 -761 -1631 -761 -1631 -884 -1704 c 0,33,34
 -910 -1718 -910 -1718 -925 -1718 c 128,-1,35
 -940 -1718 -940 -1718 -940 -1703 c 0,36,37
 -938 -1670 -938 -1670 -879 -1617 c 0,38,39
 -850 -1591 -850 -1591 -813 -1567 c 0,40,41
 -256 -1214 -256 -1214 66 -830 c 0,42,43
 299 -553 299 -553 343 -342 c 0,44,45
 352 -300 352 -300 352 -264 c 0,46,47
 352 -142 352 -142 274 -67 c 0,48,49
 213 -7 213 -7 127 -7 c 0,50,51
 69 -7 69 -7 26 -38 c 0,52,53
 -15 -68 -15 -68 -37 -75 c 2,54,-1
 -51 -79 l 1,55,56
 -69 -79 -69 -79 -69 -64 c 0,57,58
 -69 -37 -69 -37 -18 15 c 0,59,60
 63 98 63 98 194 143 c 0,61,62
 356 198 356 198 470 280 c 0,63,64
 506 306 506 306 525 328 c 0,65,66
 575 384 575 384 575 460 c 0,67,68
 575 583 575 583 491 670 c 0,69,70
 401 763 401 763 259 763 c 0,71,72
 152 763 152 763 109 755 c 0,73,74
 -14 734 -14 734 -118 640 c 0,75,76
 -192 575 -192 575 -227 575 c 0,0,1
182 1484 m 2,77,78
 182 1507 182 1507 226 1551 c 0,79,80
 273 1597 273 1597 304 1597 c 0,81,82
 323 1597 323 1597 370 1524 c 0,83,84
 445 1409 445 1409 479 1280 c 1,85,-1
 500 1304 l 1,86,87
 761 1583 761 1583 827 1597 c 0,88,89
 837 1597 837 1597 837 1587 c 0,90,91
 837 1564 837 1564 797 1525 c 2,92,-1
 679 1414 l 2,93,94
 581 1317 581 1317 477 1191 c 0,95,96
 409 1110 409 1110 366 1109 c 0,97,98
 356 1109 356 1109 348 1149 c 0,99,100
 323 1260 323 1260 286 1332 c 128,-1,101
 249 1404 249 1404 191 1470 c 0,102,103
 182 1479 182 1479 182 1482 c 2,104,-1
 182 1484 l 2,77,78
EndSplineSet
Validated: 1
EndChar

StartChar: quoteleft
Encoding: 145 8216 36
Width: 554
Flags: W
LayerCount: 2
Fore
SplineSet
84 1242 m 1,0,-1
 86 1198 l 2,1,2
 86 1171 86 1171 32 1117 c 0,3,4
 -32 1053 -32 1053 -73 1053 c 0,5,6
 -86 1053 -86 1053 -88 1065 c 0,7,8
 -90 1074 -90 1074 -90 1108 c 0,9,10
 -90 1308 -90 1308 50 1490 c 0,11,12
 128 1591 128 1591 204 1634 c 0,13,14
 230 1648 230 1648 245 1648 c 128,-1,15
 260 1648 260 1648 260 1635 c 0,16,17
 260 1610 260 1610 193 1537 c 0,18,19
 165 1506 165 1506 158 1496 c 0,20,21
 89 1392 89 1392 84 1257 c 1,22,-1
 84 1242 l 1,0,-1
EndSplineSet
Validated: 1
EndChar

StartChar: quoteright
Encoding: 146 8217 37
Width: 597
Flags: W
LayerCount: 2
Fore
SplineSet
518 1459 m 2,0,-1
 516 1503 l 2,1,2
 516 1530 516 1530 570 1584 c 0,3,4
 634 1648 634 1648 675 1648 c 0,5,6
 688 1648 688 1648 690 1636 c 0,7,8
 692 1627 692 1627 692 1593 c 0,9,10
 692 1393 692 1393 552 1211 c 0,11,12
 474 1110 474 1110 398 1067 c 0,13,14
 372 1053 372 1053 357 1053 c 128,-1,15
 342 1053 342 1053 342 1066 c 0,16,17
 342 1091 342 1091 409 1164 c 0,18,19
 437 1195 437 1195 444 1205 c 0,20,21
 513 1309 513 1309 518 1444 c 0,22,23
 518 1451 518 1451 518 1459 c 2,0,-1
EndSplineSet
Validated: 1
EndChar

StartChar: quotedblleft
Encoding: 147 8220 38
Width: 725
Flags: W
LayerCount: 2
Fore
SplineSet
404 1648 m 0,0,1
 420 1648 420 1648 421 1633 c 0,2,3
 421 1610 421 1610 380 1566 c 0,4,5
 347 1531 347 1531 338 1515 c 0,6,7
 292 1437 292 1437 262 1274 c 0,8,9
 246 1187 246 1187 236 1170 c 0,10,11
 203 1114 203 1114 139 1074 c 0,12,13
 107 1053 107 1053 89 1053 c 0,14,15
 73 1053 73 1053 73 1067 c 0,16,17
 73 1143 73 1143 114 1273 c 0,18,19
 159 1417 159 1417 228 1507 c 0,20,21
 298 1598 298 1598 367 1635 c 0,22,23
 389 1647 389 1647 404 1648 c 0,0,1
142 1648 m 0,24,25
 159 1648 159 1648 160 1633 c 0,26,27
 160 1611 160 1611 104 1549 c 0,28,29
 82 1524 82 1524 76 1515 c 0,30,31
 29 1434 29 1434 -1 1269 c 0,32,33
 -16 1185 -16 1185 -25 1170 c 0,34,35
 -58 1114 -58 1114 -122 1074 c 0,36,37
 -154 1053 -154 1053 -172 1053 c 0,38,39
 -188 1053 -188 1053 -188 1067 c 0,40,41
 -188 1138 -188 1138 -138 1296 c 0,42,43
 -115 1371 -115 1371 -96 1408 c 0,44,45
 -33 1529 -33 1529 62 1605 c 0,46,47
 112 1646 112 1646 142 1648 c 0,24,25
EndSplineSet
Validated: 1
EndChar

StartChar: endash
Encoding: 150 8211 39
Width: 1320
Flags: W
LayerCount: 2
Fore
SplineSet
958 557 m 4,0,1
 1059 557 1059 557 1101 591 c 6,2,-1
 1133 617 l 6,3,4
 1147 626 1147 626 1165 631 c 5,5,-1
 1174 631 l 6,6,7
 1184 630 1184 630 1184 621 c 4,8,9
 1184 597 1184 597 1135 550 c 4,10,11
 1038 459 1038 459 907 439 c 4,12,13
 877 434 877 434 846 434 c 4,14,15
 770 434 770 434 622 462 c 4,16,17
 500 486 500 486 427 486 c 4,18,19
 324 486 324 486 263 440 c 4,20,21
 232 416 232 416 221 413 c 4,22,23
 216 412 216 412 209 412 c 4,24,25
 198 412 198 412 198 422 c 4,26,27
 198 447 198 447 248 495 c 4,28,29
 344 585 344 585 476 605 c 4,30,31
 507 609 507 609 537 609 c 4,32,33
 610 609 610 609 764 580 c 4,34,35
 887 557 887 557 958 557 c 4,0,1
EndSplineSet
Validated: 1
EndChar

StartChar: emdash
Encoding: 151 8212 40
Width: 1538
Flags: W
LayerCount: 2
Fore
SplineSet
1117 590 m 4,0,1
 1310 590 1310 590 1412 669 c 6,2,-1
 1466 712 l 6,3,4
 1484 724 1484 724 1501 724 c 4,5,6
 1514 724 1514 724 1514 714 c 4,7,8
 1514 689 1514 689 1465 645 c 4,9,10
 1301 497 1301 497 1094 472 c 4,11,12
 1050 467 1050 467 1002 467 c 4,13,14
 867 467 867 467 637 511 c 4,15,16
 415 553 415 553 310 559 c 4,17,18
 277 561 277 561 246 561 c 4,19,20
 51 561 51 561 -50 483 c 6,21,-1
 -105 439 l 6,22,23
 -123 427 -123 427 -141 427 c 4,24,25
 -152 427 -152 427 -152 437 c 4,26,27
 -152 466 -152 466 -90 521 c 4,28,29
 25 623 25 623 190 664 c 4,30,31
 273 684 273 684 358 684 c 4,32,33
 486 684 486 684 715 641 c 4,34,35
 944 597 944 597 1054 592 c 4,36,37
 1086 590 1086 590 1117 590 c 4,0,1
EndSplineSet
Validated: 1
EndChar

StartChar: oe
Encoding: 156 339 41
Width: 1883
Flags: W
LayerCount: 2
Fore
SplineSet
17 328 m 0,0,1
 17 513 17 513 170 674 c 0,2,3
 294 803 294 803 457 860 c 0,4,5
 539 888 539 888 610 888 c 0,6,7
 761 888 761 888 848 778 c 0,8,9
 921 685 921 685 921 546 c 0,10,11
 921 359 921 359 766 196 c 0,12,13
 683 110 683 110 575 52 c 0,14,15
 446 -16 446 -16 314 -16 c 0,16,17
 175 -16 175 -16 91 93 c 0,18,19
 17 188 17 188 17 328 c 0,0,1
191 459 m 0,20,21
 191 320 191 320 275 227 c 0,22,23
 351 143 351 143 458 143 c 0,24,25
 542 143 542 143 617 174 c 0,26,27
 657 189 657 189 679 211 c 0,28,29
 739 269 739 269 746 394 c 0,30,31
 747 405 747 405 747 414 c 0,32,33
 747 560 747 560 660 650 c 0,34,35
 585 728 585 728 472 728 c 0,36,37
 399 728 399 728 323 699 c 0,38,39
 269 678 269 678 247 647 c 0,40,41
 191 571 191 571 191 459 c 0,20,21
1084 576 m 1,42,43
 995 510 995 510 938 431.5 c 128,-1,44
 881 353 881 353 860 273.5 c 128,-1,45
 839 194 839 194 844.5 110.5 c 128,-1,46
 850 27 850 27 882 -49.5 c 128,-1,47
 914 -126 914 -126 968 -196.5 c 128,-1,48
 1022 -267 1022 -267 1093 -323.5 c 128,-1,49
 1164 -380 1164 -380 1252.5 -421 c 128,-1,50
 1341 -462 1341 -462 1437 -480 c 1,51,52
 1520 -479 1520 -479 1593 -447.5 c 128,-1,53
 1666 -416 1666 -416 1701 -370 c 0,54,55
 1721 -343 1721 -343 1719 -290 c 0,56,57
 1718 -234 1718 -234 1731 -209 c 0,58,59
 1735 -202 1735 -202 1740 -195 c 0,60,61
 1779 -142 1779 -142 1851 -142 c 0,62,63
 1896 -144 1896 -144 1927 -168 c 0,64,65
 1969 -199 1969 -199 1967 -257 c 0,66,67
 1965 -308 1965 -308 1925 -362 c 0,68,69
 1871 -435 1871 -435 1784 -491 c 128,-1,70
 1697 -547 1697 -547 1576 -569 c 0,71,72
 1492 -584 1492 -584 1380 -579 c 1,73,74
 1138 -579 1138 -579 910 -400 c 0,75,76
 750 -274 750 -274 711 -86 c 0,77,78
 700 -33 700 -33 700 21 c 0,79,80
 700 178 700 178 773 316 c 2,81,-1
 788 344 l 1,82,83
 911 559 911 559 1158 720 c 0,84,85
 1220 760 1220 760 1279 790 c 1,86,87
 1334 809 1334 809 1351 799 c 0,88,89
 1380 781 1380 781 1221 669 c 0,90,91
 1164 629 1164 629 1084 576 c 1,92,-1
 1084 576 l 1,42,43
1020 599 m 1,93,-1
 1044 622 l 2,94,95
 1120 698 1120 698 1206 758 c 0,96,97
 1244 785 1244 785 1285 809 c 0,98,99
 1422 890 1422 890 1523 890 c 0,100,101
 1669 890 1669 890 1761 769 c 0,102,103
 1778 746 1778 746 1790 723 c 0,104,105
 1829 649 1829 649 1829 568 c 0,106,107
 1829 377 1829 377 1683 208 c 0,108,109
 1613 127 1613 127 1521 67 c 0,110,111
 1396 -15 1396 -15 1273 -15 c 0,112,113
 1146 -15 1146 -15 1124 63 c 0,114,115
 1121 76 1121 76 1121 90 c 0,116,117
 1121 145 1121 145 1166 187 c 0,118,119
 1205 222 1205 222 1256 222 c 0,120,121
 1302 222 1302 222 1336 188 c 0,122,123
 1365 159 1365 159 1378 152 c 0,124,125
 1395 145 1395 145 1416 145 c 0,126,127
 1574 145 1574 145 1631 291 c 0,128,129
 1655 353 1655 353 1655 427 c 0,130,131
 1655 576 1655 576 1544 668 c 0,132,133
 1518 690 1518 690 1492 703 c 0,134,135
 1437 730 1437 730 1380 730 c 1,136,137
 1309 716 1309 716 1238 680 c 128,-1,138
 1167 644 1167 644 1108.5 595.5 c 128,-1,139
 1050 547 1050 547 1002.5 492.5 c 128,-1,140
 955 438 955 438 923 383 c 0,141,142
 790 164 790 164 789 185 c 0,143,144
 789 208 789 208 892 392 c 0,145,146
 967 525 967 525 1020 599 c 1,147,-1
 1020 599 l 1,93,-1
EndSplineSet
Validated: 37
EndChar

StartChar: zcaron
Encoding: 158 382 42
Width: 902
Flags: W
LayerCount: 2
Fore
SplineSet
-227 575 m 0,0,1
 -243 575 -243 575 -243 588 c 0,2,3
 -243 627 -243 627 -136 719 c 0,4,5
 -35 806 -35 806 63 855 c 0,6,7
 175 912 175 912 321 921 c 0,8,9
 336 922 336 922 352 923 c 2,10,-1
 413 923 l 2,11,12
 462 923 462 923 493 916 c 0,13,14
 617 889 617 889 690 782 c 0,15,16
 749 696 749 696 749 593 c 0,17,18
 749 457 749 457 608 309 c 0,19,20
 520 216 520 216 381 129 c 1,21,22
 520 52 520 52 526 -117 c 0,23,24
 527 -124 527 -124 527 -131 c 0,25,26
 527 -295 527 -295 382 -533 c 0,27,28
 286 -693 286 -693 135 -863 c 0,29,30
 -162 -1196 -162 -1196 -597 -1512 c 0,31,32
 -761 -1631 -761 -1631 -884 -1704 c 0,33,34
 -910 -1718 -910 -1718 -925 -1718 c 128,-1,35
 -940 -1718 -940 -1718 -940 -1703 c 0,36,37
 -938 -1670 -938 -1670 -879 -1617 c 0,38,39
 -850 -1591 -850 -1591 -813 -1567 c 0,40,41
 -256 -1214 -256 -1214 66 -830 c 0,42,43
 299 -553 299 -553 343 -342 c 0,44,45
 352 -300 352 -300 352 -264 c 0,46,47
 352 -142 352 -142 274 -67 c 0,48,49
 213 -7 213 -7 127 -7 c 0,50,51
 69 -7 69 -7 26 -38 c 0,52,53
 -15 -68 -15 -68 -37 -75 c 2,54,-1
 -51 -79 l 1,55,56
 -69 -79 -69 -79 -69 -64 c 0,57,58
 -69 -37 -69 -37 -18 15 c 0,59,60
 63 98 63 98 194 143 c 0,61,62
 356 198 356 198 470 280 c 0,63,64
 506 306 506 306 525 328 c 0,65,66
 575 384 575 384 575 460 c 0,67,68
 575 583 575 583 491 670 c 0,69,70
 401 763 401 763 259 763 c 0,71,72
 152 763 152 763 109 755 c 0,73,74
 -14 734 -14 734 -118 640 c 0,75,76
 -192 575 -192 575 -227 575 c 0,0,1
182 1484 m 2,77,78
 182 1507 182 1507 226 1551 c 0,79,80
 273 1597 273 1597 304 1597 c 0,81,82
 323 1597 323 1597 370 1524 c 0,83,84
 445 1409 445 1409 479 1280 c 1,85,-1
 500 1304 l 1,86,87
 761 1583 761 1583 827 1597 c 0,88,89
 837 1597 837 1597 837 1587 c 0,90,91
 837 1564 837 1564 797 1525 c 2,92,-1
 679 1414 l 2,93,94
 581 1317 581 1317 477 1191 c 0,95,96
 409 1110 409 1110 366 1109 c 0,97,98
 356 1109 356 1109 348 1149 c 0,99,100
 323 1260 323 1260 286 1332 c 128,-1,101
 249 1404 249 1404 191 1470 c 0,102,103
 182 1479 182 1479 182 1482 c 2,104,-1
 182 1484 l 2,77,78
EndSplineSet
Validated: 1
EndChar

StartChar: Ydieresis
Encoding: 159 376 43
Width: 973
Flags: W
LayerCount: 2
Fore
SplineSet
369 740 m 1,0,1
 423 794 423 794 522 845 c 0,2,3
 639 906 639 906 733 906 c 0,4,5
 882 906 882 906 912 807 c 0,6,7
 921 777 921 777 921 734 c 0,8,9
 921 524 921 524 609 -6 c 0,10,11
 132 -815 132 -815 -702 -1602 c 2,12,-1
 -841 -1733 l 2,13,14
 -938 -1819 -938 -1819 -978 -1819 c 0,15,16
 -991 -1819 -991 -1819 -991 -1806 c 0,17,18
 -991 -1772 -991 -1772 -900 -1690 c 0,19,20
 -35 -908 -35 -908 448 -91 c 1,21,-1
 463 -66 l 1,22,23
 351 36 351 36 288 257 c 1,24,-1
 218 530 l 1,25,26
 175 673 175 673 109 712 c 0,27,28
 100 718 100 718 89 722 c 0,29,30
 70 728 70 728 55 728 c 2,31,-1
 46 728 l 2,32,33
 -19 728 -19 728 -89 679 c 0,34,35
 -134 647 -134 647 -151 645 c 0,36,37
 -154 644 -154 644 -158 644 c 0,38,39
 -174 644 -174 644 -174 657 c 0,40,41
 -174 699 -174 699 -94 766 c 0,42,43
 9 852 9 852 122 879 c 0,44,45
 158 888 158 888 190 888 c 0,46,47
 289 888 289 888 349 781 c 0,48,49
 359 763 359 763 369 740 c 1,0,1
747 604 m 0,50,51
 747 725 747 725 632 743 c 0,52,53
 608 746 608 746 579 746 c 0,54,55
 489 747 489 747 394 669 c 1,56,57
 474 338 474 338 516 244 c 0,58,59
 541 189 541 189 579 141 c 1,60,61
 629 217 629 217 691 383 c 0,62,63
 747 534 747 534 747 604 c 0,50,51
364 1154 m 0,64,65
 345 1159 345 1159 343 1181 c 1,66,67
 381 1290 381 1290 423 1396 c 0,68,69
 465 1496 465 1496 488 1517 c 0,70,71
 503 1531 503 1531 522 1531 c 0,72,73
 555 1531 555 1531 565 1499 c 0,74,75
 568 1490 568 1490 568 1480 c 0,76,77
 568 1452 568 1452 521 1374 c 2,78,-1
 501 1340 l 1,79,-1
 432 1234 l 1,80,-1
 394 1174 l 2,81,82
 379 1154 379 1154 364 1154 c 0,64,65
687 1154 m 0,83,84
 668 1159 668 1159 666 1181 c 1,85,86
 704 1290 704 1290 746 1396 c 0,87,88
 788 1496 788 1496 811 1517 c 0,89,90
 826 1531 826 1531 845 1531 c 0,91,92
 878 1531 878 1531 888 1499 c 0,93,94
 891 1490 891 1490 891 1480 c 0,95,96
 891 1452 891 1452 844 1374 c 2,97,-1
 824 1340 l 1,98,-1
 755 1234 l 1,99,-1
 717 1174 l 2,100,101
 702 1154 702 1154 687 1154 c 0,83,84
EndSplineSet
Validated: 33
EndChar

StartChar: exclamdown
Encoding: 161 161 44
Width: 1088
Flags: W
LayerCount: 2
Fore
SplineSet
1271 1702 m 0,0,1
 1271 1641 1271 1641 1221 1587 c 0,2,3
 1180 1544 1180 1544 1125 1526 c 0,4,5
 1098 1517 1098 1517 1075 1516 c 0,6,7
 1025 1516 1025 1516 996 1553 c 0,8,9
 972 1584 972 1584 971 1630 c 0,10,11
 971 1692 971 1692 1023 1746 c 0,12,13
 1051 1775 1051 1775 1086 1794 c 0,14,15
 1129 1817 1129 1817 1173 1816 c 0,16,17
 1219 1816 1219 1816 1247 1780 c 0,18,19
 1271 1748 1271 1748 1271 1702 c 0,0,1
1030 1325 m 0,20,21
 1044 1325 1044 1325 1044 1310 c 0,22,23
 1044 1286 1044 1286 990 1229 c 0,24,25
 917 1151 917 1151 892 1113 c 0,26,27
 816 996 816 996 777 848 c 0,28,29
 733 682 733 682 696 355 c 0,30,31
 658 26 658 26 619 -128 c 0,32,33
 549 -404 549 -404 384 -594 c 0,34,35
 361 -621 361 -621 335 -647 c 0,36,37
 234 -750 234 -750 190 -750 c 0,38,39
 173 -750 173 -750 173 -736 c 0,40,41
 173 -713 173 -713 215 -669 c 0,42,43
 284 -596 284 -596 314 -554 c 0,44,45
 352 -500 352 -500 381 -436 c 0,46,47
 462 -257 462 -257 500 42 c 2,48,-1
 545 427 l 1,49,50
 574 640 574 640 624 794 c 0,51,52
 692 1003 692 1003 839 1177 c 0,53,54
 938 1294 938 1294 1006 1320 c 0,55,56
 1020 1325 1020 1325 1030 1325 c 0,20,21
EndSplineSet
Validated: 33
EndChar

StartChar: bullet
Encoding: 149 8226 45
Width: 340
Flags: W
LayerCount: 2
Fore
SplineSet
72 544 m 0,0,1
 72 577 72 577 96 609 c 0,2,3
 125 646 125 646 172 646 c 0,4,5
 239 646 239 646 264 592 c 0,6,7
 274 571 274 571 274 545 c 0,8,9
 274 480 274 480 221 455 c 0,10,11
 199 444 199 444 173 444 c 0,12,13
 111 444 111 444 84 496 c 0,14,15
 72 518 72 518 72 544 c 0,0,1
EndSplineSet
Validated: 1
EndChar

StartChar: c
Encoding: 99 99 46
Width: 874
Flags: W
LayerCount: 2
Fore
SplineSet
1059 307 m 0,0,1
 1073 307 1073 307 1073 293 c 0,2,3
 1073 251 1073 251 979 174 c 0,4,5
 868 83 868 83 729 29 c 0,6,7
 623 -13 623 -13 524 -16 c 0,8,9
 503 -17 503 -17 467 -17 c 0,10,11
 354 -17 354 -17 313 -11 c 0,12,13
 156 11 156 11 79 124 c 0,14,15
 25 202 25 202 23 304 c 2,16,-1
 23 318 l 2,17,18
 23 414 23 414 89 532 c 0,19,20
 175 684 175 684 337 789 c 0,21,22
 471 876 471 876 599 887 c 0,23,24
 615 888 615 888 630 888 c 0,25,26
 712 888 712 888 750 868 c 0,27,28
 782 852 782 852 797 821 c 0,29,30
 806 802 806 802 806 777 c 0,31,32
 806 691 806 691 723 655 c 0,33,34
 694 642 694 642 672 642 c 0,35,36
 627 642 627 642 595 677 c 0,37,38
 567 708 567 708 557 715 c 0,39,40
 535 729 535 729 503 729 c 0,41,42
 408 729 408 729 331 692 c 0,43,44
 299 676 299 676 278 655 c 0,45,46
 212 589 212 589 200 476 c 0,47,48
 197 455 197 455 197 435 c 0,49,50
 197 263 197 263 355 184 c 0,51,52
 424 149 424 149 491 144 c 0,53,54
 526 143 526 143 619 143 c 0,55,56
 807 143 807 143 937 234 c 1,57,-1
 1014 292 l 2,58,59
 1039 307 1039 307 1059 307 c 0,0,1
EndSplineSet
Validated: 1
EndChar

StartChar: underscore
Encoding: 95 95 47
Width: 1538
Flags: W
LayerCount: 2
Fore
SplineSet
1117 -10 m 4,0,1
 1310 -10 1310 -10 1412 69 c 6,2,-1
 1466 112 l 6,3,4
 1484 124 1484 124 1501 124 c 4,5,6
 1514 124 1514 124 1514 114 c 4,7,8
 1514 89 1514 89 1465 45 c 4,9,10
 1301 -103 1301 -103 1094 -128 c 4,11,12
 1050 -133 1050 -133 1002 -133 c 4,13,14
 867 -133 867 -133 637 -89 c 4,15,16
 415 -47 415 -47 310 -41 c 4,17,18
 277 -39 277 -39 246 -39 c 4,19,20
 51 -39 51 -39 -50 -117 c 6,21,-1
 -105 -161 l 6,22,23
 -123 -173 -123 -173 -141 -173 c 4,24,25
 -152 -173 -152 -173 -152 -163 c 4,26,27
 -152 -134 -152 -134 -90 -79 c 4,28,29
 25 23 25 23 190 64 c 4,30,31
 273 84 273 84 358 84 c 4,32,33
 486 84 486 84 715 41 c 4,34,35
 944 -3 944 -3 1054 -8 c 4,36,37
 1086 -10 1086 -10 1117 -10 c 4,0,1
EndSplineSet
Validated: 1
EndChar

StartChar: l
Encoding: 108 108 48
Width: 479
Flags: W
LayerCount: 2
Fore
SplineSet
-19 -16 m 4,0,1
 -35 -16 -35 -16 -35 -3 c 4,2,3
 -35 14 -35 14 -16 36 c 4,4,5
 43 101 43 101 93 217 c 4,6,7
 132 307 132 307 173 436 c 4,8,9
 395 1137 395 1137 451 1290 c 4,10,11
 485 1381 485 1381 533 1490 c 4,12,13
 738 1958 738 1958 1025 2272 c 4,14,15
 1214 2478 1214 2478 1276 2478 c 4,16,17
 1290 2478 1290 2478 1290 2465 c 4,18,19
 1290 2436 1290 2436 1222 2368 c 4,20,21
 1123 2270 1123 2270 1116 2263 c 6,22,-1
 1094 2238 l 6,23,24
 912 2030 912 2030 779 1761 c 4,25,26
 605 1409 605 1409 400 729 c 4,27,28
 271 302 271 302 167 145 c 4,29,30
 124 79 124 79 67 30 c 4,31,32
 12 -16 12 -16 -19 -16 c 4,0,1
EndSplineSet
Validated: 1
EndChar

StartChar: quotedblright
Encoding: 148 8221 49
Width: 816
Flags: W
LayerCount: 2
Fore
SplineSet
440 1053 m 0,0,1
 424 1053 424 1053 423 1068 c 0,2,3
 423 1091 423 1091 464 1135 c 0,4,5
 497 1170 497 1170 506 1186 c 0,6,7
 552 1264 552 1264 582 1427 c 0,8,9
 598 1514 598 1514 608 1531 c 0,10,11
 641 1587 641 1587 705 1627 c 0,12,13
 737 1648 737 1648 755 1648 c 0,14,15
 771 1648 771 1648 771 1634 c 0,16,17
 771 1558 771 1558 730 1428 c 0,18,19
 685 1284 685 1284 616 1194 c 0,20,21
 546 1103 546 1103 477 1066 c 0,22,23
 455 1054 455 1054 440 1053 c 0,0,1
702 1053 m 0,24,25
 685 1053 685 1053 684 1068 c 0,26,27
 684 1090 684 1090 740 1152 c 0,28,29
 762 1177 762 1177 768 1186 c 0,30,31
 815 1267 815 1267 845 1432 c 0,32,33
 860 1516 860 1516 869 1531 c 0,34,35
 902 1587 902 1587 966 1627 c 0,36,37
 998 1648 998 1648 1016 1648 c 0,38,39
 1032 1648 1032 1648 1032 1634 c 0,40,41
 1032 1563 1032 1563 982 1405 c 0,42,43
 959 1330 959 1330 940 1293 c 0,44,45
 877 1172 877 1172 782 1096 c 0,46,47
 732 1055 732 1055 702 1053 c 0,24,25
EndSplineSet
Validated: 1
EndChar

StartChar: d
Encoding: 100 100 50
Width: 1151
Flags: W
LayerCount: 2
Fore
SplineSet
589 642 m 0,0,1
 546 642 546 642 506 683 c 0,2,3
 474 716 474 716 460 722 c 0,4,5
 447 728 447 728 433 728 c 0,6,7
 428 728 428 728 420 728 c 0,8,9
 267 728 267 728 211 584 c 0,10,11
 186 520 186 520 186 446 c 0,12,13
 186 295 186 295 299 203 c 0,14,15
 324 182 324 182 349 170 c 0,16,17
 404 144 404 144 460 144 c 0,18,19
 562 144 562 144 685 240 c 0,20,21
 806 335 806 335 860 453 c 0,22,23
 868 471 868 471 874 489 c 2,24,-1
 966 839 l 2,25,26
 993 935 993 935 1023 1031 c 0,27,28
 1242 1732 1242 1732 1589 2187 c 0,29,30
 1667 2288 1667 2288 1753 2382 c 0,31,32
 1957 2605 1957 2605 2018 2605 c 0,33,34
 2034 2605 2034 2605 2034 2591 c 0,35,36
 2034 2558 2034 2558 1969 2498 c 0,37,38
 1684 2239 1684 2239 1478 1841 c 0,39,40
 1163 1230 1163 1230 944 138 c 0,41,42
 931 71 931 71 850 15 c 0,43,44
 805 -16 805 -16 783 -16 c 0,45,46
 768 -16 768 -16 768 -4 c 0,47,48
 768 22 768 22 815 231 c 0,49,50
 823 266 823 266 825 273 c 1,51,52
 823 273 823 273 809 259 c 0,53,54
 585 45 585 45 404 -4 c 0,55,56
 358 -16 358 -16 316 -16 c 0,57,58
 197 -16 197 -16 109 70 c 0,59,60
 12 165 12 165 12 312 c 0,61,62
 12 492 12 492 152 659 c 0,63,64
 265 793 265 793 411 855 c 0,65,66
 490 888 490 888 558 888 c 0,67,68
 723 888 723 888 723 778 c 0,69,70
 723 776 723 776 723 775 c 0,71,72
 723 703 723 703 658 663 c 0,73,74
 624 642 624 642 589 642 c 0,0,1
EndSplineSet
Validated: 1
EndChar

StartChar: e
Encoding: 101 101 51
Width: 1148
Flags: W
LayerCount: 2
Fore
SplineSet
295 577 m 1,0,1
 206 511 206 511 149.5 432.5 c 128,-1,2
 93 354 93 354 71.5 274.5 c 128,-1,3
 50 195 50 195 56 111.5 c 128,-1,4
 62 28 62 28 93.5 -48.5 c 128,-1,5
 125 -125 125 -125 179 -196 c 128,-1,6
 233 -267 233 -267 304 -323 c 128,-1,7
 375 -379 375 -379 463.5 -420 c 128,-1,8
 552 -461 552 -461 648 -480 c 1,9,10
 731 -479 731 -479 804.5 -447.5 c 128,-1,11
 878 -416 878 -416 912 -369 c 0,12,13
 932 -342 932 -342 930 -289 c 0,14,15
 929 -233 929 -233 942 -208 c 0,16,17
 946 -201 946 -201 951 -194 c 0,18,19
 990 -141 990 -141 1062 -142 c 0,20,21
 1107 -144 1107 -144 1138 -167 c 0,22,23
 1180 -198 1180 -198 1178 -256 c 0,24,25
 1176 -307 1176 -307 1136 -361 c 0,26,27
 1082 -434 1082 -434 995 -490 c 128,-1,28
 908 -546 908 -546 787 -569 c 0,29,30
 703 -584 703 -584 592 -578 c 1,31,32
 350 -578 350 -578 121 -399 c 0,33,34
 -39 -273 -39 -273 -78 -85 c 0,35,36
 -89 -32 -89 -32 -89 22 c 0,37,38
 -89 179 -89 179 -16 317 c 2,39,-1
 -1 345 l 1,40,41
 122 560 122 560 369 721 c 0,42,43
 431 761 431 761 490 791 c 1,44,45
 545 810 545 810 562 800 c 0,46,47
 591 782 591 782 432 669 c 0,48,49
 375 629 375 629 295 577 c 1,0,1
231 600 m 1,50,-1
 255 623 l 2,51,52
 331 699 331 699 417 759 c 0,53,54
 455 786 455 786 496 810 c 0,55,56
 633 891 633 891 734 891 c 0,57,58
 880 891 880 891 972 770 c 0,59,60
 989 747 989 747 1001 724 c 0,61,62
 1040 650 1040 650 1040 569 c 0,63,64
 1040 378 1040 378 894 209 c 0,65,66
 824 128 824 128 732 68 c 0,67,68
 607 -14 607 -14 484 -14 c 0,69,70
 357 -14 357 -14 335 64 c 0,71,72
 332 77 332 77 332 91 c 0,73,74
 332 146 332 146 377 188 c 0,75,76
 416 223 416 223 467 223 c 0,77,78
 513 223 513 223 547 189 c 0,79,80
 576 160 576 160 589 153 c 0,81,82
 606 146 606 146 627 146 c 0,83,84
 785 146 785 146 842 292 c 0,85,86
 866 354 866 354 866 428 c 0,87,88
 866 577 866 577 755 669 c 0,89,90
 729 691 729 691 703 704 c 0,91,92
 648 731 648 731 591 731 c 1,93,94
 520 717 520 717 449 680.5 c 128,-1,95
 378 644 378 644 319.5 596 c 128,-1,96
 261 548 261 548 213.5 493.5 c 128,-1,97
 166 439 166 439 134 383 c 0,98,99
 1 164 1 164 0 186 c 0,100,101
 0 209 0 209 103 392 c 0,102,103
 178 526 178 526 231 600 c 1,50,-1
EndSplineSet
Validated: 37
EndChar

StartChar: f
Encoding: 102 102 52
Width: 908
Flags: W
LayerCount: 2
Fore
SplineSet
-1114 -877 m 0,0,1
 -1103 -877 -1103 -877 -1101 -890 c 0,2,3
 -1101 -908 -1101 -908 -1131 -943 c 0,4,5
 -1175 -994 -1175 -994 -1185 -1042 c 0,6,7
 -1190 -1064 -1190 -1064 -1190 -1089 c 0,8,9
 -1190 -1195 -1190 -1195 -1115 -1283 c 0,10,11
 -1033 -1379 -1033 -1379 -897 -1396 c 0,12,13
 -884 -1398 -884 -1398 -849 -1398 c 0,14,15
 -550 -1398 -550 -1398 -375 -1186 c 0,16,17
 -362 -1170 -362 -1170 -346 -1149 c 0,18,19
 -231 -996 -231 -996 -128 -739 c 0,20,21
 -47 -536 -47 -536 90 -113 c 2,22,-1
 361 724 l 2,23,24
 480 1094 480 1094 505 1167 c 0,25,26
 722 1787 722 1787 1007 2180 c 0,27,28
 1093 2298 1093 2298 1187 2400 c 0,29,30
 1370 2597 1370 2597 1434 2605 c 0,31,32
 1450 2605 1450 2605 1450 2592 c 0,33,34
 1450 2558 1450 2558 1380 2493 c 0,35,36
 970 2117 970 2117 672 1267 c 0,37,38
 644 1186 644 1186 536 847 c 2,39,-1
 261 -1 l 1,40,41
 63 -644 63 -644 -102 -936 c 0,42,43
 -185 -1083 -185 -1083 -295 -1208 c 0,44,45
 -519 -1462 -519 -1462 -797 -1534 c 0,46,47
 -893 -1558 -893 -1558 -990 -1558 c 0,48,49
 -1163 -1558 -1163 -1558 -1270 -1450 c 0,50,51
 -1364 -1355 -1364 -1355 -1364 -1221 c 128,-1,52
 -1364 -1087 -1364 -1087 -1251 -967 c 0,53,54
 -1186 -898 -1186 -898 -1131 -880 c 0,55,56
 -1121 -877 -1121 -877 -1114 -877 c 0,0,1
1156 807 m 0,57,58
 1349 807 1349 807 1451 886 c 2,59,-1
 1505 929 l 2,60,61
 1523 941 1523 941 1540 941 c 0,62,63
 1553 941 1553 941 1553 931 c 0,64,65
 1553 906 1553 906 1504 862 c 0,66,67
 1340 714 1340 714 1133 689 c 0,68,69
 1089 684 1089 684 1041 684 c 0,70,71
 906 684 906 684 676 728 c 0,72,73
 454 770 454 770 349 776 c 0,74,75
 316 778 316 778 285 778 c 0,76,77
 90 778 90 778 -11 700 c 2,78,-1
 -66 656 l 2,79,80
 -84 644 -84 644 -102 644 c 0,81,82
 -113 644 -113 644 -113 654 c 0,83,84
 -113 683 -113 683 -51 738 c 0,85,86
 64 840 64 840 229 881 c 0,87,88
 312 901 312 901 397 901 c 0,89,90
 525 901 525 901 754 858 c 0,91,92
 983 814 983 814 1093 809 c 0,93,94
 1125 807 1125 807 1156 807 c 0,57,58
EndSplineSet
Validated: 5
EndChar

StartChar: g
Encoding: 103 103 53
Width: 1253
Flags: W
LayerCount: 2
Fore
SplineSet
406 -17 m 0,0,1
 283 -17 283 -17 195 73 c 0,2,3
 100 169 100 169 100 316 c 0,4,5
 100 542 100 542 328 744 c 0,6,7
 476 876 476 876 629 888 c 1,8,-1
 659 888 l 2,9,10
 795 888 795 888 812 797 c 0,11,12
 814 787 814 787 814 775 c 0,13,14
 814 720 814 720 768 678 c 0,15,16
 730 642 730 642 678 642 c 0,17,18
 634 642 634 642 596 683 c 0,19,20
 565 716 565 716 552 722 c 0,21,22
 540 729 540 729 527 729 c 0,23,24
 523 729 523 729 509 728 c 0,25,26
 383 728 383 728 327 634 c 0,27,28
 313 612 313 612 301 581 c 0,29,30
 275 515 275 515 275 447 c 0,31,32
 275 350 275 350 326 269 c 0,33,34
 377 189 377 189 468 157 c 0,35,36
 506 144 506 144 549 144 c 0,37,38
 645 144 645 144 748 221 c 0,39,40
 807 266 807 266 857 332 c 0,41,42
 901 390 901 390 975 532 c 0,43,44
 1048 670 1048 670 1103 730 c 0,45,46
 1145 777 1145 777 1196 806 c 0,47,48
 1223 821 1223 821 1239 821 c 0,49,50
 1253 821 1253 821 1253 806 c 0,51,52
 1253 784 1253 784 1207 733 c 0,53,54
 1187 711 1187 711 1182 703 c 0,55,56
 1130 623 1130 623 1024 317 c 0,57,58
 953 113 953 113 930 59 c 0,59,60
 597 -705 597 -705 -185 -1498 c 1,61,-1
 -471 -1777 l 1,62,63
 -705 -1997 -705 -1997 -781 -2061 c 0,64,65
 -829 -2099 -829 -2099 -862 -2102 c 0,66,67
 -877 -2102 -877 -2102 -877 -2089 c 0,68,69
 -877 -2054 -877 -2054 -792 -1978 c 2,70,-1
 -477 -1686 l 1,71,72
 521 -733 521 -733 819 100 c 1,73,-1
 862 228 l 1,74,75
 747 131 747 131 694 94 c 0,76,77
 533 -17 533 -17 406 -17 c 0,0,1
EndSplineSet
Validated: 1
EndChar

StartChar: h
Encoding: 104 104 54
Width: 1259
Flags: W
LayerCount: 2
Fore
SplineSet
-19 -16 m 4,0,1
 -35 -16 -35 -16 -35 -3 c 4,2,3
 -35 14 -35 14 -16 36 c 4,4,5
 43 101 43 101 93 217 c 4,6,7
 132 307 132 307 173 436 c 4,8,9
 395 1137 395 1137 451 1290 c 4,10,11
 485 1381 485 1381 533 1490 c 4,12,13
 738 1958 738 1958 1025 2272 c 4,14,15
 1214 2478 1214 2478 1276 2478 c 4,16,17
 1290 2478 1290 2478 1290 2465 c 4,18,19
 1290 2436 1290 2436 1222 2368 c 4,20,21
 1124 2271 1124 2271 1116 2263 c 6,22,-1
 1094 2238 l 6,23,24
 925 2045 925 2045 803 1806 c 4,25,26
 617 1444 617 1444 401 730 c 5,27,-1
 361 607 l 6,28,29
 360 602 360 602 360 597 c 5,30,-1
 360 597 l 5,31,32
 364 597 364 597 421 651 c 4,33,34
 675 888 675 888 868 888 c 4,35,36
 1002 888 1002 888 1089 791 c 4,37,38
 1173 698 1173 698 1173 557 c 4,39,40
 1173 389 1173 389 1044 227 c 4,41,42
 932 88 932 88 783 22 c 4,43,44
 696 -16 696 -16 617 -16 c 4,45,46
 485 -16 485 -16 467 67 c 4,47,48
 464 78 464 78 464 89 c 4,49,50
 464 141 464 141 508 183 c 4,51,52
 547 221 547 221 597 221 c 4,53,54
 645 221 645 221 677 188 c 4,55,56
 705 160 705 160 718 154 c 4,57,58
 738 144 738 144 766 144 c 4,59,60
 896 144 896 144 953 248 c 4,61,62
 963 267 963 267 973 292 c 4,63,64
 999 359 999 359 999 426 c 4,65,66
 999 572 999 572 895 662 c 4,67,68
 832 716 832 716 757 727 c 4,69,70
 746 728 746 728 726 728 c 4,71,72
 568 728 568 728 401 527 c 4,73,74
 306 412 306 412 236 267 c 4,75,76
 151 89 151 89 49 14 c 4,77,78
 8 -16 8 -16 -19 -16 c 4,0,1
EndSplineSet
Validated: 5
EndChar

StartChar: i
Encoding: 105 105 55
Width: 524
Flags: W
LayerCount: 2
Fore
SplineSet
-42 675 m 0,0,1
 -42 705 -42 705 13 761 c 0,2,3
 116 862 116 862 267 895 c 0,4,5
 306 903 306 903 346 906 c 2,6,-1
 375 906 l 2,7,8
 462 906 462 906 500 825 c 0,9,10
 521 781 521 781 521 723 c 0,11,12
 521 628 521 628 452 444 c 0,13,14
 361 201 361 201 244 75 c 0,15,16
 175 0 175 0 125 -14 c 0,17,18
 118 -16 118 -16 112 -16 c 0,19,20
 96 -16 96 -16 96 -3 c 0,21,22
 96 17 96 17 147 78 c 0,23,24
 164 98 164 98 169 106 c 0,25,26
 255 234 255 234 315 435 c 0,27,28
 347 540 347 540 347 590 c 0,29,30
 347 689 347 689 286 729 c 0,31,32
 260 747 260 747 226 747 c 0,33,34
 117 747 117 747 42 695 c 0,35,36
 1 667 1 667 -11 664 c 0,37,38
 -18 662 -18 662 -26 662 c 0,39,40
 -42 662 -42 662 -42 675 c 0,0,1
476 1188 m 0,41,42
 455 1188 455 1188 449 1212 c 0,43,44
 448 1217 448 1217 448 1223 c 0,45,46
 448 1253 448 1253 480 1454 c 0,47,48
 492 1531 492 1531 500 1562 c 0,49,50
 524 1659 524 1659 586 1659 c 0,51,52
 626 1659 626 1659 645 1619 c 0,53,54
 653 1601 653 1601 653 1578 c 0,55,56
 653 1526 653 1526 554 1310 c 2,57,-1
 524 1245 l 2,58,59
 507 1209 507 1209 504 1204 c 0,60,61
 492 1188 492 1188 476 1188 c 0,41,42
243 1461 m 0,62,63
 243 1503 243 1503 274 1519 c 0,64,65
 287 1525 287 1525 304 1525 c 0,66,67
 379 1523 379 1523 407 1369 c 0,68,69
 416 1317 416 1317 416 1275 c 0,70,71
 416 1075 416 1075 367 1075 c 0,72,73
 344 1075 344 1075 336 1109 c 2,74,-1
 314 1242 l 1,75,76
 296 1326 296 1326 259 1404 c 0,77,78
 243 1438 243 1438 243 1461 c 0,62,63
494 1099 m 1,79,80
 494 1127 494 1127 558 1229 c 0,81,82
 652 1377 652 1377 726 1420 c 0,83,84
 749 1433 749 1433 767 1433 c 0,85,86
 806 1433 806 1433 820 1396 c 0,87,88
 824 1385 824 1385 824 1373 c 0,89,90
 824 1345 824 1345 794 1312 c 0,91,92
 769 1284 769 1284 699 1223 c 0,93,94
 651 1181 651 1181 572 1100 c 0,95,96
 542 1069 542 1069 521 1068 c 1,97,98
 498 1076 498 1076 494 1099 c 1,79,80
EndSplineSet
Validated: 1
EndChar

StartChar: j
Encoding: 106 106 56
Width: 584
Flags: W
LayerCount: 2
Fore
SplineSet
24 675 m 0,0,1
 24 704 24 704 78 759 c 0,2,3
 178 861 178 861 324 894 c 0,4,5
 366 904 366 904 410 906 c 0,6,7
 486 910 486 910 521 883 c 0,8,9
 546 865 546 865 565 828 c 0,10,11
 588 784 588 784 588 727 c 0,12,13
 588 585 588 585 421 226 c 0,14,15
 368 110 368 110 306 -5 c 0,16,17
 -246 -1039 -246 -1039 -913 -1768 c 1,18,-1
 -1007 -1869 l 2,19,20
 -1077 -1946 -1077 -1946 -1264 -2122 c 0,21,22
 -1339 -2193 -1339 -2193 -1366 -2215 c 0,23,24
 -1415 -2255 -1415 -2255 -1444 -2255 c 0,25,26
 -1459 -2255 -1459 -2255 -1459 -2241 c 0,27,28
 -1459 -2213 -1459 -2213 -1397 -2152 c 2,29,-1
 -1211 -1974 l 1,30,-1
 -1187 -1951 l 1,31,32
 -473 -1239 -473 -1239 138 -103 c 0,33,34
 332 257 332 257 393 478 c 0,35,36
 414 551 414 551 414 595 c 0,37,38
 414 669 414 669 373 713 c 0,39,40
 341 746 341 746 291 746 c 0,41,42
 182 746 182 746 107 695 c 0,43,44
 67 667 67 667 56 664 c 0,45,46
 48 662 48 662 40 662 c 0,47,48
 24 662 24 662 24 675 c 0,0,1
565 1219 m 0,49,50
 544 1219 544 1219 538 1243 c 0,51,52
 537 1248 537 1248 537 1254 c 0,53,54
 537 1284 537 1284 569 1485 c 0,55,56
 581 1562 581 1562 589 1593 c 0,57,58
 613 1690 613 1690 675 1690 c 0,59,60
 715 1690 715 1690 734 1650 c 0,61,62
 742 1632 742 1632 742 1609 c 0,63,64
 742 1557 742 1557 643 1341 c 2,65,-1
 613 1276 l 2,66,67
 596 1240 596 1240 593 1235 c 0,68,69
 581 1219 581 1219 565 1219 c 0,49,50
332 1492 m 0,70,71
 332 1534 332 1534 363 1550 c 0,72,73
 376 1556 376 1556 393 1556 c 0,74,75
 468 1554 468 1554 496 1400 c 0,76,77
 505 1348 505 1348 505 1306 c 0,78,79
 505 1106 505 1106 456 1106 c 0,80,81
 433 1106 433 1106 425 1140 c 2,82,-1
 403 1273 l 1,83,84
 385 1357 385 1357 348 1435 c 0,85,86
 332 1469 332 1469 332 1492 c 0,70,71
583 1130 m 0,87,88
 583 1158 583 1158 647 1260 c 0,89,90
 741 1408 741 1408 815 1451 c 0,91,92
 838 1464 838 1464 856 1464 c 0,93,94
 895 1464 895 1464 909 1427 c 0,95,96
 913 1416 913 1416 913 1404 c 0,97,98
 913 1376 913 1376 883 1343 c 0,99,100
 858 1315 858 1315 788 1254 c 0,101,102
 740 1212 740 1212 661 1131 c 0,103,104
 631 1100 631 1100 610 1099 c 1,105,106
 587 1107 587 1107 583 1130 c 0,87,88
EndSplineSet
Validated: 33
EndChar

StartChar: k
Encoding: 107 107 57
Width: 1259
Flags: W
LayerCount: 2
Fore
SplineSet
-19 -16 m 0,0,1
 -35 -16 -35 -16 -35 -3 c 0,2,3
 -35 14 -35 14 -16 36 c 0,4,5
 43 101 43 101 93 217 c 0,6,7
 132 307 132 307 173 436 c 0,8,9
 395 1137 395 1137 451 1290 c 0,10,11
 485 1381 485 1381 533 1490 c 0,12,13
 738 1958 738 1958 1025 2272 c 0,14,15
 1214 2478 1214 2478 1276 2478 c 0,16,17
 1290 2478 1290 2478 1290 2465 c 0,18,19
 1290 2436 1290 2436 1222 2368 c 0,20,21
 1124 2271 1124 2271 1116 2263 c 2,22,-1
 1094 2238 l 2,23,24
 925 2045 925 2045 803 1806 c 0,25,26
 617 1444 617 1444 401 730 c 1,27,-1
 361 607 l 2,28,29
 360 602 360 602 360 597 c 1,30,-1
 360 597 l 1,31,32
 364 597 364 597 421 651 c 0,33,34
 675 888 675 888 868 888 c 0,35,36
 1002 888 1002 888 1089 791 c 0,37,38
 1173 698 1173 698 1173 557 c 0,39,40
 1173 389 1173 389 1044 227 c 0,41,42
 932 88 932 88 783 22 c 0,43,44
 696 -16 696 -16 617 -16 c 0,45,46
 485 -16 485 -16 467 67 c 0,47,48
 464 78 464 78 464 89 c 0,49,50
 464 141 464 141 508 183 c 0,51,52
 547 221 547 221 597 221 c 0,53,54
 645 221 645 221 677 188 c 0,55,56
 705 160 705 160 718 154 c 0,57,58
 738 144 738 144 766 144 c 0,59,60
 896 144 896 144 953 248 c 0,61,62
 963 267 963 267 973 292 c 0,63,64
 999 359 999 359 999 426 c 0,65,66
 999 572 999 572 895 662 c 0,67,68
 832 716 832 716 757 727 c 0,69,70
 746 728 746 728 726 728 c 0,71,72
 568 728 568 728 401 527 c 0,73,74
 306 412 306 412 236 267 c 0,75,76
 151 89 151 89 49 14 c 0,77,78
 8 -16 8 -16 -19 -16 c 0,0,1
342 527 m 0,79,80
 312 526 312 526 307 554 c 1,81,82
 307 601 307 601 951 1138 c 2,83,-1
 1106 1267 l 2,84,85
 1155 1307 1155 1307 1193 1307 c 0,86,87
 1240 1307 1240 1307 1255 1272 c 0,88,89
 1259 1262 1259 1262 1259 1251 c 0,90,91
 1259 1222 1259 1222 1219 1186 c 0,92,93
 1206 1174 1206 1174 1059 1055 c 0,94,95
 582 673 582 673 404 558 c 0,96,97
 355 527 355 527 342 527 c 0,79,80
EndSplineSet
Validated: 5
EndChar

StartChar: m
Encoding: 109 109 58
Width: 2020
Flags: W
LayerCount: 2
Fore
SplineSet
-64 675 m 0,0,1
 -64 705 -64 705 -9 761 c 0,2,3
 94 862 94 862 245 895 c 0,4,5
 284 903 284 903 324 906 c 2,6,-1
 353 906 l 2,7,8
 440 906 440 906 478 825 c 0,9,10
 499 781 499 781 499 723 c 0,11,12
 499 674 499 674 488 634 c 0,13,14
 487 630 487 630 486 628 c 1,15,16
 488 628 488 628 540 678 c 0,17,18
 731 863 731 863 886 886 c 0,19,20
 900 888 900 888 925 888 c 0,21,22
 1056 888 1056 888 1135 771 c 0,23,24
 1186 696 1186 696 1197 599 c 1,25,26
 1319 740 1319 740 1452 820 c 0,27,28
 1566 889 1566 889 1659 889 c 0,29,30
 1764 889 1764 889 1842 804 c 0,31,32
 1904 738 1904 738 1925 637 c 0,33,34
 1932 604 1932 604 1932 564 c 0,35,36
 1932 387 1932 387 1800 220 c 0,37,38
 1692 82 1692 82 1551 19 c 0,39,40
 1473 -16 1473 -16 1405 -16 c 0,41,42
 1279 -16 1279 -16 1257 62 c 0,43,44
 1253 75 1253 75 1253 90 c 0,45,46
 1253 142 1253 142 1296 183 c 0,47,48
 1335 221 1335 221 1389 221 c 0,49,50
 1436 221 1436 221 1469 187 c 0,51,52
 1497 158 1497 158 1509 152 c 0,53,54
 1527 143 1527 143 1551 143 c 0,55,56
 1623 143 1623 143 1662 178 c 0,57,58
 1675 189 1675 189 1686 204 c 0,59,60
 1757 306 1757 306 1757 430 c 0,61,62
 1757 579 1757 579 1655 670 c 0,63,64
 1628 695 1628 695 1601 708 c 0,65,66
 1559 729 1559 729 1514 729 c 0,67,68
 1360 729 1360 729 1217 481 c 0,69,70
 1201 453 1201 453 1145 343 c 0,71,72
 1121 296 1121 296 1090 252 c 0,73,74
 1007 136 1007 136 895 61 c 0,75,76
 804 -1 804 -1 715 -14 c 0,77,78
 702 -16 702 -16 674 -16 c 0,79,80
 537 -16 537 -16 522 71 c 0,81,82
 520 80 520 80 520 90 c 0,83,84
 520 141 520 141 564 184 c 0,85,86
 602 221 602 221 653 221 c 0,87,88
 699 221 699 221 737 185 c 0,89,90
 768 155 768 155 783 149 c 0,91,92
 796 144 796 144 811 144 c 0,93,94
 815 144 815 144 820 144 c 0,95,96
 909 144 909 144 953 205 c 0,97,98
 965 220 965 220 981 251 c 0,99,100
 1024 338 1024 338 1024 430 c 0,101,102
 1024 552 1024 552 953 640 c 0,103,104
 924 676 924 676 886 698 c 0,105,106
 835 729 835 729 779 729 c 0,107,108
 636 729 636 729 477 486 c 0,109,110
 439 428 439 428 335 241 c 0,111,112
 291 161 291 161 267 129 c 0,113,114
 175 6 175 6 107 -14 c 0,115,116
 98 -16 98 -16 90 -16 c 0,117,118
 74 -16 74 -16 74 -3 c 0,119,120
 74 17 74 17 125 78 c 0,121,122
 142 98 142 98 147 106 c 0,123,124
 233 234 233 234 293 435 c 0,125,126
 325 540 325 540 325 590 c 0,127,128
 325 689 325 689 264 729 c 0,129,130
 238 747 238 747 204 747 c 0,131,132
 95 747 95 747 20 695 c 0,133,134
 -21 667 -21 667 -33 664 c 0,135,136
 -40 662 -40 662 -48 662 c 0,137,138
 -64 662 -64 662 -64 675 c 0,0,1
EndSplineSet
Validated: 1
EndChar

StartChar: n
Encoding: 110 110 59
Width: 1261
Flags: W
LayerCount: 2
Fore
SplineSet
-174 675 m 0,0,1
 -174 705 -174 705 -119 761 c 0,2,3
 -16 862 -16 862 135 895 c 0,4,5
 174 903 174 903 214 906 c 2,6,-1
 243 906 l 2,7,8
 330 906 330 906 368 825 c 0,9,10
 389 781 389 781 389 723 c 0,11,12
 389 682 389 682 369 598 c 1,13,-1
 393 621 l 2,14,15
 503 731 503 731 634 808 c 0,16,17
 771 889 771 889 872 889 c 0,18,19
 1018 889 1018 889 1110 768 c 0,20,21
 1127 745 1127 745 1139 722 c 0,22,23
 1178 648 1178 648 1178 567 c 0,24,25
 1178 376 1178 376 1032 207 c 0,26,27
 962 126 962 126 870 66 c 0,28,29
 745 -16 745 -16 622 -16 c 0,30,31
 495 -16 495 -16 473 62 c 0,32,33
 470 75 470 75 470 89 c 0,34,35
 470 144 470 144 515 186 c 0,36,37
 554 221 554 221 605 221 c 0,38,39
 651 221 651 221 685 187 c 0,40,41
 714 158 714 158 727 151 c 0,42,43
 744 144 744 144 765 144 c 0,44,45
 923 144 923 144 980 290 c 0,46,47
 1004 352 1004 352 1004 426 c 0,48,49
 1004 575 1004 575 893 667 c 0,50,51
 867 689 867 689 841 702 c 0,52,53
 786 729 786 729 729 729 c 0,54,55
 637 729 637 729 534 653 c 0,56,57
 515 638 515 638 492 619 c 0,58,59
 389 534 389 534 290 358 c 2,60,-1
 194 186 l 2,61,62
 175 153 175 153 157 129 c 0,63,64
 65 6 65 6 -3 -14 c 0,65,66
 -12 -16 -12 -16 -20 -16 c 0,67,68
 -36 -16 -36 -16 -36 -3 c 0,69,70
 -36 17 -36 17 15 78 c 0,71,72
 32 98 32 98 37 106 c 0,73,74
 123 234 123 234 183 435 c 0,75,76
 215 540 215 540 215 590 c 0,77,78
 215 689 215 689 154 729 c 0,79,80
 128 747 128 747 94 747 c 0,81,82
 -15 747 -15 747 -90 695 c 0,83,84
 -131 667 -131 667 -143 664 c 0,85,86
 -150 662 -150 662 -158 662 c 0,87,88
 -174 662 -174 662 -174 675 c 0,0,1
EndSplineSet
Validated: 1
EndChar

StartChar: o
Encoding: 111 111 60
Width: 938
Flags: W
LayerCount: 2
Fore
SplineSet
17 328 m 0,0,1
 17 513 17 513 170 674 c 0,2,3
 294 803 294 803 457 860 c 0,4,5
 539 888 539 888 610 888 c 0,6,7
 761 888 761 888 848 778 c 0,8,9
 921 685 921 685 921 546 c 0,10,11
 921 359 921 359 766 196 c 0,12,13
 683 110 683 110 575 52 c 0,14,15
 446 -16 446 -16 314 -16 c 0,16,17
 175 -16 175 -16 91 93 c 0,18,19
 17 188 17 188 17 328 c 0,0,1
191 459 m 0,20,21
 191 320 191 320 275 227 c 0,22,23
 351 143 351 143 458 143 c 0,24,25
 542 143 542 143 617 174 c 0,26,27
 657 189 657 189 679 211 c 0,28,29
 739 269 739 269 746 394 c 0,30,31
 747 405 747 405 747 414 c 0,32,33
 747 560 747 560 660 650 c 0,34,35
 585 728 585 728 472 728 c 0,36,37
 399 728 399 728 323 699 c 0,38,39
 269 678 269 678 247 647 c 0,40,41
 191 571 191 571 191 459 c 0,20,21
EndSplineSet
Validated: 1
EndChar

StartChar: p
Encoding: 112 112 61
Width: 1271
Flags: W
LayerCount: 2
Fore
SplineSet
-174 675 m 4,0,1
 -174 704 -174 704 -120 759 c 4,2,3
 -20 861 -20 861 126 894 c 4,4,5
 168 904 168 904 212 906 c 4,6,7
 288 910 288 910 323 883 c 4,8,9
 348 865 348 865 367 828 c 4,10,11
 390 783 390 783 390 726 c 4,12,13
 390 668 390 668 367 599 c 5,14,15
 368 599 368 599 399 628 c 4,16,17
 456 684 456 684 548 751 c 4,18,19
 743 886 743 886 875 889 c 4,20,21
 999 889 999 889 1086 799 c 4,22,23
 1179 704 1179 704 1179 552 c 4,24,25
 1179 414 1179 414 1074 262 c 132,-1,26
 969 110 969 110 821 35 c 4,27,28
 721 -16 721 -16 623 -16 c 4,29,30
 480 -16 480 -16 471 77 c 4,31,32
 470 83 470 83 470 89 c 4,33,34
 470 133 470 133 502 173 c 4,35,36
 539 219 539 219 605 221 c 4,37,38
 652 222 652 222 685 189 c 4,39,40
 712 160 712 160 724 154 c 4,41,42
 743 144 743 144 770 144 c 4,43,44
 917 144 917 144 977 283 c 4,45,46
 1005 348 1005 348 1005 421 c 4,47,48
 1005 563 1005 563 913 653 c 4,49,50
 836 728 836 728 733 728 c 4,51,52
 588 728 588 728 434 563 c 4,53,54
 318 437 318 437 242 266 c 4,55,56
 83 -93 83 -93 -211 -565 c 4,57,58
 -639 -1253 -639 -1253 -1111 -1768 c 5,59,-1
 -1205 -1869 l 6,60,61
 -1275 -1946 -1275 -1946 -1462 -2122 c 4,62,63
 -1537 -2193 -1537 -2193 -1564 -2215 c 4,64,65
 -1613 -2255 -1613 -2255 -1642 -2255 c 4,66,67
 -1657 -2255 -1657 -2255 -1657 -2241 c 4,68,69
 -1657 -2213 -1657 -2213 -1595 -2152 c 6,70,-1
 -1409 -1974 l 5,71,-1
 -1385 -1951 l 5,72,73
 -671 -1239 -671 -1239 -60 -103 c 4,74,75
 134 257 134 257 195 478 c 4,76,77
 216 551 216 551 216 595 c 4,78,79
 216 669 216 669 175 713 c 4,80,81
 143 746 143 746 93 746 c 4,82,83
 -16 746 -16 746 -91 695 c 4,84,85
 -131 667 -131 667 -142 664 c 4,86,87
 -150 662 -150 662 -158 662 c 4,88,89
 -174 662 -174 662 -174 675 c 4,0,1
EndSplineSet
Validated: 33
EndChar

StartChar: q
Encoding: 113 113 62
Width: 1314
Flags: W
LayerCount: 2
Fore
SplineSet
368 139 m 5,0,1
 304 243 304 243 298 352 c 4,2,3
 298 366 298 366 298 381 c 4,4,5
 298 566 298 566 446 713 c 4,6,7
 563 830 563 830 717 872 c 4,8,9
 777 889 777 889 830 889 c 4,10,11
 1004 889 1004 889 1089 718 c 4,12,13
 1102 692 1102 692 1112 664 c 5,14,-1
 1167 730 l 6,15,16
 1195 760 1195 760 1223 782 c 4,17,18
 1272 821 1272 821 1300 821 c 4,19,20
 1303 821 1303 821 1305 820 c 4,21,22
 1314 820 1314 820 1314 806 c 4,23,24
 1314 786 1314 786 1291 760 c 4,25,26
 1237 698 1237 698 1200 623 c 4,27,28
 1183 587 1183 587 1166 545 c 4,29,30
 1153 513 1153 513 1077 291 c 4,31,32
 964 -39 964 -39 808 -313 c 4,33,34
 429 -981 429 -981 -410 -1777 c 4,35,36
 -596 -1955 -596 -1955 -713 -2056 c 4,37,38
 -720 -2061 -720 -2061 -723 -2064 c 4,39,40
 -772 -2102 -772 -2102 -800 -2102 c 4,41,42
 -815 -2102 -815 -2102 -815 -2089 c 4,43,44
 -815 -2056 -815 -2056 -731 -1978 c 6,45,-1
 -518 -1783 l 5,46,47
 -134 -1423 -134 -1423 118 -1130 c 4,48,49
 570 -604 570 -604 804 -87 c 4,50,51
 839 -9 839 -9 839 -4 c 4,52,53
 839 2 839 2 668 12 c 4,54,55
 586 17 586 17 527 17 c 4,56,57
 467 17 467 17 311 0 c 4,58,59
 234 -8 234 -8 180 -8 c 4,60,61
 85 -8 85 -8 -2 10 c 4,62,63
 -69 23 -69 23 -69 42 c 4,64,65
 -69 82 -69 82 -2 133 c 4,66,67
 45 170 45 170 68 170 c 5,68,-1
 167 146 l 6,69,70
 229 135 229 135 297 135 c 4,71,72
 348 135 348 135 368 139 c 5,0,1
975 432 m 4,73,74
 975 585 975 585 883 673 c 4,75,76
 808 745 808 745 698 745 c 4,77,78
 526 745 526 745 473 608 c 4,79,80
 453 558 453 558 453 498 c 4,81,82
 453 319 453 319 552 226 c 4,83,84
 622 162 622 162 724 159 c 4,85,86
 802 157 802 157 869 150 c 6,87,-1
 897 148 l 5,88,-1
 948 302 l 6,89,90
 972 377 972 377 974 396 c 4,91,92
 975 409 975 409 975 432 c 4,73,74
EndSplineSet
Validated: 1
EndChar

StartChar: r
Encoding: 114 114 63
Width: 816
Flags: W
LayerCount: 2
Fore
SplineSet
-135 675 m 0,0,1
 -135 705 -135 705 -80 761 c 0,2,3
 23 862 23 862 174 895 c 0,4,5
 213 903 213 903 253 906 c 2,6,-1
 282 906 l 2,7,8
 369 906 369 906 407 825 c 0,9,10
 428 781 428 781 428 723 c 0,11,12
 428 682 428 682 408 598 c 0,13,14
 402 575 402 575 401 565.5 c 128,-1,15
 400 556 400 556 399 550 c 128,-1,16
 398 544 398 544 382 498.5 c 128,-1,17
 366 453 366 453 329 358 c 1,18,-1
 233 186 l 2,19,20
 214 153 214 153 196 129 c 0,21,22
 104 6 104 6 36 -14 c 0,23,24
 27 -16 27 -16 19 -16 c 0,25,26
 3 -16 3 -16 3 -3 c 0,27,28
 3 17 3 17 54 78 c 0,29,30
 71 98 71 98 76 106 c 0,31,32
 162 234 162 234 222 435 c 0,33,34
 254 540 254 540 254 590 c 0,35,36
 254 689 254 689 193 729 c 0,37,38
 167 747 167 747 133 747 c 0,39,40
 24 747 24 747 -51 695 c 0,41,42
 -92 667 -92 667 -104 664 c 0,43,44
 -111 662 -111 662 -119 662 c 0,45,46
 -135 662 -135 662 -135 675 c 0,0,1
457 779 m 1,47,48
 591 866 591 866 719 877 c 0,49,50
 735 878 735 878 750 878 c 0,51,52
 832 878 832 878 870 858 c 0,53,54
 902 842 902 842 917 811 c 0,55,56
 926 792 926 792 926 767 c 0,57,58
 926 681 926 681 843 645 c 0,59,60
 814 632 814 632 792 632 c 0,61,62
 747 632 747 632 715 667 c 0,63,64
 687 698 687 698 677 705 c 0,65,66
 655 719 655 719 623 719 c 0,67,68
 528 719 528 719 451 682 c 0,69,70
 419 666 419 666 398 645 c 1,71,72
 327 631 327 631 289 640 c 0,73,74
 225 656 225 656 395 747 c 0,75,76
 423 762 423 762 457 779 c 1,47,48
EndSplineSet
Validated: 37
EndChar

StartChar: s
Encoding: 115 115 64
Width: 542
Flags: W
LayerCount: 2
Fore
SplineSet
-1210 -877 m 0,0,1
 -1199 -877 -1199 -877 -1197 -890 c 0,2,3
 -1197 -908 -1197 -908 -1227 -943 c 0,4,5
 -1271 -994 -1271 -994 -1281 -1042 c 0,6,7
 -1286 -1064 -1286 -1064 -1286 -1089 c 0,8,9
 -1286 -1195 -1286 -1195 -1211 -1283 c 0,10,11
 -1129 -1379 -1129 -1379 -993 -1396 c 0,12,13
 -980 -1398 -980 -1398 -945 -1398 c 0,14,15
 -646 -1398 -646 -1398 -471 -1186 c 0,16,17
 -458 -1170 -458 -1170 -442 -1149 c 0,18,19
 -327 -996 -327 -996 -224 -739 c 0,20,21
 -143 -536 -143 -536 -6 -113 c 2,22,-1
 265 724 l 2,23,24
 384 1094 384 1094 409 1167 c 0,25,26
 626 1787 626 1787 911 2180 c 0,27,28
 997 2298 997 2298 1091 2400 c 0,29,30
 1274 2597 1274 2597 1338 2605 c 0,31,32
 1354 2605 1354 2605 1354 2592 c 0,33,34
 1354 2558 1354 2558 1284 2493 c 0,35,36
 874 2117 874 2117 576 1267 c 0,37,38
 548 1186 548 1186 440 847 c 2,39,-1
 165 -1 l 1,40,41
 -33 -644 -33 -644 -198 -936 c 0,42,43
 -281 -1083 -281 -1083 -391 -1208 c 0,44,45
 -615 -1462 -615 -1462 -893 -1534 c 0,46,47
 -989 -1558 -989 -1558 -1086 -1558 c 0,48,49
 -1259 -1558 -1259 -1558 -1366 -1450 c 0,50,51
 -1460 -1355 -1460 -1355 -1460 -1221 c 128,-1,52
 -1460 -1087 -1460 -1087 -1347 -967 c 0,53,54
 -1282 -898 -1282 -898 -1227 -880 c 0,55,56
 -1217 -877 -1217 -877 -1210 -877 c 0,0,1
EndSplineSet
Validated: 1
Substitution2: "Single Substitution lookup 2 subtable" s.final
EndChar

StartChar: t
Encoding: 116 116 65
Width: 1055
Flags: W
LayerCount: 2
Fore
SplineSet
376 762 m 1,0,1
 372 766 372 766 287 766 c 0,2,3
 30 766 30 766 -133 628 c 0,4,5
 -186 582 -186 582 -216 582 c 0,6,7
 -233 582 -233 582 -233 598 c 0,8,9
 -233 628 -233 628 -163 693 c 0,10,11
 -38 807 -38 807 139 866 c 0,12,13
 243 901 243 901 349 908 c 0,14,15
 367 910 367 910 371 910 c 2,16,-1
 414 910 l 2,17,18
 468 909 468 909 675 883 c 0,19,20
 878 858 878 858 1020 858 c 0,21,22
 1104 858 1104 858 1168 889 c 0,23,24
 1193 901 1193 901 1207 901 c 0,25,26
 1224 901 1224 901 1224 885 c 0,27,28
 1224 845 1224 845 1164 798 c 0,29,30
 1064 720 1064 720 915 715 c 1,31,-1
 898 715 l 2,32,33
 752 715 752 715 581 737 c 0,34,35
 537 743 537 743 514 743 c 0,36,37
 418 743 418 743 359 629 c 0,38,39
 326 566 326 566 317 493 c 0,40,41
 315 473 315 473 315 443 c 0,42,43
 315 336 315 336 381 249 c 128,-1,44
 447 162 447 162 549 146 c 0,45,46
 558 144 558 144 591 144 c 0,47,48
 762 144 762 144 859 210 c 2,49,-1
 907 243 l 2,50,51
 923 252 923 252 939 252 c 0,52,53
 954 252 954 252 954 239 c 0,54,55
 954 207 954 207 895 150 c 0,56,57
 786 44 786 44 616 3 c 0,58,59
 534 -16 534 -16 446 -16 c 0,60,61
 295 -16 295 -16 210 96 c 0,62,63
 141 189 141 189 141 330 c 0,64,65
 141 499 141 499 295 679 c 0,66,67
 336 728 336 728 376 762 c 1,0,1
EndSplineSet
Validated: 1
EndChar

StartChar: u
Encoding: 117 117 66
Width: 1198
Flags: W
LayerCount: 2
Fore
SplineSet
-110 675 m 0,0,1
 -110 701 -110 701 -60 755 c 0,2,3
 38 860 38 860 186 893 c 0,4,5
 244 907 244 907 306 906 c 0,6,7
 399 905 399 905 420 807 c 0,8,9
 425 784 425 784 425 760 c 0,10,11
 425 690 425 690 369 557 c 0,12,13
 317 434 317 434 308 388 c 0,14,15
 304 364 304 364 304 343 c 0,16,17
 304 254 304 254 385 193 c 0,18,19
 451 144 451 144 526 144 c 0,20,21
 645 144 645 144 759 273 c 0,22,23
 788 306 788 306 813 344 c 0,24,25
 852 404 852 404 920 539 c 0,26,27
 979 655 979 655 1041 723 c 0,28,29
 1060 743 1060 743 1081 763 c 0,30,31
 1142 819 1142 819 1181 821 c 0,32,33
 1195 821 1195 821 1195 807 c 0,34,35
 1195 787 1195 787 1169 757 c 0,36,37
 1115 694 1115 694 1082 627 c 0,38,39
 1063 589 1063 589 1046 544 c 0,40,41
 984 376 984 376 984 201 c 1,42,-1
 986 140 l 2,43,44
 987 84 987 84 906 23 c 0,45,46
 854 -16 854 -16 829 -16 c 0,47,48
 815 -16 815 -16 812 -5 c 0,49,50
 810 6 810 6 810 60 c 0,51,52
 810 145 810 145 821 214 c 0,53,54
 822 223 822 223 822 231 c 1,55,56
 821 231 821 231 804 216 c 0,57,58
 662 74 662 74 521 15 c 0,59,60
 445 -16 445 -16 380 -16 c 0,61,62
 271 -16 271 -16 194 62 c 0,63,64
 143 112 143 112 132 175 c 0,65,66
 130 189 130 189 130 218 c 0,67,68
 130 269 130 269 189 424 c 0,69,70
 247 582 247 582 250 627 c 0,71,72
 250 694 250 694 212 727 c 0,73,74
 189 747 189 747 156 747 c 0,75,76
 49 747 49 747 -27 695 c 0,77,78
 -69 667 -69 667 -81 664 c 0,79,80
 -88 662 -88 662 -94 662 c 0,81,82
 -110 662 -110 662 -110 675 c 0,0,1
EndSplineSet
Validated: 33
EndChar

StartChar: v
Encoding: 118 118 67
Width: 1055
Flags: W
LayerCount: 2
Fore
SplineSet
465 760 m 1,0,1
 519 814 519 814 618 865 c 0,2,3
 735 926 735 926 829 926 c 0,4,5
 978 926 978 926 1008 827 c 0,6,7
 1017 797 1017 797 1017 754 c 0,8,9
 1017 544 1017 544 705 14 c 0,10,11
 692 -7 692 -7 678 -20.5 c 128,-1,12
 664 -34 664 -34 646.5 -39 c 128,-1,13
 629 -44 629 -44 619.5 -45.5 c 128,-1,14
 610 -47 610 -47 587.5 -46.5 c 128,-1,15
 565 -46 565 -46 559 -46 c 1,16,17
 447 56 447 56 384 277 c 1,18,-1
 314 550 l 1,19,20
 271 693 271 693 205 732 c 0,21,22
 196 738 196 738 185 742 c 0,23,24
 166 748 166 748 151 748 c 2,25,-1
 142 748 l 2,26,27
 77 748 77 748 7 699 c 0,28,29
 -38 667 -38 667 -55 665 c 0,30,31
 -58 664 -58 664 -62 664 c 0,32,33
 -78 664 -78 664 -78 677 c 0,34,35
 -78 719 -78 719 2 786 c 0,36,37
 105 872 105 872 218 899 c 0,38,39
 254 908 254 908 286 908 c 0,40,41
 385 908 385 908 445 801 c 0,42,43
 455 783 455 783 465 760 c 1,0,1
843 624 m 0,44,45
 843 745 843 745 728 763 c 0,46,47
 704 766 704 766 675 766 c 0,48,49
 585 767 585 767 490 689 c 1,50,51
 570 358 570 358 612 264 c 0,52,53
 637 209 637 209 675 161 c 1,54,55
 725 237 725 237 787 403 c 0,56,57
 843 554 843 554 843 624 c 0,44,45
EndSplineSet
Validated: 33
EndChar

StartChar: w
Encoding: 119 119 68
Width: 1894
Flags: W
LayerCount: 2
Fore
SplineSet
1497 64 m 0,0,1
 1497 166 1497 166 1508 218 c 1,2,-1
 1507 219 l 1,3,-1
 1475 190 l 2,4,5
 1432 148 1432 148 1367 99 c 0,6,7
 1213 -16 1213 -16 1096 -16 c 0,8,9
 996 -16 996 -16 918 59 c 0,10,11
 850 126 850 126 828 232 c 0,12,13
 825 232 825 232 800 206 c 0,14,15
 752 158 752 158 678 104 c 0,16,17
 512 -16 512 -16 381 -16 c 0,18,19
 282 -16 282 -16 205 60 c 0,20,21
 135 128 135 128 114 235 c 0,22,23
 106 269 106 269 106 310 c 0,24,25
 106 521 106 521 294 715 c 0,26,27
 422 848 422 848 558 880 c 0,28,29
 581 886 581 886 607 888 c 0,30,31
 610 888 610 888 620 888 c 0,32,33
 771 888 771 888 786 798 c 0,34,35
 788 787 788 787 788 775 c 0,36,37
 788 709 788 709 728 667 c 0,38,39
 692 642 692 642 653 642 c 0,40,41
 609 642 609 642 576 677 c 0,42,43
 548 708 548 708 538 715 c 0,44,45
 517 729 517 729 486 729 c 0,46,47
 399 729 399 729 357 675 c 0,48,49
 283 570 283 570 281 443 c 0,50,51
 281 335 281 335 344 246 c 0,52,53
 416 143 416 143 525 143 c 0,54,55
 628 143 628 143 715 222 c 0,56,57
 797 296 797 296 834 421 c 0,58,59
 883 588 883 588 1018 724 c 0,60,61
 1152 860 1152 860 1294 884 c 0,62,63
 1320 889 1320 889 1345 889 c 0,64,65
 1474 889 1474 889 1498 807 c 0,66,67
 1503 792 1503 792 1503 776 c 0,68,69
 1503 708 1503 708 1442 666 c 0,70,71
 1407 642 1407 642 1371 642 c 0,72,73
 1323 642 1323 642 1290 678 c 0,74,75
 1262 709 1262 709 1252 715 c 0,76,77
 1231 729 1231 729 1200 729 c 0,78,79
 1134 729 1134 729 1093 698 c 0,80,81
 1087 694 1087 694 1083 689 c 0,82,83
 1008 606 1008 606 996 472 c 0,84,85
 995 456 995 456 995 443 c 0,86,87
 995 257 995 257 1129 179 c 0,88,89
 1188 144 1188 144 1240 144 c 0,90,91
 1346 144 1346 144 1447 263 c 0,92,93
 1470 290 1470 290 1489 320 c 0,94,95
 1531 385 1531 385 1600 524 c 0,96,97
 1660 645 1660 645 1723 716 c 0,98,99
 1744 740 1744 740 1768 763 c 0,100,101
 1828 816 1828 816 1868 821 c 0,102,103
 1883 821 1883 821 1883 806 c 0,104,105
 1883 787 1883 787 1858 758 c 0,106,107
 1801 693 1801 693 1765 619 c 0,108,109
 1749 584 1749 584 1734 544 c 0,110,111
 1671 379 1671 379 1671 191 c 1,112,-1
 1674 129 l 2,113,114
 1674 88 1674 88 1600 30 c 0,115,116
 1543 -16 1543 -16 1516 -16 c 0,117,118
 1502 -16 1502 -16 1499 -4 c 0,119,120
 1497 6 1497 6 1497 64 c 0,0,1
EndSplineSet
Validated: 1
EndChar

StartChar: x
Encoding: 120 120 69
Width: 1434
Flags: W
LayerCount: 2
Fore
SplineSet
205 644 m 0,0,1
 189 644 189 644 189 657 c 0,2,3
 189 682 189 682 242 738 c 0,4,5
 344 846 344 846 486 887 c 0,6,7
 555 907 555 907 627 906 c 0,8,9
 720 905 720 905 781 838 c 0,10,11
 839 774 839 774 925 578 c 2,12,-1
 1020 365 l 1,13,14
 1111 183 1111 183 1193 164 c 0,15,16
 1206 161 1206 161 1222 161 c 0,17,18
 1294 161 1294 161 1389 235 c 0,19,20
 1459 288 1459 288 1469 294 c 0,21,22
 1491 307 1491 307 1506 307 c 1,23,24
 1519 300 1519 300 1520 291 c 0,25,26
 1520 260 1520 260 1441 186 c 0,27,28
 1325 76 1325 76 1199 27 c 0,29,30
 1132 1 1132 1 1078 1 c 0,31,32
 990 1 990 1 925 87 c 0,33,34
 873 156 873 156 787 353 c 2,35,-1
 740 463 l 1,36,37
 668 360 668 360 544 241 c 0,38,39
 304 11 304 11 139 11 c 0,40,41
 47 11 47 11 -14 68 c 0,42,43
 -37 90 -37 90 -37 102 c 0,44,45
 -37 134 -37 134 23 190 c 0,46,47
 82 247 82 247 119 248 c 0,48,49
 132 248 132 248 144 233 c 0,50,51
 167 205 167 205 200 189 c 0,52,53
 238 171 238 171 281 171 c 0,54,55
 360 171 360 171 444 246 c 0,56,57
 608 392 608 392 648 504 c 0,58,59
 660 538 660 538 660 568 c 0,60,61
 660 634 660 634 608 689 c 0,62,63
 554 746 554 746 477 746 c 0,64,65
 368 746 368 746 286 687 c 0,66,67
 239 654 239 654 230 650 c 0,68,69
 217 644 217 644 205 644 c 0,0,1
643 387 m 0,70,71
 626 386 626 386 623 406 c 0,72,73
 623 439 623 439 994 816 c 2,74,-1
 1084 906 l 2,75,76
 1112 934 1112 934 1134 934 c 0,77,78
 1161 934 1161 934 1169 909 c 0,79,80
 1171 902 1171 902 1172 895 c 0,81,82
 1172 875 1172 875 1149 849 c 0,83,84
 1142 841 1142 841 1057 757 c 0,85,86
 782 489 782 489 679 409 c 0,87,88
 650 387 650 387 643 387 c 0,70,71
EndSplineSet
Validated: 37
EndChar

StartChar: y
Encoding: 121 121 70
Width: 963
Flags: W
LayerCount: 2
Fore
SplineSet
369 740 m 1,0,1
 423 794 423 794 522 845 c 0,2,3
 639 906 639 906 733 906 c 0,4,5
 882 906 882 906 912 807 c 0,6,7
 921 777 921 777 921 734 c 0,8,9
 921 524 921 524 609 -6 c 0,10,11
 132 -815 132 -815 -702 -1602 c 2,12,-1
 -841 -1733 l 2,13,14
 -938 -1819 -938 -1819 -978 -1819 c 0,15,16
 -991 -1819 -991 -1819 -991 -1806 c 0,17,18
 -991 -1772 -991 -1772 -900 -1690 c 0,19,20
 -35 -908 -35 -908 448 -91 c 1,21,-1
 463 -66 l 1,22,23
 351 36 351 36 288 257 c 1,24,-1
 218 530 l 1,25,26
 175 673 175 673 109 712 c 0,27,28
 100 718 100 718 89 722 c 0,29,30
 70 728 70 728 55 728 c 0,31,32
 51 728 51 728 46 728 c 0,33,34
 -19 728 -19 728 -89 679 c 0,35,36
 -134 647 -134 647 -151 645 c 0,37,38
 -154 644 -154 644 -158 644 c 0,39,40
 -174 644 -174 644 -174 657 c 0,41,42
 -174 699 -174 699 -94 766 c 0,43,44
 9 852 9 852 122 879 c 0,45,46
 158 888 158 888 190 888 c 0,47,48
 289 888 289 888 349 781 c 0,49,50
 359 763 359 763 369 740 c 1,0,1
747 604 m 0,51,52
 747 725 747 725 632 743 c 0,53,54
 608 746 608 746 579 746 c 0,55,56
 489 747 489 747 394 669 c 1,57,58
 474 338 474 338 516 244 c 0,59,60
 541 189 541 189 579 141 c 1,61,62
 629 217 629 217 691 383 c 0,63,64
 747 534 747 534 747 604 c 0,51,52
EndSplineSet
Validated: 33
EndChar

StartChar: z
Encoding: 122 122 71
Width: 819
Flags: W
LayerCount: 2
Fore
SplineSet
-227 575 m 4,0,1
 -243 575 -243 575 -243 588 c 4,2,3
 -243 627 -243 627 -136 719 c 4,4,5
 -35 806 -35 806 63 855 c 4,6,7
 175 912 175 912 321 921 c 4,8,9
 336 922 336 922 352 923 c 6,10,-1
 413 923 l 6,11,12
 462 923 462 923 493 916 c 4,13,14
 617 889 617 889 690 782 c 4,15,16
 749 696 749 696 749 593 c 4,17,18
 749 457 749 457 608 309 c 4,19,20
 520 216 520 216 381 129 c 5,21,22
 520 52 520 52 526 -117 c 4,23,24
 527 -124 527 -124 527 -131 c 4,25,26
 527 -295 527 -295 382 -533 c 4,27,28
 286 -693 286 -693 135 -863 c 4,29,30
 -162 -1196 -162 -1196 -597 -1512 c 4,31,32
 -761 -1631 -761 -1631 -884 -1704 c 4,33,34
 -910 -1718 -910 -1718 -925 -1718 c 132,-1,35
 -940 -1718 -940 -1718 -940 -1703 c 4,36,37
 -938 -1670 -938 -1670 -879 -1617 c 4,38,39
 -850 -1591 -850 -1591 -813 -1567 c 4,40,41
 -256 -1214 -256 -1214 66 -830 c 4,42,43
 299 -553 299 -553 343 -342 c 4,44,45
 352 -300 352 -300 352 -264 c 4,46,47
 352 -142 352 -142 274 -67 c 4,48,49
 213 -7 213 -7 127 -7 c 4,50,51
 69 -7 69 -7 26 -38 c 4,52,53
 -15 -68 -15 -68 -37 -75 c 6,54,-1
 -51 -79 l 5,55,56
 -69 -79 -69 -79 -69 -64 c 4,57,58
 -69 -37 -69 -37 -18 15 c 4,59,60
 63 98 63 98 194 143 c 4,61,62
 356 198 356 198 470 280 c 4,63,64
 506 306 506 306 525 328 c 4,65,66
 575 384 575 384 575 460 c 4,67,68
 575 583 575 583 491 670 c 4,69,70
 401 763 401 763 259 763 c 4,71,72
 152 763 152 763 109 755 c 4,73,74
 -14 734 -14 734 -118 640 c 4,75,76
 -192 575 -192 575 -227 575 c 4,0,1
EndSplineSet
Validated: 1
EndChar

StartChar: braceleft
Encoding: 123 123 72
Width: 696
Flags: W
LayerCount: 2
Fore
SplineSet
140 -544 m 0,0,1
 140 -571 140 -571 87 -624 c 0,2,3
 26 -686 26 -686 -16 -688 c 0,4,5
 -31 -689 -31 -689 -35 -673 c 0,6,7
 -39 -662 -39 -662 -52 -570 c 0,8,9
 -76 -407 -76 -407 -76 -242 c 0,10,11
 -76 359 -76 359 227 889 c 0,12,13
 418 1224 418 1224 715 1496 c 0,14,15
 785 1560 785 1560 819 1560 c 0,16,17
 837 1560 837 1560 837 1547 c 0,18,19
 837 1520 837 1520 782 1465 c 2,20,-1
 671 1355 l 1,21,-1
 613 1292 l 1,22,23
 315 951 315 951 184 494 c 0,24,25
 98 196 98 196 98 -111 c 0,26,27
 98 -309 98 -309 129 -460 c 0,28,29
 140 -515 140 -515 140 -544 c 0,0,1
EndSplineSet
Validated: 1
EndChar

StartChar: bar
Encoding: 124 124 73
Width: 696
Flags: W
LayerCount: 2
Fore
SplineSet
-72 -253 m 4,0,1
 -86 -253 -86 -253 -86 -238 c 4,2,3
 -86 -214 -86 -214 -32 -157 c 4,4,5
 41 -79 41 -79 66 -41 c 4,6,7
 142 76 142 76 181 224 c 4,8,9
 225 390 225 390 262 717 c 4,10,11
 300 1046 300 1046 339 1200 c 4,12,13
 409 1476 409 1476 574 1666 c 4,14,15
 597 1693 597 1693 623 1719 c 4,16,17
 724 1822 724 1822 768 1822 c 4,18,19
 785 1822 785 1822 785 1808 c 4,20,21
 785 1785 785 1785 743 1741 c 4,22,23
 674 1668 674 1668 644 1626 c 4,24,25
 606 1572 606 1572 577 1508 c 4,26,27
 496 1329 496 1329 458 1030 c 6,28,-1
 413 645 l 5,29,30
 384 432 384 432 334 278 c 4,31,32
 266 69 266 69 119 -105 c 4,33,34
 20 -222 20 -222 -48 -248 c 4,35,36
 -62 -253 -62 -253 -72 -253 c 4,0,1
EndSplineSet
Validated: 1
EndChar

StartChar: braceright
Encoding: 125 125 74
Width: 696
Flags: W
LayerCount: 2
Fore
SplineSet
314 1416 m 0,0,1
 314 1441 314 1441 365 1495 c 0,2,3
 427 1560 427 1560 470 1560 c 0,4,5
 484 1560 484 1560 488 1547 c 0,6,7
 488 1545 488 1545 490 1534 c 0,8,9
 530 1316 530 1316 530 1115 c 0,10,11
 530 527 530 527 239 5 c 0,12,13
 45 -344 45 -344 -262 -624 c 0,14,15
 -331 -688 -331 -688 -367 -688 c 0,16,17
 -383 -688 -383 -688 -383 -675 c 0,18,19
 -383 -640 -383 -640 -307 -571 c 0,20,21
 37 -254 37 -254 212 206 c 0,22,23
 355 582 355 582 355 983 c 0,24,25
 355 1200 355 1200 316 1398 c 0,26,27
 314 1411 314 1411 314 1416 c 0,0,1
EndSplineSet
Validated: 1
EndChar

StartChar: asciitilde
Encoding: 126 126 75
Width: 1538
Flags: W
LayerCount: 2
Fore
SplineSet
1117 590 m 4,0,1
 1310 590 1310 590 1412 669 c 6,2,-1
 1466 712 l 6,3,4
 1484 724 1484 724 1501 724 c 4,5,6
 1514 724 1514 724 1514 714 c 4,7,8
 1514 689 1514 689 1465 645 c 4,9,10
 1301 497 1301 497 1094 472 c 4,11,12
 1050 467 1050 467 1002 467 c 4,13,14
 867 467 867 467 637 511 c 4,15,16
 415 553 415 553 310 559 c 4,17,18
 277 561 277 561 246 561 c 4,19,20
 51 561 51 561 -50 483 c 6,21,-1
 -105 439 l 6,22,23
 -123 427 -123 427 -141 427 c 4,24,25
 -152 427 -152 427 -152 437 c 4,26,27
 -152 466 -152 466 -90 521 c 4,28,29
 25 623 25 623 190 664 c 4,30,31
 273 684 273 684 358 684 c 4,32,33
 486 684 486 684 715 641 c 4,34,35
 944 597 944 597 1054 592 c 4,36,37
 1086 590 1086 590 1117 590 c 4,0,1
EndSplineSet
Validated: 1
EndChar

StartChar: b
Encoding: 98 98 76
Width: 1253
Flags: W
LayerCount: 2
Fore
SplineSet
602 16 m 6,0,-1
 449 18 l 6,1,2
 215 18 215 18 57 -8 c 4,3,4
 9 -16 9 -16 -20 -16 c 4,5,6
 -35 -16 -35 -16 -35 -3 c 4,7,8
 -35 19 -35 19 -16 40 c 4,9,10
 34 97 34 97 74 180 c 4,11,12
 100 235 100 235 128 309 c 4,13,14
 169 418 169 418 229 618 c 6,15,-1
 365 1050 l 5,16,17
 506 1471 506 1471 669 1766 c 4,18,19
 829 2058 829 2058 1025 2272 c 4,20,21
 1214 2478 1214 2478 1276 2478 c 4,22,23
 1290 2478 1290 2478 1290 2465 c 4,24,25
 1290 2436 1290 2436 1222 2368 c 4,26,27
 1124 2271 1124 2271 1116 2263 c 6,28,-1
 1094 2238 l 6,29,30
 925 2045 925 2045 803 1807 c 4,31,32
 617 1445 617 1445 402 734 c 6,33,-1
 359 593 l 5,34,35
 359 605 359 605 501 716 c 4,36,37
 562 765 562 765 593 785 c 4,38,39
 752 889 752 889 875 889 c 4,40,41
 997 889 997 889 1082 807 c 4,42,43
 1166 725 1166 725 1166 601 c 4,44,45
 1166 457 1166 457 1041 299 c 4,46,47
 927 153 927 153 772 76 c 4,48,49
 722 52 722 52 673 38 c 4,50,51
 664 36 664 36 636 22 c 4,52,53
 623 16 623 16 602 16 c 6,0,-1
992 470 m 4,54,55
 992 587 992 587 909 662 c 4,56,57
 835 728 835 728 725 728 c 4,58,59
 716 728 716 728 713 728 c 4,60,61
 630 728 630 728 522 644 c 4,62,63
 363 521 363 521 238 272 c 4,64,65
 195 184 195 184 162 136 c 5,66,-1
 163 136 l 5,67,-1
 331 153 l 6,68,69
 439 160 439 160 577 161 c 4,70,71
 712 162 712 162 771 176 c 4,72,73
 839 194 839 194 886 235 c 4,74,75
 961 301 961 301 985 406 c 4,76,77
 992 438 992 438 992 470 c 4,54,55
EndSplineSet
Validated: 5
EndChar

StartChar: a
Encoding: 97 97 77
Width: 1253
Flags: W
LayerCount: 2
Fore
SplineSet
405 -16 m 4,0,1
 284 -16 284 -16 196 72 c 4,2,3
 101 168 101 168 101 312 c 4,4,5
 101 484 101 484 235 651 c 4,6,7
 346 787 346 787 489 852 c 4,8,9
 571 888 571 888 641 888 c 4,10,11
 777 888 777 888 805 823 c 4,12,13
 814 802 814 802 814 775 c 4,14,15
 814 720 814 720 768 678 c 4,16,17
 729 642 729 642 679 642 c 4,18,19
 634 642 634 642 601 678 c 4,20,21
 572 709 572 709 562 716 c 4,22,23
 540 729 540 729 511 729 c 4,24,25
 356 729 356 729 299 583 c 4,26,27
 275 520 275 520 275 446 c 4,28,29
 275 296 275 296 387 203 c 4,30,31
 413 182 413 182 438 170 c 4,32,33
 493 143 493 143 550 143 c 4,34,35
 645 143 645 143 745 219 c 4,36,37
 820 275 820 275 881 366 c 4,38,39
 919 423 919 423 987 553 c 4,40,41
 1045 665 1045 665 1109 733 c 4,42,43
 1123 748 1123 748 1139 763 c 4,44,45
 1199 818 1199 818 1239 821 c 4,46,47
 1253 821 1253 821 1253 806 c 4,48,49
 1253 784 1253 784 1227 755 c 4,50,51
 1174 695 1174 695 1144 635 c 4,52,53
 1123 595 1123 595 1104 544 c 4,54,55
 1042 375 1042 375 1042 194 c 5,56,-1
 1044 129 l 6,57,58
 1044 89 1044 89 971 30 c 4,59,60
 913 -16 913 -16 887 -16 c 4,61,62
 873 -16 873 -16 870 -4 c 132,-1,63
 867 8 867 8 867 68 c 4,64,65
 867 156 867 156 883 250 c 5,66,-1
 866 233 l 6,67,68
 745 114 745 114 610 44 c 4,69,70
 496 -16 496 -16 405 -16 c 4,0,1
EndSplineSet
Validated: 1
EndChar

StartChar: P
Encoding: 80 80 78
Width: 1271
Flags: W
LayerCount: 2
Fore
SplineSet
-174 675 m 4,0,1
 -174 704 -174 704 -120 759 c 4,2,3
 -20 861 -20 861 126 894 c 4,4,5
 168 904 168 904 212 906 c 4,6,7
 288 910 288 910 323 883 c 4,8,9
 348 865 348 865 367 828 c 4,10,11
 390 783 390 783 390 726 c 4,12,13
 390 668 390 668 367 599 c 5,14,15
 368 599 368 599 399 628 c 4,16,17
 456 684 456 684 548 751 c 4,18,19
 743 886 743 886 875 889 c 4,20,21
 999 889 999 889 1086 799 c 4,22,23
 1179 704 1179 704 1179 552 c 4,24,25
 1179 414 1179 414 1074 262 c 132,-1,26
 969 110 969 110 821 35 c 4,27,28
 721 -16 721 -16 623 -16 c 4,29,30
 480 -16 480 -16 471 77 c 4,31,32
 470 83 470 83 470 89 c 4,33,34
 470 133 470 133 502 173 c 4,35,36
 539 219 539 219 605 221 c 4,37,38
 652 222 652 222 685 189 c 4,39,40
 712 160 712 160 724 154 c 4,41,42
 743 144 743 144 770 144 c 4,43,44
 917 144 917 144 977 283 c 4,45,46
 1005 348 1005 348 1005 421 c 4,47,48
 1005 563 1005 563 913 653 c 4,49,50
 836 728 836 728 733 728 c 4,51,52
 588 728 588 728 434 563 c 4,53,54
 318 437 318 437 242 266 c 4,55,56
 83 -93 83 -93 -211 -565 c 4,57,58
 -639 -1253 -639 -1253 -1111 -1768 c 5,59,-1
 -1205 -1869 l 6,60,61
 -1275 -1946 -1275 -1946 -1462 -2122 c 4,62,63
 -1537 -2193 -1537 -2193 -1564 -2215 c 4,64,65
 -1613 -2255 -1613 -2255 -1642 -2255 c 4,66,67
 -1657 -2255 -1657 -2255 -1657 -2241 c 4,68,69
 -1657 -2213 -1657 -2213 -1595 -2152 c 6,70,-1
 -1409 -1974 l 5,71,-1
 -1385 -1951 l 5,72,73
 -671 -1239 -671 -1239 -60 -103 c 4,74,75
 134 257 134 257 195 478 c 4,76,77
 216 551 216 551 216 595 c 4,78,79
 216 669 216 669 175 713 c 4,80,81
 143 746 143 746 93 746 c 4,82,83
 -16 746 -16 746 -91 695 c 4,84,85
 -131 667 -131 667 -142 664 c 4,86,87
 -150 662 -150 662 -158 662 c 4,88,89
 -174 662 -174 662 -174 675 c 4,0,1
EndSplineSet
Validated: 33
Substitution2: "NoCaps subtable" p
EndChar

StartChar: Z
Encoding: 90 90 79
Width: 819
Flags: W
LayerCount: 2
Fore
SplineSet
-227 575 m 4,0,1
 -243 575 -243 575 -243 588 c 4,2,3
 -243 627 -243 627 -136 719 c 4,4,5
 -35 806 -35 806 63 855 c 4,6,7
 175 912 175 912 321 921 c 4,8,9
 336 922 336 922 352 923 c 6,10,-1
 413 923 l 6,11,12
 462 923 462 923 493 916 c 4,13,14
 617 889 617 889 690 782 c 4,15,16
 749 696 749 696 749 593 c 4,17,18
 749 457 749 457 608 309 c 4,19,20
 520 216 520 216 381 129 c 5,21,22
 520 52 520 52 526 -117 c 4,23,24
 527 -124 527 -124 527 -131 c 4,25,26
 527 -295 527 -295 382 -533 c 4,27,28
 286 -693 286 -693 135 -863 c 4,29,30
 -162 -1196 -162 -1196 -597 -1512 c 4,31,32
 -761 -1631 -761 -1631 -884 -1704 c 4,33,34
 -910 -1718 -910 -1718 -925 -1718 c 132,-1,35
 -940 -1718 -940 -1718 -940 -1703 c 4,36,37
 -938 -1670 -938 -1670 -879 -1617 c 4,38,39
 -850 -1591 -850 -1591 -813 -1567 c 4,40,41
 -256 -1214 -256 -1214 66 -830 c 4,42,43
 299 -553 299 -553 343 -342 c 4,44,45
 352 -300 352 -300 352 -264 c 4,46,47
 352 -142 352 -142 274 -67 c 4,48,49
 213 -7 213 -7 127 -7 c 4,50,51
 69 -7 69 -7 26 -38 c 4,52,53
 -15 -68 -15 -68 -37 -75 c 6,54,-1
 -51 -79 l 5,55,56
 -69 -79 -69 -79 -69 -64 c 4,57,58
 -69 -37 -69 -37 -18 15 c 4,59,60
 63 98 63 98 194 143 c 4,61,62
 356 198 356 198 470 280 c 4,63,64
 506 306 506 306 525 328 c 4,65,66
 575 384 575 384 575 460 c 4,67,68
 575 583 575 583 491 670 c 4,69,70
 401 763 401 763 259 763 c 4,71,72
 152 763 152 763 109 755 c 4,73,74
 -14 734 -14 734 -118 640 c 4,75,76
 -192 575 -192 575 -227 575 c 4,0,1
EndSplineSet
Validated: 1
Substitution2: "NoCaps subtable" z
EndChar

StartChar: R
Encoding: 82 82 80
Width: 816
Flags: W
LayerCount: 2
Fore
SplineSet
-135 675 m 0,0,1
 -135 705 -135 705 -80 761 c 0,2,3
 23 862 23 862 174 895 c 0,4,5
 213 903 213 903 253 906 c 2,6,-1
 282 906 l 2,7,8
 369 906 369 906 407 825 c 0,9,10
 428 781 428 781 428 723 c 0,11,12
 428 682 428 682 408 598 c 0,13,14
 402 575 402 575 401 565.5 c 128,-1,15
 400 556 400 556 399 550 c 128,-1,16
 398 544 398 544 382 498.5 c 128,-1,17
 366 453 366 453 329 358 c 1,18,-1
 233 186 l 2,19,20
 214 153 214 153 196 129 c 0,21,22
 104 6 104 6 36 -14 c 0,23,24
 27 -16 27 -16 19 -16 c 0,25,26
 3 -16 3 -16 3 -3 c 0,27,28
 3 17 3 17 54 78 c 0,29,30
 71 98 71 98 76 106 c 0,31,32
 162 234 162 234 222 435 c 0,33,34
 254 540 254 540 254 590 c 0,35,36
 254 689 254 689 193 729 c 0,37,38
 167 747 167 747 133 747 c 0,39,40
 24 747 24 747 -51 695 c 0,41,42
 -92 667 -92 667 -104 664 c 0,43,44
 -111 662 -111 662 -119 662 c 0,45,46
 -135 662 -135 662 -135 675 c 0,0,1
457 779 m 1,47,48
 591 866 591 866 719 877 c 0,49,50
 735 878 735 878 750 878 c 0,51,52
 832 878 832 878 870 858 c 0,53,54
 902 842 902 842 917 811 c 0,55,56
 926 792 926 792 926 767 c 0,57,58
 926 681 926 681 843 645 c 0,59,60
 814 632 814 632 792 632 c 0,61,62
 747 632 747 632 715 667 c 0,63,64
 687 698 687 698 677 705 c 0,65,66
 655 719 655 719 623 719 c 0,67,68
 528 719 528 719 451 682 c 0,69,70
 419 666 419 666 398 645 c 1,71,72
 327 631 327 631 289 640 c 0,73,74
 225 656 225 656 395 747 c 0,75,76
 423 762 423 762 457 779 c 1,47,48
EndSplineSet
Validated: 37
Substitution2: "NoCaps subtable" r
EndChar

StartChar: bracketleft
Encoding: 91 91 81
Width: 696
Flags: W
LayerCount: 2
Fore
SplineSet
140 -544 m 0,0,1
 140 -571 140 -571 87 -624 c 0,2,3
 26 -686 26 -686 -16 -688 c 0,4,5
 -31 -689 -31 -689 -35 -673 c 0,6,7
 -39 -662 -39 -662 -52 -570 c 0,8,9
 -76 -407 -76 -407 -76 -242 c 0,10,11
 -76 359 -76 359 227 889 c 0,12,13
 418 1224 418 1224 715 1496 c 0,14,15
 785 1560 785 1560 819 1560 c 0,16,17
 837 1560 837 1560 837 1547 c 0,18,19
 837 1520 837 1520 782 1465 c 2,20,-1
 671 1355 l 1,21,-1
 613 1292 l 1,22,23
 315 951 315 951 184 494 c 0,24,25
 98 196 98 196 98 -111 c 0,26,27
 98 -309 98 -309 129 -460 c 0,28,29
 140 -515 140 -515 140 -544 c 0,0,1
EndSplineSet
Validated: 1
EndChar

StartChar: Q
Encoding: 81 81 82
Width: 1314
Flags: W
LayerCount: 2
Fore
SplineSet
368 139 m 5,0,1
 304 243 304 243 298 352 c 4,2,3
 298 366 298 366 298 381 c 4,4,5
 298 566 298 566 446 713 c 4,6,7
 563 830 563 830 717 872 c 4,8,9
 777 889 777 889 830 889 c 4,10,11
 1004 889 1004 889 1089 718 c 4,12,13
 1102 692 1102 692 1112 664 c 5,14,-1
 1167 730 l 6,15,16
 1195 760 1195 760 1223 782 c 4,17,18
 1272 821 1272 821 1300 821 c 4,19,20
 1303 821 1303 821 1305 820 c 4,21,22
 1314 820 1314 820 1314 806 c 4,23,24
 1314 786 1314 786 1291 760 c 4,25,26
 1237 698 1237 698 1200 623 c 4,27,28
 1183 587 1183 587 1166 545 c 4,29,30
 1153 513 1153 513 1077 291 c 4,31,32
 964 -39 964 -39 808 -313 c 4,33,34
 429 -981 429 -981 -410 -1777 c 4,35,36
 -596 -1955 -596 -1955 -713 -2056 c 4,37,38
 -720 -2061 -720 -2061 -723 -2064 c 4,39,40
 -772 -2102 -772 -2102 -800 -2102 c 4,41,42
 -815 -2102 -815 -2102 -815 -2089 c 4,43,44
 -815 -2056 -815 -2056 -731 -1978 c 6,45,-1
 -518 -1783 l 5,46,47
 -134 -1423 -134 -1423 118 -1130 c 4,48,49
 570 -604 570 -604 804 -87 c 4,50,51
 839 -9 839 -9 839 -4 c 4,52,53
 839 2 839 2 668 12 c 4,54,55
 586 17 586 17 527 17 c 4,56,57
 467 17 467 17 311 0 c 4,58,59
 234 -8 234 -8 180 -8 c 4,60,61
 85 -8 85 -8 -2 10 c 4,62,63
 -69 23 -69 23 -69 42 c 4,64,65
 -69 82 -69 82 -2 133 c 4,66,67
 45 170 45 170 68 170 c 5,68,-1
 167 146 l 6,69,70
 229 135 229 135 297 135 c 4,71,72
 348 135 348 135 368 139 c 5,0,1
975 432 m 4,73,74
 975 585 975 585 883 673 c 4,75,76
 808 745 808 745 698 745 c 4,77,78
 526 745 526 745 473 608 c 4,79,80
 453 558 453 558 453 498 c 4,81,82
 453 319 453 319 552 226 c 4,83,84
 622 162 622 162 724 159 c 4,85,86
 802 157 802 157 869 150 c 6,87,-1
 897 148 l 5,88,-1
 948 302 l 6,89,90
 972 377 972 377 974 396 c 4,91,92
 975 409 975 409 975 432 c 4,73,74
EndSplineSet
Validated: 1
Substitution2: "NoCaps subtable" q
EndChar

StartChar: degree
Encoding: 176 176 83
Width: 444
Flags: W
LayerCount: 2
Fore
SplineSet
64 1343 m 0,0,1
 64 1413 64 1413 122 1475 c 0,2,3
 169 1524 169 1524 231 1546 c 0,4,5
 262 1557 262 1557 289 1557 c 0,6,7
 346 1557 346 1557 380 1515 c 0,8,9
 408 1480 408 1480 407 1426 c 0,10,11
 407 1355 407 1355 349 1293 c 0,12,13
 317 1260 317 1260 276 1238 c 0,14,15
 227 1212 227 1212 177 1213 c 0,16,17
 124 1213 124 1213 92 1254 c 0,18,19
 64 1290 64 1290 64 1343 c 0,0,1
130 1393 m 0,20,21
 130 1340 130 1340 162 1305 c 0,22,23
 191 1273 191 1273 231 1273 c 0,24,25
 263 1273 263 1273 292 1285 c 0,26,27
 307 1291 307 1291 315 1299 c 0,28,29
 338 1321 338 1321 341 1369 c 0,30,31
 341 1373 341 1373 341 1376 c 0,32,33
 341 1432 341 1432 308 1466 c 0,34,35
 279 1496 279 1496 237 1496 c 0,36,37
 209 1496 209 1496 180 1485 c 0,38,39
 159 1477 159 1477 151 1465 c 0,40,41
 130 1436 130 1436 130 1393 c 0,20,21
EndSplineSet
Validated: 33
EndChar

StartChar: bracketright
Encoding: 93 93 84
Width: 696
Flags: W
LayerCount: 2
Fore
SplineSet
314 1416 m 0,0,1
 314 1441 314 1441 365 1495 c 0,2,3
 427 1560 427 1560 470 1560 c 0,4,5
 484 1560 484 1560 488 1547 c 0,6,7
 488 1545 488 1545 490 1534 c 0,8,9
 530 1316 530 1316 530 1115 c 0,10,11
 530 527 530 527 239 5 c 0,12,13
 45 -344 45 -344 -262 -624 c 0,14,15
 -331 -688 -331 -688 -367 -688 c 0,16,17
 -383 -688 -383 -688 -383 -675 c 0,18,19
 -383 -640 -383 -640 -307 -571 c 0,20,21
 37 -254 37 -254 212 206 c 0,22,23
 355 582 355 582 355 983 c 0,24,25
 355 1200 355 1200 316 1398 c 0,26,27
 314 1411 314 1411 314 1416 c 0,0,1
EndSplineSet
Validated: 1
EndChar

StartChar: grave
Encoding: 96 96 85
Width: 719
Flags: W
LayerCount: 2
Fore
SplineSet
661 1104 m 0,0,1
 652 1104 652 1104 617 1130 c 0,2,3
 492 1225 492 1225 158 1542 c 0,4,5
 55 1641 55 1641 46 1651 c 0,6,7
 18 1681 18 1681 18 1705 c 0,8,9
 18 1714 18 1714 21 1722 c 0,10,11
 31 1751 31 1751 64 1751 c 0,12,13
 91 1751 91 1751 125 1718 c 2,14,-1
 234 1611 l 2,15,16
 685 1166 685 1166 685 1127 c 0,17,18
 682 1103 682 1103 661 1104 c 0,0,1
EndSplineSet
Validated: 1
EndChar

StartChar: plusminus
Encoding: 177 177 86
Width: 1184
Flags: W
LayerCount: 2
Fore
SplineSet
858 537 m 0,0,1
 959 537 959 537 1001 571 c 2,2,-1
 1033 597 l 2,3,4
 1047 606 1047 606 1065 611 c 1,5,-1
 1074 611 l 2,6,7
 1084 610 1084 610 1084 601 c 0,8,9
 1084 577 1084 577 1035 530 c 0,10,11
 938 439 938 439 807 419 c 0,12,13
 777 414 777 414 746 414 c 0,14,15
 670 414 670 414 522 442 c 0,16,17
 400 466 400 466 327 466 c 0,18,19
 224 466 224 466 163 420 c 0,20,21
 132 396 132 396 121 393 c 0,22,23
 116 392 116 392 109 392 c 0,24,25
 98 392 98 392 98 402 c 0,26,27
 98 427 98 427 148 475 c 0,28,29
 244 565 244 565 376 585 c 0,30,31
 407 589 407 589 437 589 c 0,32,33
 510 589 510 589 664 560 c 0,34,35
 787 537 787 537 858 537 c 0,0,1
687 752 m 1,36,37
 669 683 669 683 659 559 c 0,38,39
 647 403 647 403 628 332 c 0,40,41
 620 303 620 303 608 274 c 0,42,43
 555 152 555 152 443 83 c 0,44,45
 384 47 384 47 360 53 c 0,46,47
 350 56 350 56 353 67 c 0,48,49
 355 74 355 74 357 78 c 0,50,51
 363 88 363 88 394 111 c 0,52,53
 454 158 454 158 481 258 c 0,54,55
 500 329 500 329 508 452 c 0,56,57
 519 602 519 602 539 676 c 0,58,59
 547 706 547 706 559 734 c 0,60,61
 612 855 612 855 726 925 c 0,62,63
 784 960 784 960 807 954 c 0,64,65
 816 952 816 952 814 942 c 2,66,-1
 812 933 l 1,67,68
 803 917 803 917 790 906 c 2,69,-1
 756 882 l 2,70,71
 712 850 712 850 687 752 c 1,72,-1
 687 752 l 1,36,37
646 -25 m 0,73,74
 747 -25 747 -25 789 9 c 2,75,-1
 821 35 l 2,76,77
 835 44 835 44 853 49 c 1,78,-1
 862 49 l 2,79,80
 872 48 872 48 872 39 c 0,81,82
 872 15 872 15 823 -32 c 0,83,84
 726 -123 726 -123 595 -143 c 0,85,86
 565 -148 565 -148 534 -148 c 0,87,88
 458 -148 458 -148 310 -120 c 0,89,90
 188 -96 188 -96 115 -96 c 0,91,92
 12 -96 12 -96 -49 -142 c 0,93,94
 -80 -166 -80 -166 -91 -169 c 0,95,96
 -96 -170 -96 -170 -103 -170 c 0,97,98
 -114 -170 -114 -170 -114 -160 c 0,99,100
 -114 -135 -114 -135 -64 -87 c 0,101,102
 32 3 32 3 164 23 c 0,103,104
 195 27 195 27 225 27 c 0,105,106
 298 27 298 27 452 -2 c 0,107,108
 575 -25 575 -25 646 -25 c 0,73,74
EndSplineSet
Validated: 37
EndChar

StartChar: mu
Encoding: 181 181 87
Width: 1168
Flags: W
LayerCount: 2
Fore
SplineSet
-110 675 m 0,0,1
 -110 701 -110 701 -60 755 c 0,2,3
 38 860 38 860 186 893 c 0,4,5
 244 907 244 907 306 906 c 0,6,7
 399 905 399 905 420 807 c 0,8,9
 425 784 425 784 425 760 c 0,10,11
 425 690 425 690 369 557 c 0,12,13
 317 434 317 434 308 388 c 0,14,15
 304 364 304 364 304 343 c 0,16,17
 304 254 304 254 385 193 c 0,18,19
 451 144 451 144 526 144 c 0,20,21
 645 144 645 144 759 273 c 0,22,23
 788 306 788 306 813 344 c 0,24,25
 852 404 852 404 920 539 c 0,26,27
 979 655 979 655 1041 723 c 0,28,29
 1060 743 1060 743 1081 763 c 0,30,31
 1142 819 1142 819 1181 821 c 0,32,33
 1195 821 1195 821 1195 807 c 0,34,35
 1195 787 1195 787 1169 757 c 0,36,37
 1115 694 1115 694 1082 627 c 0,38,39
 1063 589 1063 589 1046 544 c 0,40,41
 984 376 984 376 984 201 c 1,42,-1
 986 140 l 2,43,44
 987 84 987 84 906 23 c 0,45,46
 854 -16 854 -16 829 -16 c 0,47,48
 815 -16 815 -16 812 -5 c 0,49,50
 810 6 810 6 810 60 c 0,51,52
 810 145 810 145 821 214 c 0,53,54
 822 223 822 223 822 231 c 1,55,56
 821 231 821 231 804 216 c 0,57,58
 662 74 662 74 521 15 c 0,59,60
 445 -16 445 -16 380 -16 c 0,61,62
 271 -16 271 -16 194 62 c 0,63,64
 143 112 143 112 132 175 c 0,65,66
 130 189 130 189 130 218 c 0,67,68
 130 269 130 269 189 424 c 0,69,70
 247 582 247 582 250 627 c 0,71,72
 250 694 250 694 212 727 c 0,73,74
 189 747 189 747 156 747 c 0,75,76
 49 747 49 747 -27 695 c 0,77,78
 -69 667 -69 667 -81 664 c 0,79,80
 -88 662 -88 662 -94 662 c 0,81,82
 -110 662 -110 662 -110 675 c 0,0,1
382 608 m 1,83,84
 344 545 344 545 319 478 c 128,-1,85
 294 411 294 411 278.5 350 c 128,-1,86
 263 289 263 289 257 275 c 0,87,88
 98 -84 98 -84 -196 -556 c 0,89,90
 -624 -1244 -624 -1244 -1096 -1759 c 2,91,-1
 -1190 -1860 l 2,92,93
 -1260 -1937 -1260 -1937 -1447 -2113 c 0,94,95
 -1522 -2184 -1522 -2184 -1549 -2206 c 0,96,97
 -1598 -2246 -1598 -2246 -1627 -2246 c 0,98,99
 -1642 -2246 -1642 -2246 -1642 -2232 c 0,100,101
 -1642 -2204 -1642 -2204 -1580 -2143 c 2,102,-1
 -1394 -1965 l 1,103,-1
 -1370 -1942 l 1,104,105
 -656 -1230 -656 -1230 -45 -94 c 0,106,107
 149 266 149 266 210 487 c 1,108,109
 235 530 235 530 277 606 c 0,110,111
 358 752 358 752 378 769 c 0,112,113
 394 783 394 783 396 751 c 0,114,115
 398 715 398 715 382 608 c 1,83,84
EndSplineSet
Validated: 37
EndChar

StartChar: questiondown
Encoding: 191 191 88
Width: 2048
Flags: W
LayerCount: 2
Fore
SplineSet
759 70 m 0,0,1
 698 -41 698 -41 713 -138 c 0,2,3
 719 -166 719 -166 743 -197 c 0,4,5
 791 -258 791 -258 867 -302 c 0,6,7
 885 -312 885 -312 903 -321 c 0,8,9
 1019 -374 1019 -374 1142 -365 c 0,10,11
 1317 -354 1317 -354 1396 -217 c 0,12,13
 1418 -178 1418 -178 1418 -135 c 0,14,15
 1417 -108 1417 -108 1399 -47 c 0,16,17
 1383 4 1383 4 1397 27 c 0,18,19
 1404 39 1404 39 1417 32 c 0,20,21
 1426 27 1426 27 1436 11 c 0,22,23
 1476 -47 1476 -47 1500 -158 c 0,24,25
 1535 -325 1535 -325 1483 -415 c 0,26,27
 1477 -425 1477 -425 1471 -436 c 0,28,29
 1391 -555 1391 -555 1237 -579 c 0,30,31
 1074 -606 1074 -606 910 -511 c 0,32,33
 851 -477 851 -477 798 -423 c 0,34,35
 674 -295 674 -295 630 -118 c 0,36,37
 575 99 575 99 678 277.5 c 128,-1,38
 781 456 781 456 959 664 c 2,39,-1
 1193 930 l 2,40,41
 1422 1188 1422 1188 1532 1379 c 0,42,43
 1704 1676 1704 1676 1656 1928 c 0,44,45
 1654 1938 1654 1938 1645 1974 c 0,46,47
 1617 2078 1617 2078 1630 2101 c 2,48,-1
 1632 2105 l 2,49,50
 1638 2115 1638 2115 1651 2108 c 0,51,52
 1684 2089 1684 2089 1711 1999 c 0,53,54
 1750 1876 1750 1876 1760 1762 c 0,55,56
 1785 1469 1785 1469 1618 1179 c 0,57,58
 1523 1014 1523 1014 1351 812 c 1,59,-1
 1111 537 l 2,60,61
 871 265 871 265 759 70 c 0,0,1
1837 2520 m 0,62,63
 1837 2459 1837 2459 1786 2405 c 0,64,65
 1745 2362 1745 2362 1691 2344 c 0,66,67
 1664 2334 1664 2334 1640 2334 c 0,68,69
 1590 2334 1590 2334 1561 2371 c 0,70,71
 1537 2402 1537 2402 1537 2448 c 0,72,73
 1537 2510 1537 2510 1589 2564 c 0,74,75
 1616 2592 1616 2592 1652 2612 c 0,76,77
 1695 2634 1695 2634 1738 2634 c 0,78,79
 1785 2634 1785 2634 1812 2598 c 0,80,81
 1837 2566 1837 2566 1837 2520 c 0,62,63
EndSplineSet
Validated: 33
EndChar

StartChar: Agrave
Encoding: 192 192 89
Width: 1184
Flags: W
LayerCount: 2
Fore
SplineSet
405 -16 m 0,0,1
 284 -16 284 -16 196 72 c 0,2,3
 101 168 101 168 101 312 c 0,4,5
 101 484 101 484 235 651 c 0,6,7
 346 787 346 787 489 852 c 0,8,9
 571 888 571 888 641 888 c 0,10,11
 777 888 777 888 805 823 c 0,12,13
 814 802 814 802 814 775 c 0,14,15
 814 720 814 720 768 678 c 0,16,17
 729 642 729 642 679 642 c 0,18,19
 634 642 634 642 601 678 c 0,20,21
 572 709 572 709 562 716 c 0,22,23
 540 729 540 729 511 729 c 0,24,25
 356 729 356 729 299 583 c 0,26,27
 275 520 275 520 275 446 c 0,28,29
 275 296 275 296 387 203 c 0,30,31
 413 182 413 182 438 170 c 0,32,33
 493 143 493 143 550 143 c 0,34,35
 645 143 645 143 745 219 c 0,36,37
 820 275 820 275 881 366 c 0,38,39
 919 423 919 423 987 553 c 0,40,41
 1045 665 1045 665 1109 733 c 0,42,43
 1123 748 1123 748 1139 763 c 0,44,45
 1199 818 1199 818 1239 821 c 0,46,47
 1253 821 1253 821 1253 806 c 0,48,49
 1253 784 1253 784 1227 755 c 0,50,51
 1174 695 1174 695 1144 635 c 0,52,53
 1123 595 1123 595 1104 544 c 0,54,55
 1042 375 1042 375 1042 194 c 1,56,-1
 1044 129 l 2,57,58
 1044 89 1044 89 971 30 c 0,59,60
 913 -16 913 -16 887 -16 c 0,61,62
 873 -16 873 -16 870 -4 c 128,-1,63
 867 8 867 8 867 68 c 0,64,65
 867 156 867 156 883 250 c 1,66,-1
 866 233 l 2,67,68
 745 114 745 114 610 44 c 0,69,70
 496 -16 496 -16 405 -16 c 0,0,1
1105 1027 m 0,71,72
 1098 1027 1098 1027 1072 1047 c 0,73,74
 979 1118 979 1118 729 1355 c 0,75,76
 652 1429 652 1429 645 1436 c 0,77,78
 624 1458 624 1458 624 1476 c 0,79,80
 624 1483 624 1483 626 1489 c 0,81,82
 633 1511 633 1511 658 1511 c 0,83,84
 678 1511 678 1511 704 1486 c 2,85,-1
 785 1406 l 2,86,87
 1122 1073 1122 1073 1123 1044 c 0,88,89
 1121 1026 1121 1026 1105 1027 c 0,71,72
EndSplineSet
Validated: 1
EndChar

StartChar: Aacute
Encoding: 193 193 90
Width: 1199
Flags: W
LayerCount: 2
Fore
SplineSet
405 -16 m 0,0,1
 284 -16 284 -16 196 72 c 0,2,3
 101 168 101 168 101 312 c 0,4,5
 101 484 101 484 235 651 c 0,6,7
 346 787 346 787 489 852 c 0,8,9
 571 888 571 888 641 888 c 0,10,11
 777 888 777 888 805 823 c 0,12,13
 814 802 814 802 814 775 c 0,14,15
 814 720 814 720 768 678 c 0,16,17
 729 642 729 642 679 642 c 0,18,19
 634 642 634 642 601 678 c 0,20,21
 572 709 572 709 562 716 c 0,22,23
 540 729 540 729 511 729 c 0,24,25
 356 729 356 729 299 583 c 0,26,27
 275 520 275 520 275 446 c 0,28,29
 275 296 275 296 387 203 c 0,30,31
 413 182 413 182 438 170 c 0,32,33
 493 143 493 143 550 143 c 0,34,35
 645 143 645 143 745 219 c 0,36,37
 820 275 820 275 881 366 c 0,38,39
 919 423 919 423 987 553 c 0,40,41
 1045 665 1045 665 1109 733 c 0,42,43
 1123 748 1123 748 1139 763 c 0,44,45
 1199 818 1199 818 1239 821 c 0,46,47
 1253 821 1253 821 1253 806 c 0,48,49
 1253 784 1253 784 1227 755 c 0,50,51
 1174 695 1174 695 1144 635 c 0,52,53
 1123 595 1123 595 1104 544 c 0,54,55
 1042 375 1042 375 1042 194 c 1,56,-1
 1044 129 l 2,57,58
 1044 89 1044 89 971 30 c 0,59,60
 913 -16 913 -16 887 -16 c 0,61,62
 873 -16 873 -16 870 -4 c 128,-1,63
 867 8 867 8 867 68 c 0,64,65
 867 156 867 156 883 250 c 1,66,-1
 866 233 l 2,67,68
 745 114 745 114 610 44 c 0,69,70
 496 -16 496 -16 405 -16 c 0,0,1
922 1027 m 0,71,72
 906 1026 906 1026 904 1044 c 0,73,74
 904 1073 904 1073 1241 1406 c 2,75,-1
 1323 1486 l 2,76,77
 1348 1511 1348 1511 1368 1511 c 0,78,79
 1393 1511 1393 1511 1400 1489 c 0,80,81
 1402 1483 1402 1483 1403 1476 c 0,82,83
 1403 1458 1403 1458 1382 1436 c 0,84,85
 1375 1429 1375 1429 1298 1355 c 0,86,87
 1048 1118 1048 1118 955 1047 c 0,88,89
 929 1027 929 1027 922 1027 c 0,71,72
EndSplineSet
Validated: 1
EndChar

StartChar: Acircumflex
Encoding: 194 194 91
Width: 1200
Flags: W
LayerCount: 2
Fore
SplineSet
405 -16 m 0,0,1
 284 -16 284 -16 196 72 c 0,2,3
 101 168 101 168 101 312 c 0,4,5
 101 484 101 484 235 651 c 0,6,7
 346 787 346 787 489 852 c 0,8,9
 571 888 571 888 641 888 c 0,10,11
 777 888 777 888 805 823 c 0,12,13
 814 802 814 802 814 775 c 0,14,15
 814 720 814 720 768 678 c 0,16,17
 729 642 729 642 679 642 c 0,18,19
 634 642 634 642 601 678 c 0,20,21
 572 709 572 709 562 716 c 0,22,23
 540 729 540 729 511 729 c 0,24,25
 356 729 356 729 299 583 c 0,26,27
 275 520 275 520 275 446 c 0,28,29
 275 296 275 296 387 203 c 0,30,31
 413 182 413 182 438 170 c 0,32,33
 493 143 493 143 550 143 c 0,34,35
 645 143 645 143 745 219 c 0,36,37
 820 275 820 275 881 366 c 0,38,39
 919 423 919 423 987 553 c 0,40,41
 1045 665 1045 665 1109 733 c 0,42,43
 1123 748 1123 748 1139 763 c 0,44,45
 1199 818 1199 818 1239 821 c 0,46,47
 1253 821 1253 821 1253 806 c 0,48,49
 1253 784 1253 784 1227 755 c 0,50,51
 1174 695 1174 695 1144 635 c 0,52,53
 1123 595 1123 595 1104 544 c 0,54,55
 1042 375 1042 375 1042 194 c 1,56,-1
 1044 129 l 2,57,58
 1044 89 1044 89 971 30 c 0,59,60
 913 -16 913 -16 887 -16 c 0,61,62
 873 -16 873 -16 870 -4 c 128,-1,63
 867 8 867 8 867 68 c 0,64,65
 867 156 867 156 883 250 c 1,66,-1
 866 233 l 2,67,68
 745 114 745 114 610 44 c 0,69,70
 496 -16 496 -16 405 -16 c 0,0,1
584 1024 m 0,71,72
 573 1024 573 1024 573 1034 c 0,73,74
 573 1058 573 1058 614 1098 c 2,75,-1
 733 1210 l 2,76,77
 835 1311 835 1311 943 1442 c 0,78,79
 984 1491 984 1491 1026 1508 c 0,80,81
 1036 1512 1036 1512 1043 1512 c 0,82,83
 1054 1512 1054 1512 1063 1473 c 0,84,85
 1087 1368 1087 1368 1117 1304 c 0,86,87
 1156 1224 1156 1224 1220 1152 c 0,88,89
 1229 1141 1229 1141 1229 1137 c 0,90,91
 1229 1115 1229 1115 1184 1070 c 0,92,93
 1137 1024 1137 1024 1107 1024 c 0,94,95
 1088 1024 1088 1024 1038 1102 c 0,96,97
 963 1221 963 1221 932 1341 c 0,98,99
 931 1341 931 1341 839 1243 c 0,100,101
 635 1024 635 1024 584 1024 c 0,71,72
EndSplineSet
Validated: 1
EndChar

StartChar: Atilde
Encoding: 195 195 92
Width: 1195
Flags: W
LayerCount: 2
Fore
SplineSet
405 -16 m 0,0,1
 284 -16 284 -16 196 72 c 0,2,3
 101 168 101 168 101 312 c 0,4,5
 101 484 101 484 235 651 c 0,6,7
 346 787 346 787 489 852 c 0,8,9
 571 888 571 888 641 888 c 0,10,11
 777 888 777 888 805 823 c 0,12,13
 814 802 814 802 814 775 c 0,14,15
 814 720 814 720 768 678 c 0,16,17
 729 642 729 642 679 642 c 0,18,19
 634 642 634 642 601 678 c 0,20,21
 572 709 572 709 562 716 c 0,22,23
 540 729 540 729 511 729 c 0,24,25
 356 729 356 729 299 583 c 0,26,27
 275 520 275 520 275 446 c 0,28,29
 275 296 275 296 387 203 c 0,30,31
 413 182 413 182 438 170 c 0,32,33
 493 143 493 143 550 143 c 0,34,35
 645 143 645 143 745 219 c 0,36,37
 820 275 820 275 881 366 c 0,38,39
 919 423 919 423 987 553 c 0,40,41
 1045 665 1045 665 1109 733 c 0,42,43
 1123 748 1123 748 1139 763 c 0,44,45
 1199 818 1199 818 1239 821 c 0,46,47
 1253 821 1253 821 1253 806 c 0,48,49
 1253 784 1253 784 1227 755 c 0,50,51
 1174 695 1174 695 1144 635 c 0,52,53
 1123 595 1123 595 1104 544 c 0,54,55
 1042 375 1042 375 1042 194 c 1,56,-1
 1044 129 l 2,57,58
 1044 89 1044 89 971 30 c 0,59,60
 913 -16 913 -16 887 -16 c 0,61,62
 873 -16 873 -16 870 -4 c 128,-1,63
 867 8 867 8 867 68 c 0,64,65
 867 156 867 156 883 250 c 1,66,-1
 866 233 l 2,67,68
 745 114 745 114 610 44 c 0,69,70
 496 -16 496 -16 405 -16 c 0,0,1
1121 1218 m 0,71,72
 1222 1218 1222 1218 1264 1252 c 2,73,-1
 1296 1278 l 2,74,75
 1310 1287 1310 1287 1328 1292 c 1,76,-1
 1337 1292 l 2,77,78
 1347 1291 1347 1291 1347 1282 c 0,79,80
 1347 1258 1347 1258 1298 1211 c 0,81,82
 1201 1120 1201 1120 1070 1100 c 0,83,84
 1040 1095 1040 1095 1009 1095 c 0,85,86
 933 1095 933 1095 785 1123 c 0,87,88
 663 1147 663 1147 590 1147 c 0,89,90
 487 1147 487 1147 426 1101 c 0,91,92
 395 1077 395 1077 384 1074 c 0,93,94
 379 1073 379 1073 372 1073 c 0,95,96
 361 1073 361 1073 361 1083 c 0,97,98
 361 1108 361 1108 411 1156 c 0,99,100
 507 1246 507 1246 639 1266 c 0,101,102
 670 1270 670 1270 700 1270 c 0,103,104
 773 1270 773 1270 927 1241 c 0,105,106
 1050 1218 1050 1218 1121 1218 c 0,71,72
EndSplineSet
Validated: 1
EndChar

StartChar: Adieresis
Encoding: 196 196 93
Width: 1193
Flags: W
LayerCount: 2
Fore
SplineSet
405 -16 m 0,0,1
 284 -16 284 -16 196 72 c 0,2,3
 101 168 101 168 101 312 c 0,4,5
 101 484 101 484 235 651 c 0,6,7
 346 787 346 787 489 852 c 0,8,9
 571 888 571 888 641 888 c 0,10,11
 777 888 777 888 805 823 c 0,12,13
 814 802 814 802 814 775 c 0,14,15
 814 720 814 720 768 678 c 0,16,17
 729 642 729 642 679 642 c 0,18,19
 634 642 634 642 601 678 c 0,20,21
 572 709 572 709 562 716 c 0,22,23
 540 729 540 729 511 729 c 0,24,25
 356 729 356 729 299 583 c 0,26,27
 275 520 275 520 275 446 c 0,28,29
 275 296 275 296 387 203 c 0,30,31
 413 182 413 182 438 170 c 0,32,33
 493 143 493 143 550 143 c 0,34,35
 645 143 645 143 745 219 c 0,36,37
 820 275 820 275 881 366 c 0,38,39
 919 423 919 423 987 553 c 0,40,41
 1045 665 1045 665 1109 733 c 0,42,43
 1123 748 1123 748 1139 763 c 0,44,45
 1199 818 1199 818 1239 821 c 0,46,47
 1253 821 1253 821 1253 806 c 0,48,49
 1253 784 1253 784 1227 755 c 0,50,51
 1174 695 1174 695 1144 635 c 0,52,53
 1123 595 1123 595 1104 544 c 0,54,55
 1042 375 1042 375 1042 194 c 1,56,-1
 1044 129 l 2,57,58
 1044 89 1044 89 971 30 c 0,59,60
 913 -16 913 -16 887 -16 c 0,61,62
 873 -16 873 -16 870 -4 c 128,-1,63
 867 8 867 8 867 68 c 0,64,65
 867 156 867 156 883 250 c 1,66,-1
 866 233 l 2,67,68
 745 114 745 114 610 44 c 0,69,70
 496 -16 496 -16 405 -16 c 0,0,1
658 1052 m 0,71,72
 639 1057 639 1057 637 1079 c 1,73,74
 675 1188 675 1188 717 1294 c 0,75,76
 759 1394 759 1394 782 1415 c 0,77,78
 797 1429 797 1429 816 1429 c 0,79,80
 849 1429 849 1429 859 1397 c 0,81,82
 862 1388 862 1388 862 1378 c 0,83,84
 862 1350 862 1350 815 1272 c 2,85,-1
 795 1238 l 1,86,-1
 726 1132 l 1,87,-1
 688 1072 l 2,88,89
 673 1052 673 1052 658 1052 c 0,71,72
981 1052 m 0,90,91
 962 1057 962 1057 960 1079 c 1,92,93
 998 1188 998 1188 1040 1294 c 0,94,95
 1082 1394 1082 1394 1105 1415 c 0,96,97
 1120 1429 1120 1429 1139 1429 c 0,98,99
 1172 1429 1172 1429 1182 1397 c 0,100,101
 1185 1388 1185 1388 1185 1378 c 0,102,103
 1185 1350 1185 1350 1138 1272 c 2,104,-1
 1118 1238 l 1,105,-1
 1049 1132 l 1,106,-1
 1011 1072 l 2,107,108
 996 1052 996 1052 981 1052 c 0,90,91
EndSplineSet
Validated: 1
EndChar

StartChar: Aring
Encoding: 197 197 94
Width: 1187
Flags: W
LayerCount: 2
Fore
SplineSet
405 -16 m 0,0,1
 284 -16 284 -16 196 72 c 0,2,3
 101 168 101 168 101 312 c 0,4,5
 101 484 101 484 235 651 c 0,6,7
 346 787 346 787 489 852 c 0,8,9
 571 888 571 888 641 888 c 0,10,11
 777 888 777 888 805 823 c 0,12,13
 814 802 814 802 814 775 c 0,14,15
 814 720 814 720 768 678 c 0,16,17
 729 642 729 642 679 642 c 0,18,19
 634 642 634 642 601 678 c 0,20,21
 572 709 572 709 562 716 c 0,22,23
 540 729 540 729 511 729 c 0,24,25
 356 729 356 729 299 583 c 0,26,27
 275 520 275 520 275 446 c 0,28,29
 275 296 275 296 387 203 c 0,30,31
 413 182 413 182 438 170 c 0,32,33
 493 143 493 143 550 143 c 0,34,35
 645 143 645 143 745 219 c 0,36,37
 820 275 820 275 881 366 c 0,38,39
 919 423 919 423 987 553 c 0,40,41
 1045 665 1045 665 1109 733 c 0,42,43
 1123 748 1123 748 1139 763 c 0,44,45
 1199 818 1199 818 1239 821 c 0,46,47
 1253 821 1253 821 1253 806 c 0,48,49
 1253 784 1253 784 1227 755 c 0,50,51
 1174 695 1174 695 1144 635 c 0,52,53
 1123 595 1123 595 1104 544 c 0,54,55
 1042 375 1042 375 1042 194 c 1,56,-1
 1044 129 l 2,57,58
 1044 89 1044 89 971 30 c 0,59,60
 913 -16 913 -16 887 -16 c 0,61,62
 873 -16 873 -16 870 -4 c 128,-1,63
 867 8 867 8 867 68 c 0,64,65
 867 156 867 156 883 250 c 1,66,-1
 866 233 l 2,67,68
 745 114 745 114 610 44 c 0,69,70
 496 -16 496 -16 405 -16 c 0,0,1
744 1193 m 0,71,72
 744 1263 744 1263 802 1325 c 0,73,74
 849 1374 849 1374 911 1396 c 0,75,76
 942 1407 942 1407 969 1407 c 0,77,78
 1026 1407 1026 1407 1060 1365 c 0,79,80
 1088 1330 1088 1330 1087 1276 c 0,81,82
 1087 1205 1087 1205 1029 1143 c 0,83,84
 997 1110 997 1110 956 1088 c 0,85,86
 907 1062 907 1062 857 1063 c 0,87,88
 804 1063 804 1063 772 1104 c 0,89,90
 744 1140 744 1140 744 1193 c 0,71,72
810 1243 m 0,91,92
 810 1190 810 1190 842 1155 c 0,93,94
 871 1123 871 1123 911 1123 c 0,95,96
 943 1123 943 1123 972 1135 c 0,97,98
 987 1141 987 1141 995 1149 c 0,99,100
 1018 1171 1018 1171 1021 1219 c 0,101,102
 1021 1223 1021 1223 1021 1226 c 0,103,104
 1021 1282 1021 1282 988 1316 c 0,105,106
 959 1346 959 1346 917 1346 c 0,107,108
 889 1346 889 1346 860 1335 c 0,109,110
 839 1327 839 1327 831 1315 c 0,111,112
 810 1286 810 1286 810 1243 c 0,91,92
EndSplineSet
Validated: 33
EndChar

StartChar: Ccedilla
Encoding: 199 199 95
Width: 940
Flags: W
LayerCount: 2
Fore
SplineSet
1078 307 m 0,0,1
 1092 307 1092 307 1092 293 c 0,2,3
 1092 251 1092 251 998 174 c 0,4,5
 887 83 887 83 748 29 c 0,6,7
 642 -13 642 -13 543 -16 c 0,8,9
 522 -17 522 -17 486 -17 c 0,10,11
 373 -17 373 -17 332 -11 c 0,12,13
 175 11 175 11 98 124 c 0,14,15
 44 202 44 202 42 304 c 2,16,-1
 42 318 l 2,17,18
 42 414 42 414 108 532 c 0,19,20
 194 684 194 684 356 789 c 0,21,22
 490 876 490 876 618 887 c 0,23,24
 634 888 634 888 649 888 c 0,25,26
 731 888 731 888 769 868 c 0,27,28
 801 852 801 852 816 821 c 0,29,30
 825 802 825 802 825 777 c 0,31,32
 825 691 825 691 742 655 c 0,33,34
 713 642 713 642 691 642 c 0,35,36
 646 642 646 642 614 677 c 0,37,38
 586 708 586 708 576 715 c 0,39,40
 554 729 554 729 522 729 c 0,41,42
 427 729 427 729 350 692 c 0,43,44
 318 676 318 676 297 655 c 0,45,46
 231 589 231 589 219 476 c 0,47,48
 216 455 216 455 216 435 c 0,49,50
 216 263 216 263 374 184 c 0,51,52
 443 149 443 149 510 144 c 0,53,54
 545 143 545 143 638 143 c 0,55,56
 826 143 826 143 956 234 c 1,57,-1
 1033 292 l 2,58,59
 1058 307 1058 307 1078 307 c 0,0,1
291 -150 m 0,60,61
 285 -150 285 -150 285 -143 c 0,62,63
 285 -122 285 -122 328 -81 c 0,64,65
 369 -42 369 -42 413 -19 c 0,66,67
 471 12 471 12 530 12 c 0,68,69
 602 12 602 12 650 -33 c 0,70,71
 698 -80 698 -80 700 -145 c 0,72,73
 700 -219 700 -219 644 -290 c 0,74,75
 595 -351 595 -351 528 -380 c 0,76,77
 489 -397 489 -397 454 -397 c 0,78,79
 391 -397 391 -397 362 -367 c 0,80,81
 346 -350 346 -350 345 -327 c 0,82,83
 344 -282 344 -282 383 -263 c 0,84,85
 397 -256 397 -256 408 -256 c 0,86,87
 428 -256 428 -256 444 -270 c 0,88,89
 461 -286 461 -286 467 -290 c 0,90,91
 490 -305 490 -305 532 -305 c 0,92,93
 564 -305 564 -305 585 -294 c 0,94,95
 591 -291 591 -291 594 -287 c 0,96,97
 608 -262 608 -262 608 -228 c 0,98,99
 608 -161 608 -161 559 -118 c 0,100,101
 515 -80 515 -80 453 -81 c 0,102,103
 392 -81 392 -81 344 -117 c 2,104,-1
 313 -142 l 2,105,106
 301 -150 301 -150 291 -150 c 0,60,61
EndSplineSet
Validated: 37
EndChar

StartChar: Egrave
Encoding: 200 200 96
Width: 1199
Flags: W
LayerCount: 2
Fore
SplineSet
357 577 m 1,0,1
 268 511 268 511 211.5 432.5 c 128,-1,2
 155 354 155 354 133.5 274.5 c 128,-1,3
 112 195 112 195 118 111.5 c 128,-1,4
 124 28 124 28 155.5 -48.5 c 128,-1,5
 187 -125 187 -125 241 -196 c 128,-1,6
 295 -267 295 -267 366 -323 c 128,-1,7
 437 -379 437 -379 525.5 -420 c 128,-1,8
 614 -461 614 -461 710 -480 c 1,9,10
 793 -479 793 -479 866.5 -447.5 c 128,-1,11
 940 -416 940 -416 974 -369 c 0,12,13
 994 -342 994 -342 992 -289 c 0,14,15
 991 -233 991 -233 1004 -208 c 0,16,17
 1008 -201 1008 -201 1013 -194 c 0,18,19
 1052 -141 1052 -141 1124 -142 c 0,20,21
 1169 -144 1169 -144 1200 -167 c 0,22,23
 1242 -198 1242 -198 1240 -256 c 0,24,25
 1238 -307 1238 -307 1198 -361 c 0,26,27
 1144 -434 1144 -434 1057 -490 c 128,-1,28
 970 -546 970 -546 849 -569 c 0,29,30
 765 -584 765 -584 654 -578 c 1,31,32
 412 -578 412 -578 183 -399 c 0,33,34
 23 -273 23 -273 -16 -85 c 0,35,36
 -27 -32 -27 -32 -27 22 c 0,37,38
 -27 179 -27 179 46 317 c 2,39,-1
 61 345 l 1,40,41
 184 560 184 560 431 721 c 0,42,43
 493 761 493 761 552 791 c 1,44,45
 607 810 607 810 624 800 c 0,46,47
 653 782 653 782 494 669 c 0,48,49
 437 629 437 629 357 577 c 1,50,-1
 357 577 l 1,0,1
293 600 m 1,51,-1
 317 623 l 2,52,53
 393 699 393 699 479 759 c 0,54,55
 517 786 517 786 558 810 c 0,56,57
 695 891 695 891 796 891 c 0,58,59
 942 891 942 891 1034 770 c 0,60,61
 1051 747 1051 747 1063 724 c 0,62,63
 1102 650 1102 650 1102 569 c 0,64,65
 1102 378 1102 378 956 209 c 0,66,67
 886 128 886 128 794 68 c 0,68,69
 669 -14 669 -14 546 -14 c 0,70,71
 419 -14 419 -14 397 64 c 0,72,73
 394 77 394 77 394 91 c 0,74,75
 394 146 394 146 439 188 c 0,76,77
 478 223 478 223 529 223 c 0,78,79
 575 223 575 223 609 189 c 0,80,81
 638 160 638 160 651 153 c 0,82,83
 668 146 668 146 689 146 c 0,84,85
 847 146 847 146 904 292 c 0,86,87
 928 354 928 354 928 428 c 0,88,89
 928 577 928 577 817 669 c 0,90,91
 791 691 791 691 765 704 c 0,92,93
 710 731 710 731 653 731 c 1,94,95
 582 717 582 717 511 681 c 128,-1,96
 440 645 440 645 381.5 596.5 c 128,-1,97
 323 548 323 548 275.5 493.5 c 128,-1,98
 228 439 228 439 196 383 c 0,99,100
 63 164 63 164 62 186 c 0,101,102
 62 209 62 209 165 392 c 0,103,104
 240 525 240 525 293 600 c 1,105,-1
 293 600 l 1,51,-1
849 1030 m 0,106,107
 842 1030 842 1030 816 1049 c 0,108,109
 723 1120 723 1120 473 1357 c 0,110,111
 396 1431 396 1431 389 1439 c 0,112,113
 368 1461 368 1461 368 1479 c 0,114,115
 368 1486 368 1486 370 1492 c 0,116,117
 377 1514 377 1514 403 1513 c 0,118,119
 423 1513 423 1513 448 1489 c 2,120,-1
 530 1409 l 2,121,122
 867 1076 867 1076 867 1047 c 0,123,124
 865 1029 865 1029 849 1030 c 0,106,107
EndSplineSet
Validated: 37
EndChar

StartChar: Eacute
Encoding: 201 201 97
Width: 1181
Flags: W
LayerCount: 2
Fore
SplineSet
357 577 m 1,0,1
 268 511 268 511 211.5 432.5 c 128,-1,2
 155 354 155 354 133.5 274.5 c 128,-1,3
 112 195 112 195 118 111.5 c 128,-1,4
 124 28 124 28 155.5 -48.5 c 128,-1,5
 187 -125 187 -125 241 -196 c 128,-1,6
 295 -267 295 -267 366 -323 c 128,-1,7
 437 -379 437 -379 525.5 -420 c 128,-1,8
 614 -461 614 -461 710 -480 c 1,9,10
 793 -479 793 -479 866.5 -447.5 c 128,-1,11
 940 -416 940 -416 974 -369 c 0,12,13
 994 -342 994 -342 992 -289 c 0,14,15
 991 -233 991 -233 1004 -208 c 0,16,17
 1008 -201 1008 -201 1013 -194 c 0,18,19
 1052 -141 1052 -141 1124 -142 c 0,20,21
 1169 -144 1169 -144 1200 -167 c 0,22,23
 1242 -198 1242 -198 1240 -256 c 0,24,25
 1238 -307 1238 -307 1198 -361 c 0,26,27
 1144 -434 1144 -434 1057 -490 c 128,-1,28
 970 -546 970 -546 849 -569 c 0,29,30
 765 -584 765 -584 654 -578 c 1,31,32
 412 -578 412 -578 183 -399 c 0,33,34
 23 -273 23 -273 -16 -85 c 0,35,36
 -27 -32 -27 -32 -27 22 c 0,37,38
 -27 179 -27 179 46 317 c 2,39,-1
 61 345 l 1,40,41
 184 560 184 560 431 721 c 0,42,43
 493 761 493 761 552 791 c 1,44,45
 607 810 607 810 624 800 c 0,46,47
 653 782 653 782 494 669 c 0,48,49
 437 629 437 629 357 577 c 1,50,-1
 357 577 l 1,0,1
293 600 m 1,51,-1
 317 623 l 2,52,53
 393 699 393 699 479 759 c 0,54,55
 517 786 517 786 558 810 c 0,56,57
 695 891 695 891 796 891 c 0,58,59
 942 891 942 891 1034 770 c 0,60,61
 1051 747 1051 747 1063 724 c 0,62,63
 1102 650 1102 650 1102 569 c 0,64,65
 1102 378 1102 378 956 209 c 0,66,67
 886 128 886 128 794 68 c 0,68,69
 669 -14 669 -14 546 -14 c 0,70,71
 419 -14 419 -14 397 64 c 0,72,73
 394 77 394 77 394 91 c 0,74,75
 394 146 394 146 439 188 c 0,76,77
 478 223 478 223 529 223 c 0,78,79
 575 223 575 223 609 189 c 0,80,81
 638 160 638 160 651 153 c 0,82,83
 668 146 668 146 689 146 c 0,84,85
 847 146 847 146 904 292 c 0,86,87
 928 354 928 354 928 428 c 0,88,89
 928 577 928 577 817 669 c 0,90,91
 791 691 791 691 765 704 c 0,92,93
 710 731 710 731 653 731 c 1,94,95
 582 717 582 717 511 681 c 128,-1,96
 440 645 440 645 381.5 596.5 c 128,-1,97
 323 548 323 548 275.5 493.5 c 128,-1,98
 228 439 228 439 196 383 c 0,99,100
 63 164 63 164 62 186 c 0,101,102
 62 209 62 209 165 392 c 0,103,104
 240 525 240 525 293 600 c 1,105,-1
 293 600 l 1,51,-1
698 1040 m 0,106,107
 682 1039 682 1039 680 1057 c 0,108,109
 680 1086 680 1086 1017 1418 c 2,110,-1
 1099 1498 l 2,111,112
 1124 1523 1124 1523 1144 1523 c 0,113,114
 1169 1523 1169 1523 1177 1501 c 0,115,116
 1179 1495 1179 1495 1179 1489 c 0,117,118
 1179 1471 1179 1471 1158 1448 c 0,119,120
 1151 1441 1151 1441 1074 1367 c 0,121,122
 824 1130 824 1130 731 1059 c 0,123,124
 705 1040 705 1040 698 1040 c 0,106,107
EndSplineSet
Validated: 37
EndChar

StartChar: Ecircumflex
Encoding: 202 202 98
Width: 1199
Flags: W
LayerCount: 2
Fore
SplineSet
357 577 m 1,0,1
 268 511 268 511 211.5 432.5 c 128,-1,2
 155 354 155 354 133.5 274.5 c 128,-1,3
 112 195 112 195 118 111.5 c 128,-1,4
 124 28 124 28 155.5 -48.5 c 128,-1,5
 187 -125 187 -125 241 -196 c 128,-1,6
 295 -267 295 -267 366 -323 c 128,-1,7
 437 -379 437 -379 525.5 -420 c 128,-1,8
 614 -461 614 -461 710 -480 c 1,9,10
 793 -479 793 -479 866.5 -447.5 c 128,-1,11
 940 -416 940 -416 974 -369 c 0,12,13
 994 -342 994 -342 992 -289 c 0,14,15
 991 -233 991 -233 1004 -208 c 0,16,17
 1008 -201 1008 -201 1013 -194 c 0,18,19
 1052 -141 1052 -141 1124 -142 c 0,20,21
 1169 -144 1169 -144 1200 -167 c 0,22,23
 1242 -198 1242 -198 1240 -256 c 0,24,25
 1238 -307 1238 -307 1198 -361 c 0,26,27
 1144 -434 1144 -434 1057 -490 c 128,-1,28
 970 -546 970 -546 849 -569 c 0,29,30
 765 -584 765 -584 654 -578 c 1,31,32
 412 -578 412 -578 183 -399 c 0,33,34
 23 -273 23 -273 -16 -85 c 0,35,36
 -27 -32 -27 -32 -27 22 c 0,37,38
 -27 179 -27 179 46 317 c 2,39,-1
 61 345 l 1,40,41
 184 560 184 560 431 721 c 0,42,43
 493 761 493 761 552 791 c 1,44,45
 607 810 607 810 624 800 c 0,46,47
 653 782 653 782 494 669 c 0,48,49
 437 629 437 629 357 577 c 1,50,-1
 357 577 l 1,0,1
293 600 m 1,51,-1
 317 623 l 2,52,53
 393 699 393 699 479 759 c 0,54,55
 517 786 517 786 558 810 c 0,56,57
 695 891 695 891 796 891 c 0,58,59
 942 891 942 891 1034 770 c 0,60,61
 1051 747 1051 747 1063 724 c 0,62,63
 1102 650 1102 650 1102 569 c 0,64,65
 1102 378 1102 378 956 209 c 0,66,67
 886 128 886 128 794 68 c 0,68,69
 669 -14 669 -14 546 -14 c 0,70,71
 419 -14 419 -14 397 64 c 0,72,73
 394 77 394 77 394 91 c 0,74,75
 394 146 394 146 439 188 c 0,76,77
 478 223 478 223 529 223 c 0,78,79
 575 223 575 223 609 189 c 0,80,81
 638 160 638 160 651 153 c 0,82,83
 668 146 668 146 689 146 c 0,84,85
 847 146 847 146 904 292 c 0,86,87
 928 354 928 354 928 428 c 0,88,89
 928 577 928 577 817 669 c 0,90,91
 791 691 791 691 765 704 c 0,92,93
 710 731 710 731 653 731 c 1,94,95
 582 717 582 717 511 681 c 128,-1,96
 440 645 440 645 381.5 596.5 c 128,-1,97
 323 548 323 548 275.5 493.5 c 128,-1,98
 228 439 228 439 196 383 c 0,99,100
 63 164 63 164 62 186 c 0,101,102
 62 209 62 209 165 392 c 0,103,104
 240 525 240 525 293 600 c 1,105,-1
 293 600 l 1,51,-1
515 1022 m 0,106,107
 504 1022 504 1022 504 1032 c 0,108,109
 504 1056 504 1056 545 1096 c 2,110,-1
 664 1208 l 2,111,112
 766 1309 766 1309 874 1440 c 0,113,114
 915 1489 915 1489 957 1506 c 0,115,116
 967 1510 967 1510 974 1510 c 0,117,118
 985 1510 985 1510 994 1471 c 0,119,120
 1018 1366 1018 1366 1048 1302 c 0,121,122
 1087 1222 1087 1222 1151 1150 c 0,123,124
 1160 1139 1160 1139 1160 1135 c 0,125,126
 1160 1113 1160 1113 1115 1068 c 0,127,128
 1068 1022 1068 1022 1038 1022 c 0,129,130
 1019 1022 1019 1022 969 1100 c 0,131,132
 894 1219 894 1219 863 1339 c 0,133,134
 862 1339 862 1339 770 1241 c 0,135,136
 566 1022 566 1022 515 1022 c 0,106,107
EndSplineSet
Validated: 37
EndChar

StartChar: Edieresis
Encoding: 203 203 99
Width: 1181
Flags: W
LayerCount: 2
Fore
SplineSet
357 577 m 1,0,1
 268 511 268 511 211.5 432.5 c 128,-1,2
 155 354 155 354 133.5 274.5 c 128,-1,3
 112 195 112 195 118 111.5 c 128,-1,4
 124 28 124 28 155.5 -48.5 c 128,-1,5
 187 -125 187 -125 241 -196 c 128,-1,6
 295 -267 295 -267 366 -323 c 128,-1,7
 437 -379 437 -379 525.5 -420 c 128,-1,8
 614 -461 614 -461 710 -480 c 1,9,10
 793 -479 793 -479 866.5 -447.5 c 128,-1,11
 940 -416 940 -416 974 -369 c 0,12,13
 994 -342 994 -342 992 -289 c 0,14,15
 991 -233 991 -233 1004 -208 c 0,16,17
 1008 -201 1008 -201 1013 -194 c 0,18,19
 1052 -141 1052 -141 1124 -142 c 0,20,21
 1169 -144 1169 -144 1200 -167 c 0,22,23
 1242 -198 1242 -198 1240 -256 c 0,24,25
 1238 -307 1238 -307 1198 -361 c 0,26,27
 1144 -434 1144 -434 1057 -490 c 128,-1,28
 970 -546 970 -546 849 -569 c 0,29,30
 765 -584 765 -584 654 -578 c 1,31,32
 412 -578 412 -578 183 -399 c 0,33,34
 23 -273 23 -273 -16 -85 c 0,35,36
 -27 -32 -27 -32 -27 22 c 0,37,38
 -27 179 -27 179 46 317 c 2,39,-1
 61 345 l 1,40,41
 184 560 184 560 431 721 c 0,42,43
 493 761 493 761 552 791 c 1,44,45
 607 810 607 810 624 800 c 0,46,47
 653 782 653 782 494 669 c 0,48,49
 437 629 437 629 357 577 c 1,50,-1
 357 577 l 1,0,1
293 600 m 1,51,-1
 317 623 l 2,52,53
 393 699 393 699 479 759 c 0,54,55
 517 786 517 786 558 810 c 0,56,57
 695 891 695 891 796 891 c 0,58,59
 942 891 942 891 1034 770 c 0,60,61
 1051 747 1051 747 1063 724 c 0,62,63
 1102 650 1102 650 1102 569 c 0,64,65
 1102 378 1102 378 956 209 c 0,66,67
 886 128 886 128 794 68 c 0,68,69
 669 -14 669 -14 546 -14 c 0,70,71
 419 -14 419 -14 397 64 c 0,72,73
 394 77 394 77 394 91 c 0,74,75
 394 146 394 146 439 188 c 0,76,77
 478 223 478 223 529 223 c 0,78,79
 575 223 575 223 609 189 c 0,80,81
 638 160 638 160 651 153 c 0,82,83
 668 146 668 146 689 146 c 0,84,85
 847 146 847 146 904 292 c 0,86,87
 928 354 928 354 928 428 c 0,88,89
 928 577 928 577 817 669 c 0,90,91
 791 691 791 691 765 704 c 0,92,93
 710 731 710 731 653 731 c 1,94,95
 582 717 582 717 511 681 c 128,-1,96
 440 645 440 645 381.5 596.5 c 128,-1,97
 323 548 323 548 275.5 493.5 c 128,-1,98
 228 439 228 439 196 383 c 0,99,100
 63 164 63 164 62 186 c 0,101,102
 62 209 62 209 165 392 c 0,103,104
 240 525 240 525 293 600 c 1,105,-1
 293 600 l 1,51,-1
607 1077 m 0,106,107
 588 1082 588 1082 586 1104 c 1,108,109
 624 1213 624 1213 666 1319 c 0,110,111
 708 1419 708 1419 731 1440 c 0,112,113
 746 1454 746 1454 765 1454 c 0,114,115
 798 1454 798 1454 808 1422 c 0,116,117
 811 1413 811 1413 811 1403 c 0,118,119
 811 1375 811 1375 764 1297 c 2,120,-1
 744 1263 l 1,121,-1
 675 1157 l 1,122,-1
 637 1097 l 2,123,124
 622 1077 622 1077 607 1077 c 0,106,107
929 1077 m 0,125,126
 910 1082 910 1082 908 1104 c 1,127,128
 946 1213 946 1213 988 1319 c 0,129,130
 1030 1419 1030 1419 1053 1440 c 0,131,132
 1068 1454 1068 1454 1087 1454 c 0,133,134
 1120 1454 1120 1454 1130 1422 c 0,135,136
 1133 1413 1133 1413 1133 1403 c 0,137,138
 1133 1375 1133 1375 1086 1297 c 2,139,-1
 1066 1263 l 1,140,-1
 997 1157 l 1,141,-1
 959 1097 l 2,142,143
 944 1077 944 1077 929 1077 c 0,125,126
EndSplineSet
Validated: 37
EndChar

StartChar: Igrave
Encoding: 204 204 100
Width: 521
Flags: W
LayerCount: 2
Fore
SplineSet
-42 675 m 0,0,1
 -42 705 -42 705 13 761 c 0,2,3
 116 862 116 862 267 895 c 0,4,5
 306 903 306 903 346 906 c 2,6,-1
 375 906 l 2,7,8
 462 906 462 906 500 825 c 0,9,10
 521 781 521 781 521 723 c 0,11,12
 521 628 521 628 452 444 c 0,13,14
 361 201 361 201 244 75 c 0,15,16
 175 0 175 0 125 -14 c 0,17,18
 118 -16 118 -16 112 -16 c 0,19,20
 96 -16 96 -16 96 -3 c 0,21,22
 96 17 96 17 147 78 c 0,23,24
 164 98 164 98 169 106 c 0,25,26
 255 234 255 234 315 435 c 0,27,28
 347 540 347 540 347 590 c 0,29,30
 347 689 347 689 286 729 c 0,31,32
 260 747 260 747 226 747 c 0,33,34
 117 747 117 747 42 695 c 0,35,36
 1 667 1 667 -11 664 c 0,37,38
 -18 662 -18 662 -26 662 c 0,39,40
 -42 662 -42 662 -42 675 c 0,0,1
394 1109 m 0,41,42
 387 1111 387 1111 367 1137 c 0,43,44
 293 1232 293 1232 109 1533 c 0,45,46
 52 1627 52 1627 48 1636 c 0,47,48
 33 1664 33 1664 38 1681 c 0,49,50
 40 1688 40 1688 43 1693 c 0,51,52
 56 1712 56 1712 81 1706 c 0,53,54
 101 1701 101 1701 119 1670 c 2,55,-1
 179 1569 l 2,56,57
 424 1151 424 1151 416 1122 c 0,58,59
 409 1104 409 1104 394 1109 c 0,41,42
EndSplineSet
Validated: 33
EndChar

StartChar: Iacute
Encoding: 205 205 101
Width: 524
Flags: W
LayerCount: 2
Fore
SplineSet
-42 675 m 0,0,1
 -42 705 -42 705 13 761 c 0,2,3
 116 862 116 862 267 895 c 0,4,5
 306 903 306 903 346 906 c 2,6,-1
 375 906 l 2,7,8
 462 906 462 906 500 825 c 0,9,10
 521 781 521 781 521 723 c 0,11,12
 521 628 521 628 452 444 c 0,13,14
 361 201 361 201 244 75 c 0,15,16
 175 0 175 0 125 -14 c 0,17,18
 118 -16 118 -16 112 -16 c 0,19,20
 96 -16 96 -16 96 -3 c 0,21,22
 96 17 96 17 147 78 c 0,23,24
 164 98 164 98 169 106 c 0,25,26
 255 234 255 234 315 435 c 0,27,28
 347 540 347 540 347 590 c 0,29,30
 347 689 347 689 286 729 c 0,31,32
 260 747 260 747 226 747 c 0,33,34
 117 747 117 747 42 695 c 0,35,36
 1 667 1 667 -11 664 c 0,37,38
 -18 662 -18 662 -26 662 c 0,39,40
 -42 662 -42 662 -42 675 c 0,0,1
466 1127 m 0,41,42
 451 1122 451 1122 443 1139 c 0,43,44
 435 1168 435 1168 681 1587 c 2,45,-1
 740 1687 l 2,46,47
 759 1718 759 1718 779 1724 c 0,48,49
 803 1731 803 1731 816 1711 c 0,50,51
 820 1706 820 1706 822 1699 c 0,52,53
 827 1681 827 1681 812 1653 c 0,54,55
 807 1644 807 1644 751 1551 c 0,56,57
 567 1250 567 1250 493 1155 c 0,58,59
 473 1129 473 1129 466 1127 c 0,41,42
EndSplineSet
Validated: 33
EndChar

StartChar: Icircumflex
Encoding: 206 206 102
Width: 527
Flags: W
LayerCount: 2
Fore
SplineSet
-42 675 m 0,0,1
 -42 705 -42 705 13 761 c 0,2,3
 116 862 116 862 267 895 c 0,4,5
 306 903 306 903 346 906 c 2,6,-1
 375 906 l 2,7,8
 462 906 462 906 500 825 c 0,9,10
 521 781 521 781 521 723 c 0,11,12
 521 628 521 628 452 444 c 0,13,14
 361 201 361 201 244 75 c 0,15,16
 175 0 175 0 125 -14 c 0,17,18
 118 -16 118 -16 112 -16 c 0,19,20
 96 -16 96 -16 96 -3 c 0,21,22
 96 17 96 17 147 78 c 0,23,24
 164 98 164 98 169 106 c 0,25,26
 255 234 255 234 315 435 c 0,27,28
 347 540 347 540 347 590 c 0,29,30
 347 689 347 689 286 729 c 0,31,32
 260 747 260 747 226 747 c 0,33,34
 117 747 117 747 42 695 c 0,35,36
 1 667 1 667 -11 664 c 0,37,38
 -18 662 -18 662 -26 662 c 0,39,40
 -42 662 -42 662 -42 675 c 0,0,1
86 1080 m 0,41,42
 75 1080 75 1080 75 1090 c 0,43,44
 75 1114 75 1114 116 1154 c 2,45,-1
 235 1266 l 2,46,47
 337 1367 337 1367 445 1498 c 0,48,49
 486 1547 486 1547 528 1564 c 0,50,51
 538 1568 538 1568 545 1568 c 0,52,53
 556 1568 556 1568 565 1529 c 0,54,55
 589 1424 589 1424 619 1360 c 0,56,57
 658 1280 658 1280 722 1208 c 0,58,59
 731 1197 731 1197 731 1193 c 0,60,61
 731 1171 731 1171 686 1126 c 0,62,63
 639 1080 639 1080 609 1080 c 0,64,65
 590 1080 590 1080 540 1158 c 0,66,67
 465 1277 465 1277 434 1397 c 0,68,69
 433 1397 433 1397 341 1299 c 0,70,71
 137 1080 137 1080 86 1080 c 0,41,42
EndSplineSet
Validated: 1
EndChar

StartChar: Idieresis
Encoding: 207 207 103
Width: 527
Flags: W
LayerCount: 2
Fore
SplineSet
-42 675 m 0,0,1
 -42 705 -42 705 13 761 c 0,2,3
 116 862 116 862 267 895 c 0,4,5
 306 903 306 903 346 906 c 2,6,-1
 375 906 l 2,7,8
 462 906 462 906 500 825 c 0,9,10
 521 781 521 781 521 723 c 0,11,12
 521 628 521 628 452 444 c 0,13,14
 361 201 361 201 244 75 c 0,15,16
 175 0 175 0 125 -14 c 0,17,18
 118 -16 118 -16 112 -16 c 0,19,20
 96 -16 96 -16 96 -3 c 0,21,22
 96 17 96 17 147 78 c 0,23,24
 164 98 164 98 169 106 c 0,25,26
 255 234 255 234 315 435 c 0,27,28
 347 540 347 540 347 590 c 0,29,30
 347 689 347 689 286 729 c 0,31,32
 260 747 260 747 226 747 c 0,33,34
 117 747 117 747 42 695 c 0,35,36
 1 667 1 667 -11 664 c 0,37,38
 -18 662 -18 662 -26 662 c 0,39,40
 -42 662 -42 662 -42 675 c 0,0,1
287 1136 m 0,41,42
 268 1141 268 1141 266 1163 c 1,43,44
 304 1272 304 1272 346 1378 c 0,45,46
 388 1478 388 1478 411 1499 c 0,47,48
 426 1513 426 1513 445 1513 c 0,49,50
 478 1513 478 1513 488 1481 c 0,51,52
 491 1472 491 1472 491 1462 c 0,53,54
 491 1434 491 1434 444 1356 c 2,55,-1
 424 1322 l 1,56,-1
 355 1216 l 1,57,-1
 317 1156 l 2,58,59
 302 1136 302 1136 287 1136 c 0,41,42
610 1136 m 0,60,61
 591 1141 591 1141 589 1163 c 1,62,63
 627 1272 627 1272 669 1378 c 0,64,65
 711 1478 711 1478 734 1499 c 0,66,67
 749 1513 749 1513 768 1513 c 0,68,69
 801 1513 801 1513 811 1481 c 0,70,71
 814 1472 814 1472 814 1462 c 0,72,73
 814 1434 814 1434 767 1356 c 2,74,-1
 747 1322 l 1,75,-1
 678 1216 l 1,76,-1
 640 1156 l 2,77,78
 625 1136 625 1136 610 1136 c 0,60,61
EndSplineSet
Validated: 1
EndChar

StartChar: Eth
Encoding: 208 208 104
Width: 1353
Flags: W
LayerCount: 2
Fore
SplineSet
1274 -16 m 0,0,1
 1247 -16 1247 -16 1206 14 c 0,2,3
 1104 89 1104 89 1019 267 c 0,4,5
 949 412 949 412 854 527 c 0,6,7
 687 728 687 728 529 728 c 0,8,9
 509 728 509 728 498 727 c 0,10,11
 423 716 423 716 360 662 c 0,12,13
 256 572 256 572 256 426 c 0,14,15
 256 359 256 359 282 292 c 0,16,17
 292 267 292 267 302 248 c 0,18,19
 359 144 359 144 489 144 c 0,20,21
 517 144 517 144 537 154 c 0,22,23
 550 160 550 160 578 188 c 0,24,25
 610 221 610 221 658 221 c 0,26,27
 708 221 708 221 747 183 c 0,28,29
 791 141 791 141 791 89 c 0,30,31
 791 78 791 78 788 67 c 0,32,33
 770 -16 770 -16 638 -16 c 0,34,35
 559 -16 559 -16 472 22 c 0,36,37
 323 88 323 88 211 227 c 0,38,39
 82 389 82 389 82 557 c 0,40,41
 82 698 82 698 166 791 c 0,42,43
 253 888 253 888 387 888 c 0,44,45
 580 888 580 888 834 651 c 0,46,47
 891 597 891 597 895 597 c 1,48,-1
 895 597 l 1,49,50
 895 602 895 602 894 607 c 2,51,-1
 854 730 l 1,52,53
 638 1444 638 1444 452 1806 c 0,54,55
 330 2045 330 2045 161 2238 c 2,56,-1
 139 2263 l 2,57,58
 131 2271 131 2271 33 2368 c 0,59,60
 -35 2436 -35 2436 -35 2465 c 0,61,62
 -35 2478 -35 2478 -21 2478 c 0,63,64
 41 2478 41 2478 230 2272 c 0,65,66
 517 1958 517 1958 722 1490 c 0,67,68
 770 1381 770 1381 804 1290 c 0,69,70
 860 1137 860 1137 1082 436 c 0,71,72
 1123 307 1123 307 1162 217 c 0,73,74
 1212 101 1212 101 1271 36 c 0,75,76
 1290 14 1290 14 1290 -3 c 0,77,78
 1290 -16 1290 -16 1274 -16 c 0,0,1
817 2071 m 0,79,80
 984 2167 984 2167 1033 2287 c 2,81,-1
 1058 2351 l 2,82,83
 1068 2370 1068 2370 1082 2379 c 0,84,85
 1093 2385 1093 2385 1099 2377 c 0,86,87
 1111 2355 1111 2355 1091 2293 c 0,88,89
 1023 2083 1023 2083 856 1958 c 0,90,91
 820 1932 820 1932 779 1907 c 0,92,93
 662 1839 662 1839 441 1763 c 0,94,95
 228 1688 228 1688 133 1641 c 0,96,97
 103 1626 103 1626 77 1611 c 0,98,99
 -92 1513 -92 1513 -140 1395 c 2,100,-1
 -166 1330 l 2,101,102
 -176 1311 -176 1311 -191 1301 c 0,103,104
 -201 1295 -201 1295 -206 1304 c 0,105,106
 -220 1329 -220 1329 -194 1408 c 0,107,108
 -145 1554 -145 1554 -23 1672 c 0,109,110
 39 1731 39 1731 112 1773 c 0,111,112
 223 1837 223 1837 443 1914 c 0,113,114
 663 1990 663 1990 761 2042 c 0,115,116
 790 2055 790 2055 817 2071 c 0,79,80
EndSplineSet
Validated: 37
EndChar

StartChar: Ntilde
Encoding: 209 209 105
Width: 1259
Flags: W
LayerCount: 2
Fore
SplineSet
-174 675 m 0,0,1
 -174 705 -174 705 -119 761 c 0,2,3
 -16 862 -16 862 135 895 c 0,4,5
 174 903 174 903 214 906 c 2,6,-1
 243 906 l 2,7,8
 330 906 330 906 368 825 c 0,9,10
 389 781 389 781 389 723 c 0,11,12
 389 682 389 682 369 598 c 1,13,-1
 393 621 l 2,14,15
 503 731 503 731 634 808 c 0,16,17
 771 889 771 889 872 889 c 0,18,19
 1018 889 1018 889 1110 768 c 0,20,21
 1127 745 1127 745 1139 722 c 0,22,23
 1178 648 1178 648 1178 567 c 0,24,25
 1178 376 1178 376 1032 207 c 0,26,27
 962 126 962 126 870 66 c 0,28,29
 745 -16 745 -16 622 -16 c 0,30,31
 495 -16 495 -16 473 62 c 0,32,33
 470 75 470 75 470 89 c 0,34,35
 470 144 470 144 515 186 c 0,36,37
 554 221 554 221 605 221 c 0,38,39
 651 221 651 221 685 187 c 0,40,41
 714 158 714 158 727 151 c 0,42,43
 744 144 744 144 765 144 c 0,44,45
 923 144 923 144 980 290 c 0,46,47
 1004 352 1004 352 1004 426 c 0,48,49
 1004 575 1004 575 893 667 c 0,50,51
 867 689 867 689 841 702 c 0,52,53
 786 729 786 729 729 729 c 0,54,55
 637 729 637 729 534 653 c 0,56,57
 515 638 515 638 492 619 c 0,58,59
 389 534 389 534 290 358 c 2,60,-1
 194 186 l 2,61,62
 175 153 175 153 157 129 c 0,63,64
 65 6 65 6 -3 -14 c 0,65,66
 -12 -16 -12 -16 -20 -16 c 0,67,68
 -36 -16 -36 -16 -36 -3 c 0,69,70
 -36 17 -36 17 15 78 c 0,71,72
 32 98 32 98 37 106 c 0,73,74
 123 234 123 234 183 435 c 0,75,76
 215 540 215 540 215 590 c 0,77,78
 215 689 215 689 154 729 c 0,79,80
 128 747 128 747 94 747 c 0,81,82
 -15 747 -15 747 -90 695 c 0,83,84
 -131 667 -131 667 -143 664 c 0,85,86
 -150 662 -150 662 -158 662 c 0,87,88
 -174 662 -174 662 -174 675 c 0,0,1
997 1246 m 0,89,90
 1098 1246 1098 1246 1140 1280 c 2,91,-1
 1172 1306 l 2,92,93
 1186 1315 1186 1315 1204 1320 c 1,94,-1
 1213 1320 l 2,95,96
 1223 1319 1223 1319 1223 1310 c 0,97,98
 1223 1286 1223 1286 1174 1239 c 0,99,100
 1077 1148 1077 1148 946 1128 c 0,101,102
 916 1123 916 1123 885 1123 c 0,103,104
 809 1123 809 1123 661 1151 c 0,105,106
 539 1175 539 1175 466 1175 c 0,107,108
 363 1175 363 1175 302 1129 c 0,109,110
 271 1105 271 1105 260 1102 c 0,111,112
 255 1101 255 1101 248 1101 c 0,113,114
 237 1101 237 1101 237 1111 c 0,115,116
 237 1136 237 1136 287 1184 c 0,117,118
 383 1274 383 1274 515 1294 c 0,119,120
 546 1298 546 1298 576 1298 c 0,121,122
 649 1298 649 1298 803 1269 c 0,123,124
 926 1246 926 1246 997 1246 c 0,89,90
EndSplineSet
Validated: 1
EndChar

StartChar: Ograve
Encoding: 210 210 106
Width: 923
Flags: W
LayerCount: 2
Fore
SplineSet
17 328 m 0,0,1
 17 513 17 513 170 674 c 0,2,3
 294 803 294 803 457 860 c 0,4,5
 539 888 539 888 610 888 c 0,6,7
 761 888 761 888 848 778 c 0,8,9
 921 685 921 685 921 546 c 0,10,11
 921 359 921 359 766 196 c 0,12,13
 683 110 683 110 575 52 c 0,14,15
 446 -16 446 -16 314 -16 c 0,16,17
 175 -16 175 -16 91 93 c 0,18,19
 17 188 17 188 17 328 c 0,0,1
191 459 m 0,20,21
 191 320 191 320 275 227 c 0,22,23
 351 143 351 143 458 143 c 0,24,25
 542 143 542 143 617 174 c 0,26,27
 657 189 657 189 679 211 c 0,28,29
 739 269 739 269 746 394 c 0,30,31
 747 405 747 405 747 414 c 0,32,33
 747 560 747 560 660 650 c 0,34,35
 585 728 585 728 472 728 c 0,36,37
 399 728 399 728 323 699 c 0,38,39
 269 678 269 678 247 647 c 0,40,41
 191 571 191 571 191 459 c 0,20,21
46 1557 m 0,42,43
 53 1557 53 1557 79 1538 c 0,44,45
 172 1467 172 1467 422 1230 c 0,46,47
 499 1156 499 1156 505 1148 c 0,48,49
 526 1126 526 1126 526 1108 c 0,50,51
 526 1101 526 1101 524 1095 c 0,52,53
 517 1073 517 1073 492 1073 c 0,54,55
 472 1073 472 1073 446 1098 c 2,56,-1
 365 1178 l 2,57,58
 28 1511 28 1511 28 1540 c 0,59,60
 30 1558 30 1558 46 1557 c 0,42,43
EndSplineSet
Validated: 1
EndChar

StartChar: O
Encoding: 79 79 107
Width: 938
Flags: W
LayerCount: 2
Fore
SplineSet
17 328 m 0,0,1
 17 513 17 513 170 674 c 0,2,3
 294 803 294 803 457 860 c 0,4,5
 539 888 539 888 610 888 c 0,6,7
 761 888 761 888 848 778 c 0,8,9
 921 685 921 685 921 546 c 0,10,11
 921 359 921 359 766 196 c 0,12,13
 683 110 683 110 575 52 c 0,14,15
 446 -16 446 -16 314 -16 c 0,16,17
 175 -16 175 -16 91 93 c 0,18,19
 17 188 17 188 17 328 c 0,0,1
191 459 m 0,20,21
 191 320 191 320 275 227 c 0,22,23
 351 143 351 143 458 143 c 0,24,25
 542 143 542 143 617 174 c 0,26,27
 657 189 657 189 679 211 c 0,28,29
 739 269 739 269 746 394 c 0,30,31
 747 405 747 405 747 414 c 0,32,33
 747 560 747 560 660 650 c 0,34,35
 585 728 585 728 472 728 c 0,36,37
 399 728 399 728 323 699 c 0,38,39
 269 678 269 678 247 647 c 0,40,41
 191 571 191 571 191 459 c 0,20,21
EndSplineSet
Validated: 1
Substitution2: "NoCaps subtable" o
EndChar

StartChar: X
Encoding: 88 88 108
Width: 1434
Flags: W
LayerCount: 2
Fore
SplineSet
205 644 m 0,0,1
 189 644 189 644 189 657 c 0,2,3
 189 682 189 682 242 738 c 0,4,5
 344 846 344 846 486 887 c 0,6,7
 555 907 555 907 627 906 c 0,8,9
 720 905 720 905 781 838 c 0,10,11
 839 774 839 774 925 578 c 2,12,-1
 1020 365 l 1,13,14
 1111 183 1111 183 1193 164 c 0,15,16
 1206 161 1206 161 1222 161 c 0,17,18
 1294 161 1294 161 1389 235 c 0,19,20
 1459 288 1459 288 1469 294 c 0,21,22
 1491 307 1491 307 1506 307 c 1,23,24
 1519 300 1519 300 1520 291 c 0,25,26
 1520 260 1520 260 1441 186 c 0,27,28
 1325 76 1325 76 1199 27 c 0,29,30
 1132 1 1132 1 1078 1 c 0,31,32
 990 1 990 1 925 87 c 0,33,34
 873 156 873 156 787 353 c 2,35,-1
 740 463 l 1,36,37
 668 360 668 360 544 241 c 0,38,39
 304 11 304 11 139 11 c 0,40,41
 47 11 47 11 -14 68 c 0,42,43
 -37 90 -37 90 -37 102 c 0,44,45
 -37 134 -37 134 23 190 c 0,46,47
 82 247 82 247 119 248 c 0,48,49
 132 248 132 248 144 233 c 0,50,51
 167 205 167 205 200 189 c 0,52,53
 238 171 238 171 281 171 c 0,54,55
 360 171 360 171 444 246 c 0,56,57
 608 392 608 392 648 504 c 0,58,59
 660 538 660 538 660 568 c 0,60,61
 660 634 660 634 608 689 c 0,62,63
 554 746 554 746 477 746 c 0,64,65
 368 746 368 746 286 687 c 0,66,67
 239 654 239 654 230 650 c 0,68,69
 217 644 217 644 205 644 c 0,0,1
643 387 m 0,70,71
 626 386 626 386 623 406 c 0,72,73
 623 439 623 439 994 816 c 2,74,-1
 1084 906 l 2,75,76
 1112 934 1112 934 1134 934 c 0,77,78
 1161 934 1161 934 1169 909 c 0,79,80
 1171 902 1171 902 1172 895 c 0,81,82
 1172 875 1172 875 1149 849 c 0,83,84
 1142 841 1142 841 1057 757 c 0,85,86
 782 489 782 489 679 409 c 0,87,88
 650 387 650 387 643 387 c 0,70,71
EndSplineSet
Validated: 37
Substitution2: "NoCaps subtable" x
EndChar

StartChar: Y
Encoding: 89 89 109
Width: 963
Flags: W
LayerCount: 2
Fore
SplineSet
369 740 m 1,0,1
 423 794 423 794 522 845 c 0,2,3
 639 906 639 906 733 906 c 0,4,5
 882 906 882 906 912 807 c 0,6,7
 921 777 921 777 921 734 c 0,8,9
 921 524 921 524 609 -6 c 0,10,11
 132 -815 132 -815 -702 -1602 c 2,12,-1
 -841 -1733 l 2,13,14
 -938 -1819 -938 -1819 -978 -1819 c 0,15,16
 -991 -1819 -991 -1819 -991 -1806 c 0,17,18
 -991 -1772 -991 -1772 -900 -1690 c 0,19,20
 -35 -908 -35 -908 448 -91 c 1,21,-1
 463 -66 l 1,22,23
 351 36 351 36 288 257 c 1,24,-1
 218 530 l 1,25,26
 175 673 175 673 109 712 c 0,27,28
 100 718 100 718 89 722 c 0,29,30
 70 728 70 728 55 728 c 0,31,32
 51 728 51 728 46 728 c 0,33,34
 -19 728 -19 728 -89 679 c 0,35,36
 -134 647 -134 647 -151 645 c 0,37,38
 -154 644 -154 644 -158 644 c 0,39,40
 -174 644 -174 644 -174 657 c 0,41,42
 -174 699 -174 699 -94 766 c 0,43,44
 9 852 9 852 122 879 c 0,45,46
 158 888 158 888 190 888 c 0,47,48
 289 888 289 888 349 781 c 0,49,50
 359 763 359 763 369 740 c 1,0,1
747 604 m 0,51,52
 747 725 747 725 632 743 c 0,53,54
 608 746 608 746 579 746 c 0,55,56
 489 747 489 747 394 669 c 1,57,58
 474 338 474 338 516 244 c 0,59,60
 541 189 541 189 579 141 c 1,61,62
 629 217 629 217 691 383 c 0,63,64
 747 534 747 534 747 604 c 0,51,52
EndSplineSet
Validated: 33
Substitution2: "NoCaps subtable" y
EndChar

StartChar: T
Encoding: 84 84 110
Width: 1055
Flags: W
LayerCount: 2
Fore
SplineSet
376 762 m 1,0,1
 372 766 372 766 287 766 c 0,2,3
 30 766 30 766 -133 628 c 0,4,5
 -186 582 -186 582 -216 582 c 0,6,7
 -233 582 -233 582 -233 598 c 0,8,9
 -233 628 -233 628 -163 693 c 0,10,11
 -38 807 -38 807 139 866 c 0,12,13
 243 901 243 901 349 908 c 0,14,15
 367 910 367 910 371 910 c 2,16,-1
 414 910 l 2,17,18
 468 909 468 909 675 883 c 0,19,20
 878 858 878 858 1020 858 c 0,21,22
 1104 858 1104 858 1168 889 c 0,23,24
 1193 901 1193 901 1207 901 c 0,25,26
 1224 901 1224 901 1224 885 c 0,27,28
 1224 845 1224 845 1164 798 c 0,29,30
 1064 720 1064 720 915 715 c 1,31,-1
 898 715 l 2,32,33
 752 715 752 715 581 737 c 0,34,35
 537 743 537 743 514 743 c 0,36,37
 418 743 418 743 359 629 c 0,38,39
 326 566 326 566 317 493 c 0,40,41
 315 473 315 473 315 443 c 0,42,43
 315 336 315 336 381 249 c 128,-1,44
 447 162 447 162 549 146 c 0,45,46
 558 144 558 144 591 144 c 0,47,48
 762 144 762 144 859 210 c 2,49,-1
 907 243 l 2,50,51
 923 252 923 252 939 252 c 0,52,53
 954 252 954 252 954 239 c 0,54,55
 954 207 954 207 895 150 c 0,56,57
 786 44 786 44 616 3 c 0,58,59
 534 -16 534 -16 446 -16 c 0,60,61
 295 -16 295 -16 210 96 c 0,62,63
 141 189 141 189 141 330 c 0,64,65
 141 499 141 499 295 679 c 0,66,67
 336 728 336 728 376 762 c 1,0,1
EndSplineSet
Validated: 1
Substitution2: "NoCaps subtable" t
EndChar

StartChar: U
Encoding: 85 85 111
Width: 1198
Flags: W
LayerCount: 2
Fore
SplineSet
-110 675 m 0,0,1
 -110 701 -110 701 -60 755 c 0,2,3
 38 860 38 860 186 893 c 0,4,5
 244 907 244 907 306 906 c 0,6,7
 399 905 399 905 420 807 c 0,8,9
 425 784 425 784 425 760 c 0,10,11
 425 690 425 690 369 557 c 0,12,13
 317 434 317 434 308 388 c 0,14,15
 304 364 304 364 304 343 c 0,16,17
 304 254 304 254 385 193 c 0,18,19
 451 144 451 144 526 144 c 0,20,21
 645 144 645 144 759 273 c 0,22,23
 788 306 788 306 813 344 c 0,24,25
 852 404 852 404 920 539 c 0,26,27
 979 655 979 655 1041 723 c 0,28,29
 1060 743 1060 743 1081 763 c 0,30,31
 1142 819 1142 819 1181 821 c 0,32,33
 1195 821 1195 821 1195 807 c 0,34,35
 1195 787 1195 787 1169 757 c 0,36,37
 1115 694 1115 694 1082 627 c 0,38,39
 1063 589 1063 589 1046 544 c 0,40,41
 984 376 984 376 984 201 c 1,42,-1
 986 140 l 2,43,44
 987 84 987 84 906 23 c 0,45,46
 854 -16 854 -16 829 -16 c 0,47,48
 815 -16 815 -16 812 -5 c 0,49,50
 810 6 810 6 810 60 c 0,51,52
 810 145 810 145 821 214 c 0,53,54
 822 223 822 223 822 231 c 1,55,56
 821 231 821 231 804 216 c 0,57,58
 662 74 662 74 521 15 c 0,59,60
 445 -16 445 -16 380 -16 c 0,61,62
 271 -16 271 -16 194 62 c 0,63,64
 143 112 143 112 132 175 c 0,65,66
 130 189 130 189 130 218 c 0,67,68
 130 269 130 269 189 424 c 0,69,70
 247 582 247 582 250 627 c 0,71,72
 250 694 250 694 212 727 c 0,73,74
 189 747 189 747 156 747 c 0,75,76
 49 747 49 747 -27 695 c 0,77,78
 -69 667 -69 667 -81 664 c 0,79,80
 -88 662 -88 662 -94 662 c 0,81,82
 -110 662 -110 662 -110 675 c 0,0,1
EndSplineSet
Validated: 33
Substitution2: "NoCaps subtable" u
EndChar

StartChar: V
Encoding: 86 86 112
Width: 1055
Flags: W
LayerCount: 2
Fore
SplineSet
465 760 m 1,0,1
 519 814 519 814 618 865 c 0,2,3
 735 926 735 926 829 926 c 0,4,5
 978 926 978 926 1008 827 c 0,6,7
 1017 797 1017 797 1017 754 c 0,8,9
 1017 544 1017 544 705 14 c 0,10,11
 692 -7 692 -7 678 -20.5 c 128,-1,12
 664 -34 664 -34 646.5 -39 c 128,-1,13
 629 -44 629 -44 619.5 -45.5 c 128,-1,14
 610 -47 610 -47 587.5 -46.5 c 128,-1,15
 565 -46 565 -46 559 -46 c 1,16,17
 447 56 447 56 384 277 c 1,18,-1
 314 550 l 1,19,20
 271 693 271 693 205 732 c 0,21,22
 196 738 196 738 185 742 c 0,23,24
 166 748 166 748 151 748 c 2,25,-1
 142 748 l 2,26,27
 77 748 77 748 7 699 c 0,28,29
 -38 667 -38 667 -55 665 c 0,30,31
 -58 664 -58 664 -62 664 c 0,32,33
 -78 664 -78 664 -78 677 c 0,34,35
 -78 719 -78 719 2 786 c 0,36,37
 105 872 105 872 218 899 c 0,38,39
 254 908 254 908 286 908 c 0,40,41
 385 908 385 908 445 801 c 0,42,43
 455 783 455 783 465 760 c 1,0,1
843 624 m 0,44,45
 843 745 843 745 728 763 c 0,46,47
 704 766 704 766 675 766 c 0,48,49
 585 767 585 767 490 689 c 1,50,51
 570 358 570 358 612 264 c 0,52,53
 637 209 637 209 675 161 c 1,54,55
 725 237 725 237 787 403 c 0,56,57
 843 554 843 554 843 624 c 0,44,45
EndSplineSet
Validated: 33
Substitution2: "NoCaps subtable" v
EndChar

StartChar: S
Encoding: 83 83 113
Width: 542
Flags: W
LayerCount: 2
Fore
SplineSet
-1210 -877 m 0,0,1
 -1199 -877 -1199 -877 -1197 -890 c 0,2,3
 -1197 -908 -1197 -908 -1227 -943 c 0,4,5
 -1271 -994 -1271 -994 -1281 -1042 c 0,6,7
 -1286 -1064 -1286 -1064 -1286 -1089 c 0,8,9
 -1286 -1195 -1286 -1195 -1211 -1283 c 0,10,11
 -1129 -1379 -1129 -1379 -993 -1396 c 0,12,13
 -980 -1398 -980 -1398 -945 -1398 c 0,14,15
 -646 -1398 -646 -1398 -471 -1186 c 0,16,17
 -458 -1170 -458 -1170 -442 -1149 c 0,18,19
 -327 -996 -327 -996 -224 -739 c 0,20,21
 -143 -536 -143 -536 -6 -113 c 2,22,-1
 265 724 l 2,23,24
 384 1094 384 1094 409 1167 c 0,25,26
 626 1787 626 1787 911 2180 c 0,27,28
 997 2298 997 2298 1091 2400 c 0,29,30
 1274 2597 1274 2597 1338 2605 c 0,31,32
 1354 2605 1354 2605 1354 2592 c 0,33,34
 1354 2558 1354 2558 1284 2493 c 0,35,36
 874 2117 874 2117 576 1267 c 0,37,38
 548 1186 548 1186 440 847 c 2,39,-1
 165 -1 l 1,40,41
 -33 -644 -33 -644 -198 -936 c 0,42,43
 -281 -1083 -281 -1083 -391 -1208 c 0,44,45
 -615 -1462 -615 -1462 -893 -1534 c 0,46,47
 -989 -1558 -989 -1558 -1086 -1558 c 0,48,49
 -1259 -1558 -1259 -1558 -1366 -1450 c 0,50,51
 -1460 -1355 -1460 -1355 -1460 -1221 c 128,-1,52
 -1460 -1087 -1460 -1087 -1347 -967 c 0,53,54
 -1282 -898 -1282 -898 -1227 -880 c 0,55,56
 -1217 -877 -1217 -877 -1210 -877 c 0,0,1
EndSplineSet
Validated: 1
Substitution2: "NoCaps subtable" s
EndChar

StartChar: W
Encoding: 87 87 114
Width: 1894
Flags: W
LayerCount: 2
Fore
SplineSet
1497 64 m 0,0,1
 1497 166 1497 166 1508 218 c 1,2,-1
 1507 219 l 1,3,-1
 1475 190 l 2,4,5
 1432 148 1432 148 1367 99 c 0,6,7
 1213 -16 1213 -16 1096 -16 c 0,8,9
 996 -16 996 -16 918 59 c 0,10,11
 850 126 850 126 828 232 c 0,12,13
 825 232 825 232 800 206 c 0,14,15
 752 158 752 158 678 104 c 0,16,17
 512 -16 512 -16 381 -16 c 0,18,19
 282 -16 282 -16 205 60 c 0,20,21
 135 128 135 128 114 235 c 0,22,23
 106 269 106 269 106 310 c 0,24,25
 106 521 106 521 294 715 c 0,26,27
 422 848 422 848 558 880 c 0,28,29
 581 886 581 886 607 888 c 0,30,31
 610 888 610 888 620 888 c 0,32,33
 771 888 771 888 786 798 c 0,34,35
 788 787 788 787 788 775 c 0,36,37
 788 709 788 709 728 667 c 0,38,39
 692 642 692 642 653 642 c 0,40,41
 609 642 609 642 576 677 c 0,42,43
 548 708 548 708 538 715 c 0,44,45
 517 729 517 729 486 729 c 0,46,47
 399 729 399 729 357 675 c 0,48,49
 283 570 283 570 281 443 c 0,50,51
 281 335 281 335 344 246 c 0,52,53
 416 143 416 143 525 143 c 0,54,55
 628 143 628 143 715 222 c 0,56,57
 797 296 797 296 834 421 c 0,58,59
 883 588 883 588 1018 724 c 0,60,61
 1152 860 1152 860 1294 884 c 0,62,63
 1320 889 1320 889 1345 889 c 0,64,65
 1474 889 1474 889 1498 807 c 0,66,67
 1503 792 1503 792 1503 776 c 0,68,69
 1503 708 1503 708 1442 666 c 0,70,71
 1407 642 1407 642 1371 642 c 0,72,73
 1323 642 1323 642 1290 678 c 0,74,75
 1262 709 1262 709 1252 715 c 0,76,77
 1231 729 1231 729 1200 729 c 0,78,79
 1134 729 1134 729 1093 698 c 0,80,81
 1087 694 1087 694 1083 689 c 0,82,83
 1008 606 1008 606 996 472 c 0,84,85
 995 456 995 456 995 443 c 0,86,87
 995 257 995 257 1129 179 c 0,88,89
 1188 144 1188 144 1240 144 c 0,90,91
 1346 144 1346 144 1447 263 c 0,92,93
 1470 290 1470 290 1489 320 c 0,94,95
 1531 385 1531 385 1600 524 c 0,96,97
 1660 645 1660 645 1723 716 c 0,98,99
 1744 740 1744 740 1768 763 c 0,100,101
 1828 816 1828 816 1868 821 c 0,102,103
 1883 821 1883 821 1883 806 c 0,104,105
 1883 787 1883 787 1858 758 c 0,106,107
 1801 693 1801 693 1765 619 c 0,108,109
 1749 584 1749 584 1734 544 c 0,110,111
 1671 379 1671 379 1671 191 c 1,112,-1
 1674 129 l 2,113,114
 1674 88 1674 88 1600 30 c 0,115,116
 1543 -16 1543 -16 1516 -16 c 0,117,118
 1502 -16 1502 -16 1499 -4 c 0,119,120
 1497 6 1497 6 1497 64 c 0,0,1
EndSplineSet
Validated: 1
Substitution2: "NoCaps subtable" w
EndChar

StartChar: s.final
Encoding: 257 -1 116
Width: 1060
Flags: W
LayerCount: 2
Fore
SplineSet
-8 223 m 0,0,1
 -6 335 -6 335 51.5 454 c 128,-1,2
 109 573 109 573 205.5 668.5 c 128,-1,3
 302 764 302 764 414 811 c 0,4,5
 441 821 441 821 467 829 c 128,-1,6
 493 837 493 837 513 841.5 c 128,-1,7
 533 846 533 846 553 849.5 c 128,-1,8
 573 853 573 853 586.5 854.5 c 128,-1,9
 600 856 600 856 613.5 857 c 128,-1,10
 627 858 627 858 634 857.5 c 128,-1,11
 641 857 641 857 648 857 c 128,-1,12
 655 857 655 857 655 857 c 0,13,14
 737 857 737 857 775 837 c 0,15,16
 807 821 807 821 822 790 c 0,17,18
 831 771 831 771 831 746 c 0,19,20
 831 660 831 660 748 624 c 0,21,22
 719 611 719 611 697 611 c 0,23,24
 652 611 652 611 620 646 c 0,25,26
 592 677 592 677 582 684 c 0,27,28
 551 703 551 703 509.5 694 c 128,-1,29
 468 685 468 685 423.5 659 c 128,-1,30
 379 633 379 633 335 593.5 c 128,-1,31
 291 554 291 554 255 511.5 c 128,-1,32
 219 469 219 469 194.5 427 c 128,-1,33
 170 385 170 385 166 354 c 0,34,35
 147 231 147 231 259 130 c 0,36,37
 333 62 333 62 438 62 c 0,38,39
 483 62 483 62 601 80 c 0,40,41
 670 91 670 91 720 91 c 0,42,43
 865 91 865 91 946 -10 c 0,44,45
 1009 -89 1009 -89 1009 -206 c 0,46,47
 1009 -315 1009 -315 923 -511 c 0,48,49
 907 -547 907 -547 890 -582 c 0,50,51
 639 -1086 639 -1086 -60 -1550 c 1,52,-1
 -158 -1614 l 1,53,-1
 -355 -1739 l 2,54,55
 -405 -1768 -405 -1768 -438 -1768 c 0,56,57
 -458 -1768 -458 -1768 -458 -1755 c 0,58,59
 -458 -1729 -458 -1729 -400 -1687 c 2,60,-1
 -332 -1642 l 1,61,62
 86 -1381 86 -1381 310 -1185 c 0,63,64
 665 -875 665 -875 790 -529 c 0,65,66
 809 -477 809 -477 823 -423 c 0,67,68
 835 -376 835 -376 835 -336 c 0,69,70
 835 -208 835 -208 750 -132 c 0,71,72
 680 -69 680 -69 574 -69 c 0,73,74
 528 -69 528 -69 411 -88 c 0,75,76
 345 -98 345 -98 298 -98 c 0,77,78
 153 -98 153 -98 67 3 c 0,79,80
 -8 90 -8 90 -8 223 c 0,0,1
EndSplineSet
Validated: 33
EndChar

StartChar: i.dotless
Encoding: 258 -1 117
Width: 522
Flags: W
LayerCount: 2
Fore
SplineSet
-42 675 m 0,0,1
 -42 705 -42 705 13 761 c 0,2,3
 116 862 116 862 267 895 c 0,4,5
 306 903 306 903 346 906 c 2,6,-1
 375 906 l 2,7,8
 462 906 462 906 500 825 c 0,9,10
 521 781 521 781 521 723 c 0,11,12
 521 628 521 628 452 444 c 0,13,14
 361 201 361 201 244 75 c 0,15,16
 175 0 175 0 125 -14 c 0,17,18
 118 -16 118 -16 112 -16 c 0,19,20
 96 -16 96 -16 96 -3 c 0,21,22
 96 17 96 17 147 78 c 0,23,24
 164 98 164 98 169 106 c 0,25,26
 255 234 255 234 315 435 c 0,27,28
 347 540 347 540 347 590 c 0,29,30
 347 689 347 689 286 729 c 0,31,32
 260 747 260 747 226 747 c 0,33,34
 117 747 117 747 42 695 c 0,35,36
 1 667 1 667 -11 664 c 0,37,38
 -18 662 -18 662 -26 662 c 0,39,40
 -42 662 -42 662 -42 675 c 0,0,1
EndSplineSet
Validated: 1
EndChar

StartChar: j.dotless
Encoding: 259 -1 118
Width: 596
Flags: W
LayerCount: 2
Fore
SplineSet
24 675 m 0,0,1
 24 704 24 704 78 759 c 0,2,3
 178 861 178 861 324 894 c 0,4,5
 366 904 366 904 410 906 c 0,6,7
 486 910 486 910 521 883 c 0,8,9
 546 865 546 865 565 828 c 0,10,11
 588 784 588 784 588 727 c 0,12,13
 588 585 588 585 421 226 c 0,14,15
 368 110 368 110 306 -5 c 0,16,17
 -246 -1039 -246 -1039 -913 -1768 c 1,18,-1
 -1007 -1869 l 2,19,20
 -1077 -1946 -1077 -1946 -1264 -2122 c 0,21,22
 -1339 -2193 -1339 -2193 -1366 -2215 c 0,23,24
 -1415 -2255 -1415 -2255 -1444 -2255 c 0,25,26
 -1459 -2255 -1459 -2255 -1459 -2241 c 0,27,28
 -1459 -2213 -1459 -2213 -1397 -2152 c 2,29,-1
 -1211 -1974 l 1,30,-1
 -1187 -1951 l 1,31,32
 -473 -1239 -473 -1239 138 -103 c 0,33,34
 332 257 332 257 393 478 c 0,35,36
 414 551 414 551 414 595 c 0,37,38
 414 669 414 669 373 713 c 0,39,40
 341 746 341 746 291 746 c 0,41,42
 182 746 182 746 107 695 c 0,43,44
 67 667 67 667 56 664 c 0,45,46
 48 662 48 662 40 662 c 0,47,48
 24 662 24 662 24 675 c 0,0,1
EndSplineSet
Validated: 33
EndChar

StartChar: f_f
Encoding: 260 -1 119
Width: 1334
Flags: W
LayerCount: 2
Fore
SplineSet
-1114 -877 m 0,0,1
 -1103 -877 -1103 -877 -1101 -890 c 0,2,3
 -1101 -908 -1101 -908 -1131 -943 c 0,4,5
 -1175 -994 -1175 -994 -1185 -1042 c 0,6,7
 -1190 -1064 -1190 -1064 -1190 -1089 c 0,8,9
 -1190 -1195 -1190 -1195 -1115 -1283 c 0,10,11
 -1033 -1379 -1033 -1379 -897 -1396 c 0,12,13
 -884 -1398 -884 -1398 -849 -1398 c 0,14,15
 -550 -1398 -550 -1398 -375 -1186 c 0,16,17
 -362 -1170 -362 -1170 -346 -1149 c 0,18,19
 -231 -996 -231 -996 -128 -739 c 0,20,21
 -47 -536 -47 -536 90 -113 c 2,22,-1
 361 724 l 2,23,24
 480 1094 480 1094 505 1167 c 0,25,26
 722 1787 722 1787 1007 2180 c 0,27,28
 1093 2298 1093 2298 1187 2400 c 0,29,30
 1370 2597 1370 2597 1434 2605 c 0,31,32
 1450 2605 1450 2605 1450 2592 c 0,33,34
 1450 2558 1450 2558 1380 2493 c 0,35,36
 970 2117 970 2117 672 1267 c 0,37,38
 644 1186 644 1186 536 847 c 2,39,-1
 261 -1 l 1,40,41
 63 -644 63 -644 -102 -936 c 0,42,43
 -185 -1083 -185 -1083 -295 -1208 c 0,44,45
 -519 -1462 -519 -1462 -797 -1534 c 0,46,47
 -893 -1558 -893 -1558 -990 -1558 c 0,48,49
 -1163 -1558 -1163 -1558 -1270 -1450 c 0,50,51
 -1364 -1355 -1364 -1355 -1364 -1221 c 128,-1,52
 -1364 -1087 -1364 -1087 -1251 -967 c 0,53,54
 -1186 -898 -1186 -898 -1131 -880 c 0,55,56
 -1121 -877 -1121 -877 -1114 -877 c 0,0,1
1156 807 m 0,57,58
 1349 807 1349 807 1451 886 c 2,59,-1
 1505 929 l 2,60,61
 1523 941 1523 941 1540 941 c 0,62,63
 1553 941 1553 941 1553 931 c 0,64,65
 1553 906 1553 906 1504 862 c 0,66,67
 1340 714 1340 714 1133 689 c 0,68,69
 1089 684 1089 684 1041 684 c 0,70,71
 906 684 906 684 676 728 c 0,72,73
 454 770 454 770 349 776 c 0,74,75
 316 778 316 778 285 778 c 0,76,77
 90 778 90 778 -11 700 c 2,78,-1
 -66 656 l 2,79,80
 -84 644 -84 644 -102 644 c 0,81,82
 -113 644 -113 644 -113 654 c 0,83,84
 -113 683 -113 683 -51 738 c 0,85,86
 64 840 64 840 229 881 c 0,87,88
 312 901 312 901 397 901 c 0,89,90
 525 901 525 901 754 858 c 0,91,92
 983 814 983 814 1093 809 c 0,93,94
 1125 807 1125 807 1156 807 c 0,57,58
-655 -873 m 0,95,96
 -644 -873 -644 -873 -642 -886 c 0,97,98
 -642 -904 -642 -904 -672 -939 c 0,99,100
 -716 -990 -716 -990 -726 -1038 c 0,101,102
 -731 -1060 -731 -1060 -731 -1085 c 0,103,104
 -731 -1191 -731 -1191 -656 -1279 c 0,105,106
 -574 -1375 -574 -1375 -438 -1392 c 0,107,108
 -425 -1394 -425 -1394 -390 -1394 c 0,109,110
 -91 -1394 -91 -1394 84 -1182 c 0,111,112
 97 -1166 97 -1166 113 -1145 c 0,113,114
 228 -992 228 -992 331 -735 c 0,115,116
 412 -532 412 -532 549 -109 c 2,117,-1
 820 728 l 2,118,119
 939 1098 939 1098 964 1171 c 0,120,121
 1181 1791 1181 1791 1466 2184 c 0,122,123
 1552 2302 1552 2302 1646 2404 c 0,124,125
 1829 2601 1829 2601 1893 2609 c 0,126,127
 1909 2609 1909 2609 1909 2596 c 0,128,129
 1909 2562 1909 2562 1839 2497 c 0,130,131
 1429 2121 1429 2121 1131 1271 c 0,132,133
 1103 1190 1103 1190 995 851 c 2,134,-1
 720 3 l 1,135,136
 522 -640 522 -640 357 -932 c 0,137,138
 274 -1079 274 -1079 164 -1204 c 0,139,140
 -60 -1458 -60 -1458 -338 -1530 c 0,141,142
 -434 -1554 -434 -1554 -531 -1554 c 0,143,144
 -704 -1554 -704 -1554 -811 -1446 c 0,145,146
 -905 -1351 -905 -1351 -905 -1217 c 128,-1,147
 -905 -1083 -905 -1083 -792 -963 c 0,148,149
 -727 -894 -727 -894 -672 -876 c 0,150,151
 -662 -873 -662 -873 -655 -873 c 0,95,96
EndSplineSet
Validated: 5
Ligature2: "Ligatures subtable" f f
EndChar

StartChar: t_t
Encoding: 261 -1 120
Width: 1604
Flags: W
LayerCount: 2
Fore
SplineSet
1529 715 m 2,0,-1
 1175 720 l 2,1,2
 1117 720 1117 720 1099 695 c 0,3,4
 1097 693 1097 693 1079 654 c 0,5,6
 1041 570 1041 570 1041 478 c 0,7,8
 1041 403 1041 403 1076 315 c 0,9,10
 1142 150 1142 150 1282 143 c 1,11,-1
 1293 143 l 2,12,13
 1435 143 1435 143 1518 202 c 0,14,15
 1562 233 1562 233 1566 235 c 0,16,17
 1581 242 1581 242 1596 242 c 0,18,19
 1612 242 1612 242 1612 228 c 0,20,21
 1612 197 1612 197 1554 141 c 0,22,23
 1448 38 1448 38 1290 1 c 0,24,25
 1244 -10 1244 -10 1197 -14 c 0,26,27
 1175 -16 1175 -16 1144 -16 c 0,28,29
 1020 -16 1020 -16 942 97 c 0,30,31
 913 138 913 138 893 193 c 1,32,-1
 876 176 l 2,33,34
 726 26 726 26 542 -8 c 0,35,36
 496 -16 496 -16 452 -16 c 0,37,38
 341 -16 341 -16 266 80 c 0,39,40
 192 174 192 174 192 309 c 0,41,42
 192 518 192 518 371 710 c 0,43,44
 400 742 400 742 432 770 c 1,45,-1
 400 770 l 1,46,-1
 385 770 l 2,47,48
 33 770 33 770 -134 627 c 0,49,50
 -186 583 -186 583 -217 583 c 0,51,52
 -233 583 -233 583 -233 598 c 0,53,54
 -233 629 -233 629 -181 677 c 0,55,56
 40 876 40 876 370 907 c 0,57,58
 436 913 436 913 510 913 c 0,59,60
 651 913 651 913 868 891 c 0,61,62
 1193 858 1193 858 1615 858 c 0,63,64
 1760 858 1760 858 1813 889 c 0,65,66
 1835 901 1835 901 1851 901 c 0,67,68
 1868 901 1868 901 1868 885 c 0,69,70
 1868 864 1868 864 1837 827 c 0,71,72
 1750 724 1750 724 1560 716 c 0,73,74
 1545 715 1545 715 1529 715 c 2,0,-1
367 446 m 0,75,76
 367 296 367 296 452 209 c 0,77,78
 514 144 514 144 599 144 c 0,79,80
 685 144 685 144 765 179 c 0,81,82
 790 190 790 190 799 199 c 0,83,84
 838 238 838 238 856 332 c 0,85,86
 880 454 880 454 882 464 c 0,87,88
 919 608 919 608 1020 718 c 1,89,-1
 1026 726 l 1,90,-1
 736 748 l 1,91,92
 586 764 586 764 554 764 c 0,93,94
 524 764 524 764 476 715 c 0,95,96
 384 625 384 625 370 489 c 0,97,98
 367 468 367 468 367 446 c 0,75,76
EndSplineSet
Validated: 1
Ligature2: "Ligatures subtable" t t
EndChar

StartChar: Oacute
Encoding: 211 211 121
Width: 920
Flags: W
LayerCount: 2
Fore
SplineSet
17 328 m 0,0,1
 17 513 17 513 170 674 c 0,2,3
 294 803 294 803 457 860 c 0,4,5
 539 888 539 888 610 888 c 0,6,7
 761 888 761 888 848 778 c 0,8,9
 921 685 921 685 921 546 c 0,10,11
 921 359 921 359 766 196 c 0,12,13
 683 110 683 110 575 52 c 0,14,15
 446 -16 446 -16 314 -16 c 0,16,17
 175 -16 175 -16 91 93 c 0,18,19
 17 188 17 188 17 328 c 0,0,1
191 459 m 0,20,21
 191 320 191 320 275 227 c 0,22,23
 351 143 351 143 458 143 c 0,24,25
 542 143 542 143 617 174 c 0,26,27
 657 189 657 189 679 211 c 0,28,29
 739 269 739 269 746 394 c 0,30,31
 747 405 747 405 747 414 c 0,32,33
 747 560 747 560 660 650 c 0,34,35
 585 728 585 728 472 728 c 0,36,37
 399 728 399 728 323 699 c 0,38,39
 269 678 269 678 247 647 c 0,40,41
 191 571 191 571 191 459 c 0,20,21
520 1055 m 0,42,43
 504 1054 504 1054 503 1072 c 0,44,45
 503 1101 503 1101 840 1433 c 2,46,-1
 921 1513 l 2,47,48
 946 1538 946 1538 967 1538 c 0,49,50
 992 1538 992 1538 999 1516 c 0,51,52
 1001 1510 1001 1510 1001 1504 c 0,53,54
 1001 1486 1001 1486 980 1463 c 0,55,56
 973 1456 973 1456 896 1382 c 0,57,58
 646 1145 646 1145 553 1074 c 0,59,60
 527 1055 527 1055 520 1055 c 0,42,43
EndSplineSet
Validated: 1
EndChar

StartChar: Ocircumflex
Encoding: 212 212 122
Width: 926
Flags: W
LayerCount: 2
Fore
SplineSet
17 328 m 0,0,1
 17 513 17 513 170 674 c 0,2,3
 294 803 294 803 457 860 c 0,4,5
 539 888 539 888 610 888 c 0,6,7
 761 888 761 888 848 778 c 0,8,9
 921 685 921 685 921 546 c 0,10,11
 921 359 921 359 766 196 c 0,12,13
 683 110 683 110 575 52 c 0,14,15
 446 -16 446 -16 314 -16 c 0,16,17
 175 -16 175 -16 91 93 c 0,18,19
 17 188 17 188 17 328 c 0,0,1
191 459 m 0,20,21
 191 320 191 320 275 227 c 0,22,23
 351 143 351 143 458 143 c 0,24,25
 542 143 542 143 617 174 c 0,26,27
 657 189 657 189 679 211 c 0,28,29
 739 269 739 269 746 394 c 0,30,31
 747 405 747 405 747 414 c 0,32,33
 747 560 747 560 660 650 c 0,34,35
 585 728 585 728 472 728 c 0,36,37
 399 728 399 728 323 699 c 0,38,39
 269 678 269 678 247 647 c 0,40,41
 191 571 191 571 191 459 c 0,20,21
205 1005 m 0,42,43
 194 1005 194 1005 194 1015 c 0,44,45
 194 1039 194 1039 235 1079 c 2,46,-1
 354 1191 l 2,47,48
 456 1292 456 1292 564 1423 c 0,49,50
 605 1472 605 1472 647 1489 c 0,51,52
 657 1493 657 1493 664 1493 c 0,53,54
 675 1493 675 1493 684 1454 c 0,55,56
 708 1349 708 1349 738 1285 c 0,57,58
 777 1205 777 1205 841 1133 c 0,59,60
 850 1122 850 1122 850 1118 c 0,61,62
 850 1096 850 1096 805 1051 c 0,63,64
 758 1005 758 1005 728 1005 c 0,65,66
 709 1005 709 1005 659 1083 c 0,67,68
 584 1202 584 1202 553 1322 c 0,69,70
 552 1322 552 1322 460 1224 c 0,71,72
 256 1005 256 1005 205 1005 c 0,42,43
EndSplineSet
Validated: 1
EndChar

StartChar: Otilde
Encoding: 213 213 123
Width: 923
Flags: W
LayerCount: 2
Fore
SplineSet
17 328 m 0,0,1
 17 513 17 513 170 674 c 0,2,3
 294 803 294 803 457 860 c 0,4,5
 539 888 539 888 610 888 c 0,6,7
 761 888 761 888 848 778 c 0,8,9
 921 685 921 685 921 546 c 0,10,11
 921 359 921 359 766 196 c 0,12,13
 683 110 683 110 575 52 c 0,14,15
 446 -16 446 -16 314 -16 c 0,16,17
 175 -16 175 -16 91 93 c 0,18,19
 17 188 17 188 17 328 c 0,0,1
191 459 m 0,20,21
 191 320 191 320 275 227 c 0,22,23
 351 143 351 143 458 143 c 0,24,25
 542 143 542 143 617 174 c 0,26,27
 657 189 657 189 679 211 c 0,28,29
 739 269 739 269 746 394 c 0,30,31
 747 405 747 405 747 414 c 0,32,33
 747 560 747 560 660 650 c 0,34,35
 585 728 585 728 472 728 c 0,36,37
 399 728 399 728 323 699 c 0,38,39
 269 678 269 678 247 647 c 0,40,41
 191 571 191 571 191 459 c 0,20,21
808 1208 m 0,42,43
 909 1208 909 1208 951 1242 c 2,44,-1
 983 1268 l 2,45,46
 997 1277 997 1277 1015 1282 c 1,47,-1
 1024 1282 l 2,48,49
 1034 1281 1034 1281 1034 1272 c 0,50,51
 1034 1248 1034 1248 985 1201 c 0,52,53
 888 1110 888 1110 757 1090 c 0,54,55
 727 1085 727 1085 696 1085 c 0,56,57
 620 1085 620 1085 472 1113 c 0,58,59
 350 1137 350 1137 277 1137 c 0,60,61
 174 1137 174 1137 113 1091 c 0,62,63
 82 1067 82 1067 71 1064 c 0,64,65
 66 1063 66 1063 59 1063 c 0,66,67
 48 1063 48 1063 48 1073 c 0,68,69
 48 1098 48 1098 98 1146 c 0,70,71
 194 1236 194 1236 326 1256 c 0,72,73
 357 1260 357 1260 387 1260 c 0,74,75
 460 1260 460 1260 614 1231 c 0,76,77
 737 1208 737 1208 808 1208 c 0,42,43
EndSplineSet
Validated: 1
EndChar

StartChar: Odieresis
Encoding: 214 214 124
Width: 920
Flags: W
LayerCount: 2
Fore
SplineSet
17 328 m 0,0,1
 17 513 17 513 170 674 c 0,2,3
 294 803 294 803 457 860 c 0,4,5
 539 888 539 888 610 888 c 0,6,7
 761 888 761 888 848 778 c 0,8,9
 921 685 921 685 921 546 c 0,10,11
 921 359 921 359 766 196 c 0,12,13
 683 110 683 110 575 52 c 0,14,15
 446 -16 446 -16 314 -16 c 0,16,17
 175 -16 175 -16 91 93 c 0,18,19
 17 188 17 188 17 328 c 0,0,1
191 459 m 0,20,21
 191 320 191 320 275 227 c 0,22,23
 351 143 351 143 458 143 c 0,24,25
 542 143 542 143 617 174 c 0,26,27
 657 189 657 189 679 211 c 0,28,29
 739 269 739 269 746 394 c 0,30,31
 747 405 747 405 747 414 c 0,32,33
 747 560 747 560 660 650 c 0,34,35
 585 728 585 728 472 728 c 0,36,37
 399 728 399 728 323 699 c 0,38,39
 269 678 269 678 247 647 c 0,40,41
 191 571 191 571 191 459 c 0,20,21
345 1051 m 0,42,43
 326 1056 326 1056 324 1078 c 1,44,45
 362 1187 362 1187 404 1293 c 0,46,47
 446 1393 446 1393 469 1414 c 0,48,49
 484 1428 484 1428 503 1428 c 0,50,51
 536 1428 536 1428 546 1396 c 0,52,53
 549 1387 549 1387 549 1377 c 0,54,55
 549 1349 549 1349 502 1271 c 2,56,-1
 482 1237 l 1,57,-1
 413 1131 l 1,58,-1
 375 1071 l 2,59,60
 360 1051 360 1051 345 1051 c 0,42,43
667 1051 m 0,61,62
 648 1056 648 1056 646 1078 c 1,63,64
 684 1187 684 1187 726 1293 c 0,65,66
 768 1393 768 1393 791 1414 c 0,67,68
 806 1428 806 1428 825 1428 c 0,69,70
 858 1428 858 1428 868 1396 c 0,71,72
 871 1387 871 1387 871 1377 c 0,73,74
 871 1349 871 1349 824 1271 c 2,75,-1
 804 1237 l 1,76,-1
 735 1131 l 1,77,-1
 697 1071 l 2,78,79
 682 1051 682 1051 667 1051 c 0,61,62
EndSplineSet
Validated: 1
EndChar

StartChar: multiply
Encoding: 215 215 125
Width: 1043
Flags: W
LayerCount: 2
Fore
SplineSet
194 232 m 0,0,1
 173 232 173 232 170 256 c 0,2,3
 170 296 170 296 621 740 c 2,4,-1
 730 846 l 2,5,6
 764 880 764 880 791 880 c 0,7,8
 824 880 824 880 834 850 c 0,9,10
 837 842 837 842 837 834 c 0,11,12
 837 810 837 810 809 780 c 0,13,14
 800 770 800 770 697 670 c 0,15,16
 363 352 363 352 238 258 c 0,17,18
 203 232 203 232 194 232 c 0,0,1
813 232 m 0,19,20
 804 232 804 232 769 258 c 0,21,22
 644 352 644 352 310 670 c 0,23,24
 207 770 207 770 198 780 c 0,25,26
 170 810 170 810 170 834 c 0,27,28
 170 842 170 842 173 850 c 0,29,30
 183 880 183 880 216 880 c 0,31,32
 243 880 243 880 277 846 c 2,33,-1
 386 740 l 2,34,35
 837 296 837 296 837 256 c 0,36,37
 834 232 834 232 813 232 c 0,19,20
EndSplineSet
Validated: 5
EndChar

